<svg xmlns="http://www.w3.org/2000/svg" width="144" height="122" viewBox="0 0 144 122">
    <g fill="none" fill-rule="evenodd">
        <path d="M0 0h144v122H0z"/>
        <path fill="#1F635D" d="M114 95.857c0 3.195-2.688 5.81-6 5.81H36c-3.312 0-6-2.615-6-5.81V26.143c0-3.195 2.688-5.81 6-5.81h72c3.312 0 6 2.615 6 5.81v69.714zm-6-81.333H36c-6.627 0-12 5.2-12 11.619v69.714c0 6.42 5.373 11.62 12 11.62h72c6.627 0 12-5.2 12-11.62V26.143c0-6.42-5.373-11.62-12-11.62zM97.05 46.202S65.057 81.166 64.554 81.729c-1.497 1.629-3.92 1.629-5.417 0 0 0-12.262-13.41-12.3-13.45-1.38-1.65-1.342-4.203.115-5.811 1.495-1.629 3.92-1.629 5.417 0l9.475 10.374 29.79-32.571c1.494-1.629 3.92-1.629 5.416 0 1.495 1.628 1.495 4.282 0 5.931zm2.706-8.887c-2.991-3.277-7.84-3.277-10.831 0L61.844 66.911l-6.769-7.399c-2.992-3.257-7.842-3.257-10.831 0-2.992 3.277-2.992 8.585 0 11.843l12.185 13.33c2.992 3.277 7.84 3.277 10.831 0l32.496-35.527c2.992-3.278 2.992-8.586 0-11.843z"/>
    </g>
</svg>
