<svg xmlns="http://www.w3.org/2000/svg" width="144" height="122" viewBox="0 0 144 122">
    <g fill="none" fill-rule="evenodd">
        <path d="M0 0h144v122H0z"/>
        <path fill="#1F635D" d="M113.806 95.857c0 3.207-3.121 5.81-6.967 5.81H37.16c-3.846 0-6.967-2.603-6.967-5.81V37.762c0-3.207 3.121-5.81 6.967-5.81h10.452v11.62h48.774v-11.62h10.452c3.846 0 6.967 2.603 6.967 5.81v58.095zM54.968 26.143h7.572c0-3.207 4.235-5.81 9.46-5.81 5.225 0 9.46 2.603 9.46 5.81h7.572v11.619H54.968v-11.62zm41.032 0v-5.81h-9.233c-2.973-3.456-8.438-5.81-14.767-5.81-6.33 0-11.794 2.354-14.767 5.81H48v5.81H37.714C30.141 26.143 24 31.345 24 37.762v58.095c0 6.417 6.14 11.62 13.714 11.62h68.572c7.573 0 13.714-5.203 13.714-11.62V37.762c0-6.417-6.14-11.62-13.714-11.62H96zm1.742 29.047H46.258c-2.034 0-3.677 1.302-3.677 2.905 0 1.607 1.643 2.905 3.677 2.905h51.484c2.034 0 3.677-1.298 3.677-2.905 0-1.603-1.643-2.905-3.677-2.905zm0 29.048H46.258c-2.034 0-3.677 1.301-3.677 2.905 0 1.606 1.643 2.905 3.677 2.905h51.484c2.034 0 3.677-1.299 3.677-2.905 0-1.604-1.643-2.905-3.677-2.905zm0-14.524H46.258c-2.034 0-3.677 1.302-3.677 2.905 0 1.606 1.643 2.905 3.677 2.905h51.484c2.034 0 3.677-1.299 3.677-2.905 0-1.603-1.643-2.905-3.677-2.905z"/>
    </g>
</svg>
