<svg xmlns="http://www.w3.org/2000/svg" width="144" height="122" viewBox="0 0 144 122">
    <g fill="none" fill-rule="evenodd">
        <path d="M0 0h144v122H0z"/>
        <path fill="#1F635D" d="M30.194 47.929c0-15.239 14.719-27.596 34.064-27.596 15.4 0 30.968 12.357 30.968 27.596 0 15.24-12.155 27.595-30.968 27.595-2.765 0-8.535-.296-11.108-.799l-10.57 6.608V71.04c-7.552-5.749-12.386-13.426-12.386-23.11zm23.65 32.637c2.406.37 7.878.767 10.414.767 22.235 0 37.161-15.52 37.161-33.768 0-18.247-18.652-33.041-37.16-33.041C41.994 14.524 24 29.318 24 47.565c0 10.574 4.295 19.547 12.387 26.01v16.473l17.457-9.482zm53.611-39.496c.059.831.158 1.656.158 2.501 0 1.848-.192 3.658-.468 5.444 4.169 4.578 6.661 10.219 6.661 16.342 0 9.685-6.168 18.187-15.483 23.11v10.295l-10.57-6.608a41.714 41.714 0 0 1-8.011.798c-8.02 0-12.282-2.26-18.104-6.015a67.688 67.688 0 0 1-5.122.206c-1.232 0-2.44-.081-3.654-.148 7.373 6.76 14.954 11.04 26.88 11.04 2.536 0 5.01-.214 7.417-.583l17.357 10.024V91.003C113.93 84.953 120 75.567 120 64.994c0-9.423-4.834-17.905-12.545-23.924zM81.29 52.286c2.568 0 4.645-1.95 4.645-4.357 0-2.406-2.077-4.358-4.645-4.358-2.567 0-4.645 1.952-4.645 4.358 0 2.408 2.078 4.357 4.645 4.357zm-37.161 0c2.567 0 4.645-1.95 4.645-4.357 0-2.406-2.078-4.358-4.645-4.358-2.567 0-4.645 1.952-4.645 4.358 0 2.408 2.078 4.357 4.645 4.357zm18.58 0c2.568 0 4.646-1.95 4.646-4.357 0-2.406-2.078-4.358-4.645-4.358-2.568 0-4.645 1.952-4.645 4.358 0 2.408 2.077 4.357 4.645 4.357z"/>
    </g>
</svg>
