<?xml version="1.0" standalone="no"?>
<!DOCTYPE svg PUBLIC "-//W3C//DTD SVG 1.1//EN" "http://www.w3.org/Graphics/SVG/1.1/DTD/svg11.dtd" >
<svg xmlns="http://www.w3.org/2000/svg">
<metadata>
This is a custom SVG webfont generated by Font Squirrel.
Copyright   : Copyright  1989 1990 1999 2001 Adobe Systems Incorporated  All Rights Reserved
Designer    : Morris Fuller Benton
Foundry URL : httpwwwadobecomtype
</metadata>
<defs>
<font id="BodoniStdBookItalic" horiz-adv-x="1024" >
<font-face units-per-em="2048" ascent="1430" descent="-618" />
<missing-glyph horiz-adv-x="512" />
<glyph unicode=" "  horiz-adv-x="512" />
<glyph unicode="&#x09;" horiz-adv-x="512" />
<glyph unicode="&#xa0;" horiz-adv-x="512" />
<glyph unicode="!" horiz-adv-x="796" d="M160 88q0 47 33.5 82t80.5 35q45 0 79 -35t34 -82t-32.5 -81t-80 -34t-81 34t-33.5 81zM313 393q70 260 88.5 385t30.5 361q14 252 152 252q35 0 63.5 -30t28.5 -89q0 -68 -38 -141.5t-118 -263t-153 -474.5h-54z" />
<glyph unicode="&#x22;" horiz-adv-x="909" d="M258 799q51 432 72 497q20 66 67 74q12 2 29 2q78 0 78 -59q0 -20 -8.5 -51t-27.5 -82.5t-37.5 -98.5t-52.5 -132t-61 -150h-59zM635 799q51 432 72 497q20 66 67 74q12 2 29 2q78 0 78 -59q0 -20 -8.5 -51t-28 -82.5t-38 -98.5t-52 -132t-60.5 -150h-59z" />
<glyph unicode="#" d="M-63 393l26 107h232l129 321h-222l27 107h238l157 393h115l-158 -393h277l157 393h115l-158 -393h197l-27 -107h-213l-129 -321h203l-26 -107h-220l-157 -393h-115l158 393h-277l-157 -393h-115l158 393h-215zM309 500h277l129 321h-277z" />
<glyph unicode="$" d="M35 276q0 61 30.5 114.5t88.5 53.5q37 0 62.5 -22.5t25.5 -61t-28 -66.5t-60 -28h-45q-10 0 -11 -35q0 -33 35 -85t113 -80l155 596q-174 84 -174 264q0 49 13.5 98t47.5 107.5t105.5 101.5t171.5 57l39 152h49l-37 -142q14 4 54 5q68 0 106 -9l39 146h49l-41 -158 q174 -49 174 -213q0 -49 -22.5 -82t-67.5 -33q-37 0 -58.5 24t-21.5 60.5t22.5 54t46.5 23.5t24 12q0 80 -107 115l-131 -504q102 -47 158.5 -118.5t56.5 -194.5q0 -63 -18.5 -123.5t-61.5 -123t-126 -108.5t-199 -63l-52 -196h-49l49 188q-16 -2 -67 -2q-47 0 -92 10 l-52 -196h-49l56 209q-106 33 -153.5 109t-47.5 144zM291 53q37 -10 86 -10q41 0 76 6l137 526q-16 8 -66.5 29t-79.5 33zM315 1004q0 -106 134 -162l104 405q-111 -27 -174.5 -93t-63.5 -150zM492 819q18 -8 67 -27.5t78 -31.5l129 493q-43 8 -86 9q-29 0 -74 -5zM504 59 q137 27 207.5 113t70.5 190q0 127 -147 195z" />
<glyph unicode="%" horiz-adv-x="1705" d="M135 809q0 170 144.5 346t304.5 176q80 0 127 -32.5t75 -100.5q45 -25 95 -24q98 0 202.5 53t178.5 151h88l-803 -1435h-105l717 1269l-4 5q-121 -86 -278 -87q-2 0 -82 13q-2 -256 -131 -418t-285 -162q-106 0 -175 68.5t-69 177.5zM293 748q0 -70 30.5 -97.5 t100.5 -27.5q39 0 86 24q96 49 167 183.5t71 250.5q0 47 -11 80q-102 51 -127 107h-20q-59 0 -131 -93.5t-119 -217t-47 -209.5zM985 233q0 184 146.5 356.5t308.5 172.5q70 0 139.5 -54.5t69.5 -172.5q0 -72 -28 -162t-79 -177t-135 -146.5t-182 -59.5q-104 0 -172 67 t-68 176zM1143 178q0 -129 139 -129q82 0 159 86t119 194.5t42 190.5q0 178 -142 178q-51 0 -127 -78.5t-123 -191.5q-67 -162 -67 -250z" />
<glyph unicode="&#x26;" horiz-adv-x="1478" d="M63 305q0 86 42 165t114 140.5t143.5 105.5t151.5 81q-31 143 -31 243q0 166 98.5 262.5t260.5 96.5q131 0 201.5 -61.5t70.5 -149.5q0 -66 -41 -126.5t-108.5 -103.5t-130 -72.5t-127.5 -49.5q59 -240 206 -508l189 389q61 125 172 125q61 0 102 -36t41 -97 q0 -43 -23.5 -71t-66.5 -28q-78 0 -78 80q0 6 5.5 29.5t5.5 25.5q0 31 -37 27q-33 -4 -61.5 -48t-82.5 -155l-137 -284q98 -201 227 -201q90 0 183 104l30 -16q-123 -199 -301 -199q-156 0 -268 150q-76 -78 -183.5 -116t-211.5 -38q-133 0 -244 90t-111 246zM270 387 q0 -139 70 -239.5t201 -100.5q127 0 241 115q-176 260 -256 588q-256 -115 -256 -363zM651 1147q0 -139 43 -273q111 41 189 129.5t78 198.5q0 156 -136 156q-53 0 -92 -25.5t-54 -64.5t-21.5 -67.5t-6.5 -53.5z" />
<glyph unicode="'" horiz-adv-x="454" d="M240 799q51 432 71 497q20 66 68 74q12 2 29 2q78 0 77 -59q0 -20 -8 -51t-27.5 -82.5t-38 -98.5t-52 -132t-60.5 -150h-59z" />
<glyph unicode="(" horiz-adv-x="681" d="M111 313q0 336 173 636t453 478l17 -41q-170 -92 -291 -308t-177.5 -475t-62.5 -548q-6 -264 139 -501l-30 -19q-100 143 -160.5 364t-60.5 414z" />
<glyph unicode=")" horiz-adv-x="681" d="M-55 -424q170 92 290.5 308t177 475t62.5 548q6 264 -139 502l31 18q100 -143 160.5 -364t60.5 -414q0 -336 -173 -636t-454 -478z" />
<glyph unicode="*" d="M190 776q0 49 45.5 67.5t136.5 39t156 63.5q-66 43 -156.5 63.5t-136 39t-45.5 67.5q0 33 20.5 54.5t51.5 21.5q35 0 71 -38t90 -93t120 -86q0 115 -27 202t-27 111q0 35 21.5 56.5t52.5 21.5t52.5 -21.5t21.5 -56.5q0 -25 -26.5 -111.5t-26.5 -201.5q66 31 120 86 t89.5 93t70.5 38q31 0 51.5 -21.5t20.5 -54.5q0 -49 -45 -67.5t-136 -39t-157 -63.5q66 -43 157 -63.5t136 -39t45 -67.5q0 -33 -20.5 -54.5t-51.5 -21.5q-35 0 -70.5 38t-90 93.5t-119.5 86.5q0 -115 26.5 -202t26.5 -112q0 -35 -21.5 -56.5t-52.5 -21.5t-52.5 21.5 t-21.5 56.5q0 25 27 112t27 202q-66 -31 -120 -86.5t-90 -93.5t-71 -38q-31 0 -51.5 21.5t-20.5 54.5z" />
<glyph unicode="+" horiz-adv-x="1126" d="M88 438v119h416v438h119v-438h415v-119h-415v-438h-119v438h-416z" />
<glyph unicode="," horiz-adv-x="512" d="M-12 -287q244 150 243 269q0 55 -28 55q-8 0 -34 -28.5t-67 -28.5q-33 0 -57.5 27.5t-24.5 60.5q0 57 36 94t94 37q72 0 107.5 -50.5t35.5 -123.5q0 -113 -78 -195t-205 -156z" />
<glyph unicode="-" horiz-adv-x="681" d="M47 385l31 123h487l-30 -123h-488z" />
<glyph unicode="." horiz-adv-x="512" d="M31 94q0 51 34.5 86t86 35t87 -35t35.5 -86t-35.5 -85t-87 -34t-86 34t-34.5 85z" />
<glyph unicode="/" horiz-adv-x="569" d="M-152 -31l809 1430h138l-809 -1430h-138z" />
<glyph unicode="0" d="M57 395q0 201 56.5 383.5t144.5 304t193.5 193.5t203.5 72q92 0 160 -42t104.5 -114t53 -153t16.5 -171q0 -137 -43 -290.5t-118.5 -288.5t-196.5 -223.5t-260 -88.5q-111 0 -185.5 75t-101.5 164t-27 179zM201 221q4 -113 50 -158t144 -45q43 0 101 29 q137 72 245.5 447.5t108.5 597.5q0 92 -47 153.5t-133 61.5q-117 0 -203 -111q-102 -135 -186 -490.5t-80 -484.5z" />
<glyph unicode="1" d="M66 0l14 47h205l270 1059q25 86 25 137q0 31 -113 31h-107l15 47h57q322 20 354 27l-333 -1301h229l-14 -47h-602z" />
<glyph unicode="2" d="M-39 0v102q59 53 183 147.5t219.5 173.5t194.5 180.5t154.5 215t55.5 232.5q0 246 -238 245q-92 0 -176 -54t-84 -120q0 -49 41 -49q45 0 76 -24.5t31 -65.5q0 -45 -23.5 -70.5t-58.5 -25.5q-66 0 -103.5 44t-37.5 111q0 127 112.5 216.5t304.5 89.5q143 0 247 -84 t104 -228q0 -98 -62.5 -202.5t-169 -199.5t-211 -175t-224.5 -167t-175 -136l4 -4h502q55 0 85.5 36.5t55.5 120.5h53l-90 -309h-770z" />
<glyph unicode="3" d="M-12 217q0 51 31.5 89t78.5 38q29 0 60.5 -21.5t31.5 -62.5q0 -49 -29.5 -69.5t-60 -28.5t-30.5 -27q0 -4 4 -14t20.5 -28.5t43 -34t77.5 -28t119 -12.5q135 0 234.5 122t99.5 325q0 115 -75 171t-192 56q-14 0 -43.5 -2t-44.5 -2q-39 0 -39 37q0 29 50 29q6 0 34.5 -2 t49.5 -2q174 0 267 113.5t93 269.5q0 174 -186 174q-68 0 -125.5 -25t-57.5 -53q0 -4 17.5 -26.5t17.5 -63.5t-22.5 -64.5t-61.5 -23.5t-60.5 28.5t-21.5 69.5q0 70 85 134.5t247 64.5q131 0 233.5 -70t102.5 -199q0 -100 -66.5 -181t-152.5 -122t-182 -59v-4 q135 -25 225 -105t90 -215q0 -47 -13.5 -97t-52.5 -108.5t-97 -103.5t-157.5 -76t-226.5 -31q-123 0 -219 60.5t-96 179.5z" />
<glyph unicode="4" d="M-18 344v76q139 195 412.5 497t416.5 431h111l-242 -945h188l35 146h51l-86 -346h-53l37 141h-186l-78 -297h153l-8 -47h-467l10 47h144l80 297h-518zM35 403h481l189 746l-5 4q-401 -390 -665 -750z" />
<glyph unicode="5" d="M39 219q0 57 27.5 96t78.5 39q47 0 77 -29.5t30 -74.5q0 -49 -29.5 -69.5t-59.5 -25.5t-30 -18q0 -45 71.5 -79.5t151.5 -34.5q158 0 254.5 136t96.5 322q0 121 -85 192.5t-204 71.5q-25 0 -113 -17t-94 -17q-12 0 -16.5 12t2.5 25l155 481q14 41 41 66.5t53 25.5h371 q119 0 141 49h31q-8 -102 -57 -148t-144 -46h-401l-131 -404q135 39 240 39q61 0 126.5 -20.5t129 -62.5t104.5 -116.5t41 -169.5q0 -178 -152.5 -321.5t-384.5 -143.5q-121 0 -221 61.5t-100 180.5z" />
<glyph unicode="6" d="M47 377q0 256 142.5 484.5t358.5 361.5t441 145v-47q-227 -20 -413.5 -182t-260.5 -389l4 -5q131 127 302 127q43 0 93 -18t104 -56t89 -113t35 -173q0 -221 -159.5 -378t-374.5 -157q-102 0 -180 50.5t-113 122t-51.5 130t-16.5 97.5zM201 244q0 -102 59 -164t158 -62 q94 0 162.5 62.5t109.5 161.5q25 63 49.5 168.5t24.5 162.5q0 236 -180 236q-90 0 -174 -58.5t-121 -119.5q-29 -47 -58.5 -188.5t-29.5 -198.5z" />
<glyph unicode="7" d="M176 1036l164 285h735v-41q-598 -766 -608 -1047q-2 -31 4 -64.5t6 -51.5q0 -57 -26.5 -98.5t-81.5 -41.5q-53 0 -85 32t-32 89q0 113 154.5 362t527.5 716h-555q-23 0 -41.5 -8.5t-34.5 -28t-24.5 -29.5t-25.5 -40t-20 -34h-57z" />
<glyph unicode="8" d="M14 322q0 143 130 250.5t276 127.5v5q-100 35 -160.5 114.5t-60.5 190.5q0 43 18.5 94t62.5 109.5t136 96.5t219 38q131 0 229.5 -89.5t98.5 -224.5t-111 -233.5t-244 -112.5v-4q117 -31 199 -115t82 -204q0 -174 -143.5 -281t-350.5 -107q-162 0 -271.5 90.5 t-109.5 254.5zM184 215q0 -92 46 -144.5t173 -52.5q150 0 230 123q33 53 55.5 145.5t22.5 162.5q0 119 -59.5 166t-176.5 47q-172 0 -239 -193q-52 -139 -52 -254zM360 936q0 -94 41 -154.5t129 -60.5q133 0 191 104q35 66 56.5 159t21.5 134v10q2 82 -43 130.5t-123 48.5 q-104 0 -158.5 -50.5t-87.5 -164.5q-27 -93 -27 -156z" />
<glyph unicode="9" d="M45 4q227 20 413.5 182t260.5 389l-4 5q-131 -127 -301 -127q-43 0 -93.5 18t-104.5 56t-89 113t-35 173q0 221 160 378t375 157q102 0 180 -50.5t112.5 -122t51 -129t16.5 -96.5q0 -258 -142.5 -486t-358.5 -361.5t-441 -145.5v47zM270 752q0 -236 181 -236 q90 0 174 58.5t120 119.5q29 47 59 188.5t30 198.5q0 102 -59.5 164t-158.5 62q-94 0 -162.5 -62.5t-109.5 -161.5q-25 -61 -49.5 -167.5t-24.5 -163.5z" />
<glyph unicode=":" horiz-adv-x="512" d="M31 98.5q0 53.5 34.5 89t86 35.5t87 -36.5t35.5 -88t-35.5 -88.5t-87 -37t-86 36t-34.5 89.5zM211 706.5q0 53.5 35 89t86 35.5t87 -36.5t36 -88t-36 -88t-87 -36.5t-86 35.5t-35 89z" />
<glyph unicode=";" horiz-adv-x="512" d="M-12 -299q244 154 243 281q0 57 -28 57q-8 0 -34 -29.5t-67 -29.5q-33 0 -57.5 28.5t-24.5 61.5q0 59 36 98t94 39q72 0 107.5 -52.5t35.5 -127.5q0 -117 -78 -203t-205 -164zM211 706.5q0 53.5 35 89t86 35.5t87 -36.5t36 -88t-36 -88t-87 -36.5t-86 35.5t-35 89z" />
<glyph unicode="&#x3c;" horiz-adv-x="1126" d="M88 436v123l950 496v-133l-802 -424l802 -426v-131z" />
<glyph unicode="=" horiz-adv-x="1126" d="M88 229v119h950v-119h-950zM88 647v119h950v-119h-950z" />
<glyph unicode="&#x3e;" horiz-adv-x="1126" d="M88 -59v131l803 426l-803 424v133l950 -496v-123z" />
<glyph unicode="?" d="M182 90q0 47 34 82t81 35q45 0 79 -35t34 -82t-33 -81t-80 -34t-81 34t-34 81zM324 1153q0 90 79.5 168t208.5 78q141 0 231.5 -91t90.5 -235q0 -117 -51.5 -198.5t-113.5 -119.5t-161.5 -91.5t-152.5 -96.5q-59 -47 -74 -172h-45q4 76 15 132.5t36 101.5t46.5 74.5 t70.5 64.5t84 54.5t110 60.5q86 45 130 98t44 139q0 88 -71.5 163t-192.5 75q-68 0 -132 -36t-64 -62q0 -8 19.5 -21.5t37.5 -36t18 -53.5q0 -84 -81 -84q-33 0 -57.5 27.5t-24.5 60.5z" />
<glyph unicode="@" horiz-adv-x="1593" d="M154 651q0 328 222 538t537 210q301 0 490.5 -173t189.5 -440q0 -178 -107.5 -334.5t-279.5 -156.5q-61 0 -106 32.5t-61.5 64.5t-14.5 48h-4q-33 -43 -97.5 -89t-144.5 -54q-27 -2 -55.5 6t-67.5 29.5t-63.5 79t-24.5 141.5q0 102 53.5 216t156 197t220.5 83 q49 0 81 -26t59 -83l22 84h139l-135 -535q-2 -18 -6 -46.5t16.5 -56.5t65.5 -28q125 0 204 137.5t79 288.5q0 246 -163 407t-446 161q-258 0 -427 -193.5t-169 -527.5q0 -236 172.5 -414t442.5 -178q86 0 166 16.5t124 31.5t121 50l27 -51q-252 -117 -436 -117 q-156 0 -289 44t-221 116t-150.5 163t-91 182t-28.5 177zM731 553q0 -172 127 -172q74 0 150.5 122t97.5 326q0 145 -117 146q-92 0 -175 -126t-83 -296z" />
<glyph unicode="A" horiz-adv-x="1138" d="M-102 0l14 47h78l727 1344h69l103 -1344h131l-14 -47h-465l14 47h139l-26 428h-385l-230 -428h160l-14 -47h-301zM311 526h353l-35 582h-4z" />
<glyph unicode="B" horiz-adv-x="1251" d="M-18 0l14 47h115l325 1274h-155l14 47h518q115 0 196 -27.5t119.5 -73.5t55 -92.5t16.5 -97.5q0 -166 -133 -262t-305 -108v-5q141 -25 235.5 -105.5t94.5 -215.5q0 -100 -43 -176t-116 -118t-156 -62.5t-175 -24.5h-620zM307 47h191q152 0 229.5 40t114.5 153 q47 141 47 217q0 207 -236 223q-18 0 -80.5 4t-99.5 4zM485 739q133 0 252 9q135 8 199.5 121.5t64.5 265.5q0 106 -51 146t-190 40h-125z" />
<glyph unicode="C" horiz-adv-x="1251" d="M121 461q0 242 112.5 461t286.5 348t354 129q66 0 138.5 -29t122.5 -76l79 60h37l-75 -365l-58 8q0 354 -262 355q-98 0 -186 -77t-148.5 -195.5t-104.5 -260t-65.5 -270.5t-21.5 -227q0 -41 11 -87.5t36.5 -96.5t79 -81.5t127.5 -31.5q258 0 458 366l58 -16l-111 -375 h-37l-39 80q-135 -111 -323 -111q-197 0 -333 145.5t-136 346.5z" />
<glyph unicode="D" horiz-adv-x="1366" d="M-14 0l14 47h117l321 1274h-162l15 47h497q262 0 391.5 -149.5t129.5 -389.5q0 -102 -29 -213.5t-89.5 -221t-144 -197.5t-203.5 -142.5t-257 -54.5h-600zM311 47h140q113 0 179 10.5t138 44.5q119 57 230.5 370.5t111.5 524.5q0 176 -88 250t-277 74h-110z" />
<glyph unicode="E" horiz-adv-x="1251" d="M-8 0l14 47h115l321 1274h-155l14 47h948l-80 -356h-51q8 47 8 94q0 119 -62.5 167t-240.5 48h-182l-147 -586q168 2 226 38t118 177h53l-135 -530h-51q6 55 6 98q0 98 -40 125t-192 37l-162 -633h207q215 0 315.5 64.5t204.5 273.5h58l-119 -385h-991z" />
<glyph unicode="F" horiz-adv-x="1251" d="M37 0l14 47h115l321 1274h-155l14 47h948l-80 -356h-51q8 47 8 94q0 119 -62 167t-241 48h-182l-147 -586q168 2 226 38t118 177h53l-135 -530h-51q6 55 6 98q0 98 -40 125t-192 37l-162 -633h162l-14 -47h-473z" />
<glyph unicode="G" horiz-adv-x="1251" d="M121 461q0 242 112.5 461t286.5 348t354 129q66 0 138.5 -29t122.5 -76l79 60h37l-75 -365l-58 8q0 354 -262 355q-98 0 -186 -77t-148.5 -195.5t-104.5 -260t-65.5 -270.5t-21.5 -227q0 -39 10 -83t36.5 -98.5t85 -89.5t140.5 -35q123 0 188.5 96.5t100.5 319.5h-170 l14 53h535l-15 -53h-122q-35 -113 -72 -188.5t-98.5 -143t-153.5 -99.5t-219 -32q-197 0 -333 145.5t-136 346.5z" />
<glyph unicode="H" horiz-adv-x="1366" d="M-18 0l14 47h113l325 1274h-162l15 47h497l-14 -47h-135l-154 -582h500l147 582h-153l14 47h465l-14 -47h-113l-323 -1274h155l-14 -47h-494l15 47h137l162 633h-496l-164 -633h152l-15 -47h-460z" />
<glyph unicode="I" horiz-adv-x="681" d="M-18 0l14 47h110l340 1274h-159l14 47h475l-14 -47h-117l-342 -1274h154l-15 -47h-460z" />
<glyph unicode="J" horiz-adv-x="909" d="M0 -49q0 66 36 93.5t72.5 27.5t68.5 -24.5t32 -67.5t-33 -80t-33 -41q0 -35 50 -35q125 0 188 285l272 1212h-186l14 47h498l-14 -47h-117l-260 -1149q-14 -66 -40 -126t-70 -125.5t-115.5 -104.5t-161.5 -39q-84 0 -142.5 45t-58.5 129z" />
<glyph unicode="K" horiz-adv-x="1251" d="M-25 0l15 47h112l320 1274h-160l14 47h504l-14 -47h-145l-326 -1274h158l-15 -47h-463zM477 721l668 600h-184l14 47h379l-15 -47h-120l-588 -522l454 -752h136l-15 -47h-512l15 47h153z" />
<glyph unicode="L" d="M-25 0l15 47h106l330 1274h-154l15 47h497l-14 -47h-143l-336 -1274h162q92 0 150.5 3t108.5 21.5t77.5 35t62.5 63.5t55.5 88t61.5 129h57l-108 -387h-943z" />
<glyph unicode="M" horiz-adv-x="1593" d="M-33 0l15 47h114l322 1274h-156l14 47h394l45 -1024h4l557 1024h375l-15 -47h-118l-322 -1274h166l-14 -47h-494l14 47h131l322 1270h-4l-723 -1317h-59l-58 1307h-4l-321 -1260h153l-14 -47h-324z" />
<glyph unicode="N" horiz-adv-x="1366" d="M-12 0l14 47h117l323 1274h-155l14 47h367l340 -1024h4l243 977h-149l14 47h324l-14 -47h-117l-344 -1352h-41l-432 1315h-4l-316 -1237h152l-15 -47h-325z" />
<glyph unicode="O" horiz-adv-x="1366" d="M115 459q0 115 32.5 242.5t98 249.5t153.5 221.5t211 160t256 60.5q182 0 302 -128t120 -395q0 -61 -24.5 -163.5t-84 -231.5t-141.5 -240.5t-210 -188.5t-277 -77q-199 0 -317.5 143.5t-118.5 346.5zM303 285q0 -125 64.5 -200t187.5 -75q111 0 187.5 54.5t154.5 207.5 q78 152 125 350.5t56 298t9 146.5q0 131 -53 208t-192 77q-109 0 -203 -78t-145 -213q-96 -244 -143.5 -454.5t-47.5 -321.5z" />
<glyph unicode="P" horiz-adv-x="1251" d="M-12 0l14 47h115l325 1274h-159l14 47h496q221 0 339.5 -83t118.5 -241q0 -49 -11 -97t-50 -107.5t-101.5 -103.5t-178 -73.5t-267.5 -29.5h-180l-150 -586h158l-14 -47h-469zM473 680q104 0 254 10q145 8 230 139.5t85 288.5q0 203 -264 203h-143z" />
<glyph unicode="Q" horiz-adv-x="1366" d="M115 459q0 115 32.5 242.5t98 249.5t153.5 221.5t211 160t256 60.5q182 0 302 -128t120 -395q0 -55 -21.5 -147t-71.5 -211t-118.5 -225.5t-177 -191.5t-233.5 -111q-11 -128 -11 -177v-14q2 -94 56.5 -145t144.5 -51q96 0 123 4v-39q-82 -10 -148 -11q-125 0 -209.5 34 t-121.5 89.5t-50.5 102.5t-13.5 100q0 39 13 105q-156 35 -245 169t-89 308zM303 285q0 -125 64.5 -200t187.5 -75q111 0 187.5 54.5t154.5 207.5q78 152 125 350.5t56 298t9 146.5q0 131 -53 208t-192 77q-109 0 -203 -78t-145 -213q-96 -244 -143.5 -454.5t-47.5 -321.5z " />
<glyph unicode="R" horiz-adv-x="1251" d="M-25 0l15 47h112l332 1274h-176l14 47h559q92 0 173 -27.5t140.5 -99.5t59.5 -176q0 -164 -150.5 -255t-400.5 -91v-4q158 -51 227.5 -129t75.5 -264l23 -177q12 -109 96 -108q49 0 105 20v-49q-35 -18 -74 -28q-45 -10 -82 -11q-131 0 -195.5 71t-76.5 210l-25 268 q0 106 -64.5 146.5t-191.5 46.5l-172 -664h172l-14 -47h-482zM483 758q254 0 336 39q66 31 121 119t55 223q0 109 -57 145.5t-217 36.5h-90z" />
<glyph unicode="S" d="M12 -2l88 389l50 -12q0 -160 74.5 -260.5t230.5 -100.5q127 0 218 93.5t91 216.5q0 76 -39 134t-96.5 93t-125 78t-124.5 84t-96 112.5t-39 165.5q0 172 108.5 290t276.5 118q133 0 248 -101l79 64h39l-77 -350l-50 6q-6 186 -69.5 261t-182.5 75q-111 0 -189.5 -72 t-78.5 -186q0 -59 42 -108.5t103.5 -83.5t135 -78t135 -90t103.5 -121.5t42 -172.5q0 -109 -49 -213t-161.5 -182t-266.5 -78q-162 0 -272 105l-117 -76h-31z" />
<glyph unicode="T" horiz-adv-x="1138" d="M150 991l116 377h994l-101 -412h-51q6 123 6 127q0 152 -56.5 191t-217.5 47l-328 -1274h172l-12 -47h-518l14 47h147l328 1274q-170 0 -265 -82t-161 -248h-67z" />
<glyph unicode="U" horiz-adv-x="1366" d="M184 299q0 111 58 328l182 694h-166l14 47h498l-14 -47h-138l-198 -766q-57 -223 -58 -297q0 -113 73 -173t183 -60q289 0 369 292l275 1004h-160l14 47h328l-14 -47h-111l-270 -1018q-41 -152 -159 -243t-304 -91q-162 0 -282 85t-120 245z" />
<glyph unicode="V" horiz-adv-x="1138" d="M168 1321l14 47h461l-14 -47h-142l64 -1038h4l584 1038h-164l14 47h303l-14 -47h-82l-754 -1352h-61l-84 1352h-129z" />
<glyph unicode="W" horiz-adv-x="1593" d="M162 1321l14 47h1149l-14 -47h-105l-243 -430l34 -596h4l555 1026h-151l14 47h314l-15 -47h-96l-729 -1352h-55l-39 658h-4l-379 -658h-51l-74 1352h-129zM483 1321l49 -1042h5l256 460l-29 582h-281zM942 1321l14 -336h5l188 336h-207z" />
<glyph unicode="X" horiz-adv-x="1251" d="M-57 0l14 47h106l504 629l-176 645h-166l15 47h522l-14 -47h-162l131 -475l387 475h-182l14 47h373l-15 -47h-120l-439 -543l197 -731h158l-15 -47h-518l14 47h166l-153 567l-455 -567h190l-14 -47h-362z" />
<glyph unicode="Y" horiz-adv-x="1138" d="M150 1321l14 47h493l-14 -47h-170l176 -668l465 668h-149l14 47h321l-14 -47h-108l-498 -725l-139 -549h186l-14 -47h-555l14 47h168l141 520l-198 754h-133z" />
<glyph unicode="Z" horiz-adv-x="1251" d="M10 0v47l1004 1274h-326q-195 0 -307 -293h-66l93 340h854v-47l-1002 -1274h348q248 0 385 346l64 -26l-111 -367h-936z" />
<glyph unicode="[" horiz-adv-x="569" d="M-98 -414l460 1782h441l-12 -47h-297l-441 -1688h299l-12 -47h-438z" />
<glyph unicode="\" horiz-adv-x="569" d="M29 1399h123l450 -1430h-123z" />
<glyph unicode="]" horiz-adv-x="569" d="M-233 -414l12 47h297l440 1688h-299l12 47h439l-461 -1782h-440z" />
<glyph unicode="^" horiz-adv-x="1126" d="M176 543l375 778h106l375 -778h-127l-301 628l-301 -628h-127z" />
<glyph unicode="_" d="M0 -154h1024v-102h-1024v102z" />
<glyph unicode="`" horiz-adv-x="569" d="M172 1184q0 23 21.5 42t42.5 19q41 0 92 -63l223 -285h-59l-281 219q-39 29 -39 68z" />
<glyph unicode="a" d="M37 291q0 180 159.5 360t329.5 180q115 0 164 -124h2l35 104h152l-195 -702q-10 -35 3 -51.5t36 -16.5q49 0 116.5 93t84.5 163l39 -12q-55 -158 -130 -233t-151 -75q-59 0 -100 36t-43 96h-4q-39 -59 -104.5 -95.5t-131.5 -36.5q-121 0 -191.5 87.5t-70.5 226.5z M193 176q0 -68 35.5 -113t99.5 -45q53 0 120.5 56.5t116.5 193.5q90 250 90 379q0 63 -34.5 103.5t-96.5 40.5q-74 0 -123 -52.5t-92 -140.5q-43 -84 -79.5 -211t-36.5 -211z" />
<glyph unicode="b" horiz-adv-x="909" d="M59 195q0 25 5.5 52t15.5 64t14 51l256 998h-141l14 47h49q125 0 242 10l-176 -663l4 -4q98 82 199 81q98 0 183 -74.5t85 -236.5q0 -82 -33 -174t-92 -176t-155.5 -138.5t-209.5 -54.5q-100 0 -180 59t-80 159zM193 151.5q0 -51.5 36.5 -92.5t106.5 -41q47 0 84 19.5 t64.5 60.5t42 72t36.5 84q96 233 96 387q0 66 -35.5 108t-99.5 42q-180 0 -250 -275q-81 -313 -81 -364.5z" />
<glyph unicode="c" horiz-adv-x="796" d="M18 274q0 209 155 383t341 174q84 0 147.5 -46t63.5 -130q0 -37 -23.5 -67.5t-58.5 -30.5q-33 0 -57.5 20.5t-24.5 53.5q0 41 30 71.5t30 40.5q0 23 -34 35.5t-65 12.5q-168 0 -258 -234q-84 -227 -84 -362q0 -78 44 -122t118 -44q92 0 156.5 49t134.5 143l33 -22 q-145 -221 -324 -222q-160 0 -242 98.5t-82 198.5z" />
<glyph unicode="d" d="M33 262q0 195 149.5 382t331.5 187q109 0 180 -90l164 619h-170l14 47h78q125 0 242 10l-342 -1288q-6 -27 -6 -31q0 -18 17.5 -32.5t33.5 -14.5q88 0 199 262l43 -16q-115 -319 -305 -320q-51 0 -85 37t-36 88h-4q-39 -55 -103.5 -90t-132.5 -35q-121 0 -194.5 89.5 t-73.5 195.5zM188 172q0 -66 40 -110t102 -44q76 0 137 71t117 245q74 221 73 315q0 63 -32.5 102.5t-96.5 39.5q-57 0 -103 -32t-81 -92.5t-54.5 -103.5t-41.5 -110q-60 -183 -60 -281z" />
<glyph unicode="e" horiz-adv-x="796" d="M20 303q0 193 158 360.5t342 167.5q84 0 140.5 -47t56.5 -120q0 -111 -122 -188t-384 -79q-31 -123 -31 -178q0 -82 39 -136t117 -54q102 0 161.5 49t120.5 155l35 -24q-63 -115 -137 -173.5t-188 -58.5q-131 0 -219.5 98.5t-88.5 227.5zM221 440q172 0 261 71t89 179 q0 37 -25.5 65.5t-62.5 28.5q-66 0 -124 -65.5t-88 -134t-50 -144.5z" />
<glyph unicode="f" horiz-adv-x="569" d="M-389 -346q0 37 23.5 64.5t66.5 27.5q25 0 47.5 -22.5t22.5 -61.5q0 -6 -13 -29l-10 -22q0 -23 45 -23q104 0 156 115q47 96 98 320l176 741h-176l14 47h177q27 125 87 257t166.5 240.5t225.5 108.5q66 0 111.5 -32.5t45.5 -96.5q0 -33 -23.5 -55.5t-56 -22.5t-56 19.5 t-23.5 50.5q0 18 11 39.5t11 32.5q0 25 -49 24q-78 0 -171 -154.5t-130 -410.5h205l-14 -47h-201l-82 -356q-55 -229 -113.5 -395.5t-108.5 -255.5t-109.5 -140t-101.5 -63.5t-95 -12.5q-57 0 -106.5 29t-49.5 84z" />
<glyph unicode="g" d="M-51 -231q0 135 201 219v4q-102 23 -103 127q0 61 54.5 119.5t144.5 101.5q-61 61 -62 156q0 143 109.5 239t251.5 96q82 0 142.5 -46t94.5 -123h2q16 53 28.5 84.5t45.5 66.5t76 35q35 0 56.5 -23.5t21.5 -58.5q0 -27 -19.5 -48.5t-46.5 -21.5q-29 0 -76 35q-6 -2 -8 -7 t-6 -20.5t-9 -39t-21.5 -70.5t-39.5 -105q-41 -109 -129 -172t-215 -63q-90 0 -155 47q-37 -4 -77 -34.5t-40 -65.5q0 -25 16.5 -41.5t59.5 -26.5t73.5 -13t104.5 -9q33 -2 49 -5q170 -14 238.5 -57t68.5 -158q0 -98 -48 -170.5t-127 -110.5t-164 -55.5t-175 -17.5 q-127 0 -222 55.5t-95 176.5zM74 -242q0 -16 6 -37.5t26.5 -54.5t70.5 -54.5t124 -21.5q57 0 120.5 11.5t129 37t108.5 73.5t43 114q0 35 -12 58.5t-40.5 35.5t-47 16.5t-57.5 10.5q-29 4 -161 13t-179 22q-68 -43 -99.5 -94.5t-31.5 -129.5zM324 412q0 -55 36.5 -85 t90.5 -30q70 0 120 69.5t69 151.5t19 152q0 41 -12 67.5t-36.5 36.5t-36 12t-33.5 5q-66 0 -114 -54.5t-67.5 -128t-27.5 -123.5t-8 -73z" />
<glyph unicode="h" d="M18 0l332 1354l2 6h-157l14 47h65q123 0 242 10l-186 -772l4 -2q51 80 140 134t163 54q180 0 180 -169q0 -37 -72.5 -306.5t-72.5 -271.5q0 -41 57 -41q96 0 191 248l38 -17q-25 -63 -47 -106t-58 -91t-84 -74t-105 -26q-55 0 -92 29t-37 82q0 68 72.5 322t72.5 280 q0 78 -92 78q-111 0 -202 -125t-136 -307l-84 -336h-148z" />
<glyph unicode="i" horiz-adv-x="569" d="M70 84q0 33 20 115l148 565h-162l14 47h39q80 0 274 20l-178 -669l-18 -74q0 -18 18.5 -28.5t38.5 -10.5q104 0 203 246l39 -14q-98 -303 -307 -304q-53 0 -91 28t-38 79zM313 1245q0 41 28 71t66.5 30t66.5 -30t28 -71q0 -43 -26.5 -70.5t-67.5 -27.5t-68 27.5t-27 70.5 z" />
<glyph unicode="j" horiz-adv-x="454" d="M-315 -344q0 35 22.5 59.5t54.5 24.5q37 0 60.5 -21.5t23.5 -60.5q0 -6 -5 -23.5t-5 -25.5q0 -6 9.5 -15.5t15.5 -9.5q43 0 77.5 67.5t77.5 246.5l211 866h-166l15 47h39q80 0 274 20l-215 -882q-39 -164 -127 -289t-213 -125q-59 0 -104 31t-45 90zM299 1245 q0 41 27.5 71t66.5 30t66.5 -30t27.5 -71q0 -43 -26.5 -70.5t-67.5 -27.5t-67.5 27.5t-26.5 70.5z" />
<glyph unicode="k" horiz-adv-x="909" d="M12 0l346 1360h-165l14 47h74q125 0 241 10l-233 -901q2 0 29.5 9.5t41.5 9.5q12 0 33 -5.5t29 -5.5q8 4 16 5t12 5l13 13q113 180 165 232t113 52q35 0 73 -28.5t38 -81.5q0 -76 -82 -76q-27 0 -44 18.5t-17 45.5q0 4 4 22.5t4 22.5q0 6 -8.5 12t-14.5 6 q-12 0 -29.5 -15.5t-42 -48t-42 -59t-50 -76t-47.5 -69.5q68 -31 97.5 -79t29.5 -126q0 -25 -9 -93.5t-9 -90.5q0 -57 47 -58q37 0 88 81t82 151l37 -17q-45 -117 -120 -206t-171 -89q-121 0 -121 127q0 29 32 146t32 149q0 35 -16.5 57.5t-35.5 22.5q-4 0 -39.5 -20.5 t-72.5 -20.5h-62l-110 -438h-150z" />
<glyph unicode="l" horiz-adv-x="569" d="M41 84q0 33 20 115l306 1161h-168l14 47h78q123 0 241 10l-335 -1255l-19 -74q0 -18 18.5 -28.5t39.5 -10.5q98 0 219 268l39 -14q-123 -326 -324 -326q-53 0 -91 28t-38 79z" />
<glyph unicode="m" horiz-adv-x="1478" d="M41 0l190 764h-163l14 47h39q84 0 276 20l-41 -169l6 -5q139 174 287 174q70 0 122 -40.5t50 -133.5h2h4q137 174 285 174q180 0 180 -169q0 -37 -72.5 -306.5t-72.5 -271.5q0 -41 57 -41q96 0 191 248l39 -17q-25 -63 -47.5 -106t-58.5 -91t-84 -74t-105 -26 q-55 0 -92 29t-37 82q0 68 72.5 322t72.5 280q0 78 -92 78q-12 0 -34.5 -6t-59.5 -27.5t-72 -57.5t-72 -102.5t-59 -154.5l-113 -420h-145l125 489q45 174 45 203q0 37 -23.5 56.5t-58.5 19.5q-12 0 -34.5 -6t-59.5 -27.5t-72 -57.5t-71.5 -102.5t-59.5 -154.5l-113 -420 h-145z" />
<glyph unicode="n" d="M43 0l197 764h-164l14 47h39q80 0 274 20l-49 -186l4 -2q51 80 140.5 134t163.5 54q180 0 180 -169q0 -37 -73 -306.5t-73 -271.5q0 -41 58 -41q96 0 190 248l39 -17q-25 -63 -47.5 -106t-58 -91t-84 -74t-105.5 -26q-55 0 -92 29t-37 82q0 68 73 322t73 280q0 78 -93 78 q-111 0 -202 -125t-136 -307l-84 -336h-147z" />
<glyph unicode="o" horiz-adv-x="909" d="M27 276q0 209 151.5 382t343.5 173q129 0 214 -96t85 -229q0 -117 -65.5 -240t-177 -206t-232.5 -83q-147 0 -233 92t-86 207zM182 188q0 -70 44 -120t112 -50q92 0 146.5 61.5t90.5 164.5q78 215 78 377q0 170 -145 170q-164 0 -242 -224q-23 -61 -53.5 -194.5 t-30.5 -184.5z" />
<glyph unicode="p" horiz-adv-x="909" d="M-197 -463l15 41h112l285 1186h-160l15 47h39q55 0 260 20l-33 -120l4 -4q51 61 101.5 92.5t123.5 31.5q39 0 80 -14t84 -48t70.5 -102.5t27.5 -162.5q0 -182 -141 -354.5t-311 -172.5q-135 0 -180 105h-5l-120 -504h149l-14 -41h-402zM223 166q0 -59 37 -103.5t94 -44.5 q90 0 138.5 48.5t99.5 195.5q80 223 80 356q0 172 -140 173q-168 0 -247 -312q-62 -219 -62 -313z" />
<glyph unicode="q" horiz-adv-x="909" d="M18 274q0 113 71 244t183.5 222t221.5 91q141 0 174 -124h4l30 104h144l-324 -1233h142l-15 -41h-422l15 41h137l131 506l-4 4q-72 -111 -219 -111q-125 0 -197 83t-72 214zM178 193q-1 -12 -1 -24q0 -73 35 -109q40 -42 85 -42q143 0 223 177q121 260 121 434 q0 74 -34 118t-99 44q-45 0 -73.5 -14.5t-65.5 -55.5q-55 -59 -117 -223t-74 -305z" />
<glyph unicode="r" horiz-adv-x="681" d="M33 0l188 764h-162l15 47h39q80 0 274 20l-51 -204l4 -2q43 84 109.5 145t142.5 61q39 0 66.5 -22.5t27.5 -58.5q0 -35 -23.5 -58.5t-58.5 -23.5q-31 0 -66.5 27.5t-50.5 27.5q-37 0 -106.5 -102.5t-104.5 -237.5l-96 -383h-147z" />
<glyph unicode="s" horiz-adv-x="681" d="M-18 137q0 41 19 70t56 29q31 0 54.5 -23t23.5 -55q0 -20 -15.5 -53t-15.5 -39q0 -25 35 -36.5t68 -11.5q195 0 194 142q0 45 -41 100t-89 100.5t-89 113t-41 134.5q0 109 79 166t186 57q59 0 115.5 -31.5t56.5 -99.5q0 -76 -72 -75q-31 0 -48.5 17t-17.5 44 q0 8 6.5 30.5t6.5 31.5q0 43 -74 43q-53 0 -90 -30t-37 -85q0 -39 31.5 -79t97 -102.5t108.5 -117.5q37 -47 38 -129q0 -8 -1 -17q0 -25 -13 -61.5t-44 -82.5t-96.5 -78t-151.5 -32q-133 0 -186 53.5t-53 106.5z" />
<glyph unicode="t" horiz-adv-x="569" d="M31 80l32 139l138 545h-140l15 47h139l59 223h148l-60 -223h158l-14 -47h-158l-149 -590q-23 -82 -23 -88q0 -47 41 -47q66 0 128.5 81t94.5 197l39 -14q-31 -129 -117 -227.5t-200 -98.5q-49 0 -90 27t-41 76z" />
<glyph unicode="u" d="M68 764l14 47h39q80 0 274 20l-147 -608q-2 -8 -9.5 -31.5t-11.5 -44t-4 -36.5q0 -41 26.5 -56.5t53.5 -15.5q94 0 182 93t123 226l117 453h145l-90 -344q-6 -29 -30.5 -119t-40 -153.5t-15.5 -77.5q0 -70 54 -70q104 0 196 248l37 -12q-98 -305 -289 -306q-80 0 -111 52 q-23 37 -23 86q0 19 3 41l-6 4q-47 -76 -130 -129.5t-169 -53.5q-174 0 -174 142q0 8 6 34.5t16.5 65.5t16.5 64l112 481h-165z" />
<glyph unicode="v" horiz-adv-x="796" d="M-29 518q119 313 293 313q51 0 84 -28.5t33 -85.5q0 -20 -85 -313t-85 -312q0 -63 80 -63q102 0 196.5 117.5t142.5 251.5t48 218q0 43 -52.5 72t-52.5 76q0 29 20.5 48t49.5 19q43 0 67.5 -37.5t24.5 -103.5q0 -61 -17.5 -147t-56 -185.5t-93 -183.5t-137.5 -140.5 t-179 -56.5q-68 0 -121 34t-53 102q0 35 79 323.5t79 290.5q0 14 -10.5 26.5t-26.5 12.5q-43 0 -97.5 -85t-87.5 -163h-43z" />
<glyph unicode="w" horiz-adv-x="1251" d="M-6 545q33 109 112.5 197.5t176.5 88.5q109 0 108 -108q0 -29 -40 -187.5t-80 -306t-40 -151.5q4 -45 41 -45q29 0 59.5 24.5t48 46t50.5 70.5q147 217 277 637h141q-12 -51 -53 -189.5t-65.5 -249t-24.5 -196.5q0 -41 5 -67.5t25.5 -48t57.5 -21.5q80 0 157.5 131 t118.5 266t41 191q0 25 -14.5 38t-33 17t-32.5 23.5t-14 56.5q0 33 23.5 51t56.5 18q31 0 50 -35.5t19 -82.5q0 -131 -49 -297t-151.5 -302.5t-223.5 -136.5q-92 0 -131 63.5t-39 145.5q0 47 15 162l-4 2q-106 -217 -190.5 -295t-176.5 -78q-51 0 -86 34t-35 85 q0 6 78 314.5t78 337.5q0 2 -11.5 10t-17.5 8q-43 0 -101.5 -80t-78.5 -141h-47z" />
<glyph unicode="x" horiz-adv-x="909" d="M-41 57q0 80 70 80q27 0 56.5 -29.5t39.5 -29.5q16 0 43 33l194 260l-28 180q-20 111 -35.5 151.5t-38.5 40.5q-33 0 -66.5 -50t-65.5 -121.5t-40 -84.5l-43 17q6 12 42 85t60.5 116t68.5 84.5t87 41.5q76 0 112 -67.5t62 -224.5q10 12 54 72.5t78 101.5t79 79.5t76 38.5 t53.5 -19t22.5 -52q0 -31 -21.5 -52.5t-52.5 -21.5q-14 0 -42 15.5t-32 15.5q-27 0 -95.5 -92.5t-107.5 -159.5l54 -283q12 -72 23.5 -99.5t37.5 -27.5q70 0 172 271l39 -11q-106 -338 -258 -338q-37 0 -64.5 12.5t-43 29t-27.5 50t-16.5 57.5t-12.5 69l-20 116l-152 -196 q-4 -6 -21.5 -29t-24.5 -32t-25.5 -27.5t-32 -26.5t-31.5 -15.5t-39 -7.5q-88 0 -88 80z" />
<glyph unicode="y" horiz-adv-x="909" d="M-45 -383q0 25 18.5 46.5t44.5 21.5q23 0 58 -34t51 -34q53 0 152.5 147.5t99.5 227.5q0 27 -33 267.5t-47 332.5q0 2 -3 29.5t-7 44t-11.5 40t-20.5 35t-30 11.5q-29 0 -57.5 -34t-46 -71t-37.5 -89t-27 -62l-41 14q76 184 127 246q61 76 136 75q68 0 106.5 -53 t63.5 -219l51 -326h4l156 340q70 156 103.5 207t80.5 51q70 0 69 -71q0 -23 -17 -40.5t-40 -17.5q-31 0 -45 13.5t-25 13.5q-8 0 -33.5 -50t-67.5 -142.5t-79 -179.5t-88 -208.5t-78 -181.5q-98 -225 -205.5 -328.5t-181.5 -103.5q-100 0 -100 82z" />
<glyph unicode="z" horiz-adv-x="681" d="M-78 20q0 37 68 105l514 532l-4 5q-43 -6 -101 -7q-139 0 -235 37l-66 -119l-39 21l136 237q88 -31 214 -54q83 -15 136 -15q28 0 49 4q-4 27 9 46t38 19q14 0 24.5 -12t10.5 -24q0 -16 -31 -59.5t-53 -65.5l-486 -490q59 -2 201 -51t166 -49q23 0 37 12t14 29 q0 18 -49 30.5t-49 55.5q0 27 20.5 43t49.5 16q39 0 58 -32.5t19 -75.5q0 -92 -63.5 -136.5t-155.5 -44.5q-45 0 -107.5 17.5t-138 44.5t-106.5 35q-6 -92 -45 -92q-35 -1 -35 38z" />
<glyph unicode="{" horiz-adv-x="681" d="M90 -254q0 125 64 340q63 203 63 276q0 92 -96 117q72 20 106.5 50t78.5 143.5t95 347.5q41 188 131.5 276t208.5 88h56l-6 -24q-59 -18 -89 -35.5t-64 -64t-59.5 -129t-54.5 -224.5q-25 -121 -54.5 -200.5t-68.5 -123.5t-75.5 -64.5t-94.5 -37.5l-2 -4q55 -10 89 -52 t34 -103q0 -70 -65.5 -311.5t-65.5 -278.5q0 -47 27.5 -86t79.5 -49l-6 -25q-127 0 -179.5 39t-52.5 135z" />
<glyph unicode="|" horiz-adv-x="454" d="M168 -512v2048h119v-2048h-119z" />
<glyph unicode="}" horiz-adv-x="681" d="M-115 -428l6 25q78 27 115 55.5t75 119.5t77 277q33 160 79 251t91 123t123 54l2 4q-55 10 -89 51t-34 103q0 74 65 311q66 242 66 279q0 47 -27.5 86t-79.5 49l6 24q127 0 179.5 -38.5t52.5 -133.5q0 -139 -64 -342q-63 -215 -63 -276q0 -92 96 -115 q-72 -23 -106.5 -52.5t-78.5 -143t-95 -346.5q-41 -188 -131.5 -276.5t-208.5 -88.5h-56z" />
<glyph unicode="~" horiz-adv-x="1126" d="M90 446q90 182 256 183q84 0 227 -68q166 -76 209 -76q39 0 74 26t55.5 52.5t51.5 75.5l73 -90q-41 -59 -67.5 -91t-77.5 -62.5t-111 -30.5q-84 0 -209 71q-131 74 -235 74q-106 0 -172 -154z" />
<glyph unicode="&#xa1;" horiz-adv-x="796" d="M121 -330q0 66 38 140.5t117.5 264t153.5 474.5h53q-70 -260 -88 -385t-30 -361q-14 -252 -152 -252q-35 0 -63.5 30t-28.5 89zM410 852q0 49 33.5 83t80.5 34t80 -34t33 -83q0 -47 -34 -81t-79 -34q-47 0 -80.5 34t-33.5 81z" />
<glyph unicode="&#xa2;" d="M102 274q0 207 155 380t341 173q70 0 123 -30l131 237h72l-154 -278q39 -43 39 -105q0 -35 -23.5 -65.5t-58.5 -30.5q-33 0 -57 18l-295 -536q27 -10 51 -10q92 0 156.5 50t134.5 144l33 -24q-143 -219 -324 -220q-47 0 -80 9l-143 -260h-68l152 278q-92 39 -138.5 118.5 t-46.5 151.5zM264 193q0 -82 55 -130l332 607q8 14 31 35.5t23 33.5q0 23 -34 35t-65 12q-55 0 -100 -22.5t-76 -62t-48 -71.5t-34 -75q-84 -227 -84 -362z" />
<glyph unicode="&#xa3;" d="M47 37q0 18 15.5 38.5t32 34t40 29t25.5 17.5q68 49 104.5 126.5t36.5 235.5v215h-215l14 51h205q18 127 72.5 250t158 218.5t226.5 95.5q86 0 145.5 -50.5t59.5 -138.5q0 -53 -27 -88t-76 -35q-31 0 -54.5 21.5t-23.5 50.5q0 37 13.5 62.5t29 34.5t28.5 19.5t13 20.5 q0 25 -42 43.5t-64 18.5q-125 0 -186 -97q-59 -92 -84 -426h237l-14 -51h-230q-33 -393 -251 -583l4 -5q111 39 229 39q35 0 96 -12q53 -14 94 -14q51 0 86 19.5t55.5 58t30 75.5t17.5 90h43q-8 -74 -16.5 -122t-30 -110.5t-51 -100t-82 -64.5t-121.5 -27q-72 0 -162 66 t-131 66q-53 0 -109 -64q-51 -63 -90 -63q-51 0 -51 55z" />
<glyph unicode="&#xa4;" d="M-16 172l200 201q-92 115 -92 264q0 145 90 266l-198 199l84 84l198 -199q117 90 266.5 90t266.5 -90l198 199l84 -84l-198 -199q90 -121 90 -266q0 -150 -90 -266l198 -199l-84 -84l-200 201q-115 -92 -265 -92q-154 0 -264 92l-200 -201zM211 637q0 -133 94 -227.5 t227.5 -94.5t227.5 94.5t94 227.5t-94 227t-227.5 94t-227.5 -94t-94 -227z" />
<glyph unicode="&#xa5;" d="M6 344l14 55h342l48 179l-15 53h-334l15 55h305l-154 588h-133l15 47h462l-14 -47h-170l160 -608l418 608h-150l14 47h322l-14 -47h-109l-397 -588h323l-14 -55h-346l-16 -25l-52 -207h373l-14 -55h-373l-74 -297h187l-15 -47h-524l14 47h168l80 297h-342z" />
<glyph unicode="&#xa6;" horiz-adv-x="454" d="M168 358h119v-716h-119v716zM168 666v716h119v-716h-119z" />
<glyph unicode="&#xa7;" d="M109 -109q0 53 32.5 88t83.5 35q92 0 92 -102q0 -35 -21.5 -57.5t-42 -37t-20.5 -28.5q0 -31 47.5 -54.5t110.5 -23.5q80 0 138.5 54.5t58.5 136.5q0 68 -63.5 156.5t-138.5 163.5t-138.5 181.5t-63.5 204.5q0 102 62.5 178t161.5 76q55 0 102 -20l4 4q-137 174 -137 284 q0 123 84 196t207 73q115 0 195.5 -51.5t80.5 -161.5q0 -45 -31.5 -77t-74.5 -32t-70 29t-27 72q0 37 35 65.5t35 50.5q0 35 -42 49.5t-85 14.5q-82 0 -133 -49t-51 -131q0 -61 29.5 -110.5t110.5 -141.5t140 -174q117 -164 111 -293q-4 -94 -67.5 -169t-157.5 -75 q-41 0 -84 16l-4 -4q51 -66 69.5 -92t39 -79.5t20.5 -114.5q0 -109 -95.5 -190t-203.5 -81q-145 0 -222 70.5t-77 150.5zM301 688q0 -63 26.5 -119.5t98.5 -144.5q84 -100 123 -131t92 -31q37 0 85 38t46 110q-2 96 -87 213.5t-161 171.5q-41 20 -100 20q-49 0 -86 -39 t-37 -88z" />
<glyph unicode="&#xa8;" horiz-adv-x="569" d="M109 1026q0 37 26.5 64.5t65.5 27.5q37 0 64.5 -27.5t27.5 -64.5q0 -39 -27.5 -65.5t-64.5 -26.5q-39 0 -65.5 26.5t-26.5 65.5zM518 1026q0 37 26.5 64.5t65.5 27.5q37 0 64.5 -27.5t27.5 -64.5q0 -39 -27.5 -65.5t-64.5 -26.5q-39 0 -65.5 26.5t-26.5 65.5z" />
<glyph unicode="&#xa9;" horiz-adv-x="1638" d="M145 680q0 299 209 509t512 210q305 0 513 -210t208 -509q0 -295 -208 -503t-513 -208q-303 0 -512 208t-209 503zM264 680q0 -256 174 -443.5t428 -187.5q256 0 430 187.5t174 443.5q0 260 -173 449.5t-431 189.5q-254 0 -428 -190.5t-174 -448.5zM463 700 q0 145 123 273.5t336 128.5q39 0 73.5 -5t51 -9.5t50 -14.5t40.5 -12q43 -14 43 -43v-146h-31q-8 78 -63.5 133.5t-170.5 55.5q-145 0 -215.5 -95.5t-72.5 -256.5q-2 -174 71.5 -276.5t231.5 -102.5q180 0 252 176h32l-34 -144q0 -23 -52 -38q-104 -35 -217 -35 q-195 0 -321.5 101t-126.5 310z" />
<glyph unicode="&#xaa;" horiz-adv-x="614" d="M106 1036q0 104 108 208t230 104q76 0 107 -72h2l22 59h119l-127 -393q-6 -20 3.5 -30.5t23.5 -10.5q29 0 72 50t53 87l41 -6q-72 -178 -213 -178q-39 0 -65.5 21.5t-28.5 56.5h-2q-57 -78 -175 -78q-78 0 -124 51t-46 131zM238 971q0 -31 20.5 -56.5t46.5 -25.5 q100 0 156 135q57 145 57 217q0 29 -19.5 50.5t-43.5 21.5q-82 0 -142 -101q-29 -47 -52 -120.5t-23 -120.5z" />
<glyph unicode="&#xab;" d="M184 449q0 6 15.5 18t47.5 35.5t56 44.5q74 53 132.5 106.5t82 76t31.5 22.5q16 0 16 -15q0 -49 -233 -268q-18 -16 -27 -25q150 -268 150 -282q0 -12 -13 -12q-4 0 -8 2t-11 9t-15.5 17t-24.5 29.5t-33.5 41t-49.5 58.5t-67 76q-49 56 -49 66zM455 449q0 6 15 18 t47 35.5t56 44.5q74 53 132.5 106.5t82 76t31.5 22.5q16 0 17 -15q0 -49 -234 -268q-18 -16 -27 -25q150 -268 150 -282q0 -12 -12 -12q-4 0 -8.5 2t-11.5 9t-15 17t-24.5 29.5t-34 41t-49 58.5t-66.5 76q-49 56 -49 66z" />
<glyph unicode="&#xac;" horiz-adv-x="1126" d="M88 647v119h950v-580h-118v461h-832z" />
<glyph unicode="&#xad;" horiz-adv-x="681" d="M47 385l31 123h487l-30 -123h-488z" />
<glyph unicode="&#xae;" horiz-adv-x="1638" d="M145 680q0 299 209 509t512 210q305 0 513 -210t208 -509q0 -295 -208 -503t-513 -208q-303 0 -512 208t-209 503zM264 680q0 -256 174 -443.5t428 -187.5q256 0 430 187.5t174 443.5q0 260 -173 449.5t-431 189.5q-254 0 -428 -190.5t-174 -448.5zM535 309v33 q78 8 89 19.5t11 82.5v498q0 72 -11.5 84t-88.5 21v30h356q104 0 175 -49t71 -143q0 -78 -47.5 -133.5t-122.5 -83.5l120 -164q102 -141 164 -176v-19h-121q-20 0 -39.5 14.5t-43 46t-45 67.5t-59.5 95.5t-75 110.5h-108v-199q0 -72 11 -83t91 -19v-33h-327zM760 686h96 q76 0 116 51t40 142q0 82 -45 119.5t-117 37.5h-90v-350z" />
<glyph unicode="&#xaf;" horiz-adv-x="569" d="M156 979l16 100h561l-16 -100h-561z" />
<glyph unicode="&#xb0;" horiz-adv-x="819" d="M188 1055q0 123 85 208t208 85t208 -85t85 -208t-85 -208t-208 -85t-208 85t-85 208zM264 1055q0 -92 63.5 -160t153.5 -68t153.5 68t63.5 160t-63.5 159.5t-153.5 67.5t-153.5 -67.5t-63.5 -159.5z" />
<glyph unicode="&#xb1;" horiz-adv-x="1126" d="M88 0v119h950v-119h-950zM88 545v119h416v331h119v-331h415v-119h-415v-332h-119v332h-416z" />
<glyph unicode="&#xb2;" horiz-adv-x="614" d="M14 539v61q37 31 149.5 114t178.5 137t126 141t60 167q0 147 -143 148q-59 0 -109.5 -33t-50.5 -72q0 -31 27 -31q31 0 50.5 -14t19.5 -39q0 -29 -17.5 -48t-46.5 -19q-43 0 -72.5 32.5t-29.5 81.5q0 76 78.5 129.5t203.5 53.5q98 0 173 -48.5t75 -138.5 q0 -76 -66.5 -158.5t-145.5 -139t-180 -123t-134 -95.5l2 -4h297q35 0 55.5 22.5t34.5 73.5h45l-68 -198h-512z" />
<glyph unicode="&#xb3;" horiz-adv-x="614" d="M29 678q0 31 26.5 58.5t65.5 27.5q16 0 37.5 -17.5t21.5 -44.5q0 -39 -39 -51t-39 -22q0 -2 3.5 -8.5t13.5 -16.5t25.5 -19.5t47 -16.5t72.5 -7q84 0 144.5 69.5t60.5 184.5q0 137 -162 137q-8 0 -28.5 -4t-28.5 -4q-25 0 -25 33q0 27 31 27q4 0 23.5 -3.5t31.5 -3.5 q111 0 167.5 63.5t56.5 145.5q0 104 -101 105q-43 0 -81 -15.5t-38 -31.5q0 -2 11.5 -15.5t11.5 -38.5q0 -27 -16.5 -45t-47.5 -18q-27 0 -45 23.5t-18 56.5q0 41 59.5 80t165.5 39q88 0 164 -42t76 -120q0 -88 -82 -143.5t-180 -63.5v-4q205 -51 204 -201q0 -37 -16 -75 t-54 -80t-117 -68.5t-187 -26.5q-82 0 -148.5 39t-66.5 117z" />
<glyph unicode="&#xb4;" horiz-adv-x="569" d="M297 897q39 37 134 135t153.5 151.5t81.5 53.5q33 0 54 -18.5t21 -47.5q0 -41 -63 -75l-318 -199h-63z" />
<glyph unicode="&#xb5;" d="M2 -315q0 57 10.5 123.5t23.5 122t39.5 162t45.5 190.5l112 481h-165l14 47h39q80 0 274 20l-147 -608q-2 -8 -9.5 -31.5t-11.5 -44t-4 -36.5q0 -41 26.5 -56.5t53.5 -15.5q94 0 182 93t123 226l117 453h145l-90 -344q-6 -29 -30.5 -119t-40 -153.5t-15.5 -77.5 q0 -70 54 -70q104 0 196 248l37 -12q-98 -305 -289 -306q-80 0 -111.5 51.5t-19.5 127.5l-6 4q-47 -76 -130 -129.5t-169 -53.5q-68 0 -115 27q-33 -43 -32 -76q0 -47 43 -129t43 -118q0 -145 -107 -146q-47 0 -66.5 48.5t-19.5 101.5z" />
<glyph unicode="&#xb6;" horiz-adv-x="1228" d="M96 -449l13 48h167l240 911q-158 0 -244 78t-90 203q-2 76 10.5 149.5t52.5 153.5t102.5 139t170 97t246.5 38h508l-12 -47h-168l-453 -1722h168l-12 -48h-699zM360 719q0 -162 168 -162l201 764q-86 8 -154.5 -44t-107.5 -130t-64.5 -172t-34 -157.5t-8.5 -98.5z M395 -401h125l453 1722h-125z" />
<glyph unicode="&#xb7;" horiz-adv-x="512" d="M133 477q0 51 35 86t86 35t87 -35t36 -86t-36 -85t-87 -34t-86 34t-35 85z" />
<glyph unicode="&#xb8;" horiz-adv-x="569" d="M-113 -395l39 53q55 -29 125 -29q125 0 125 92q0 37 -26.5 59.5t-75.5 22.5q-12 0 -37 -6t-31 -8l-14 21l127 190h74l-91 -133q31 6 60 6q70 0 112.5 -41t42.5 -108q0 -76 -73.5 -119t-184.5 -43q-90 0 -172 43z" />
<glyph unicode="&#xb9;" horiz-adv-x="614" d="M76 539l8 41h133l176 612q16 49 17 82q0 16 -74 16h-70l10 41h54q217 12 245 17l-217 -768h150l-10 -41h-422z" />
<glyph unicode="&#xba;" horiz-adv-x="544" d="M113 1028q0 121 101 220.5t241 99.5q96 0 155.5 -55.5t59.5 -133.5q0 -106 -99.5 -205.5t-230.5 -99.5q-111 0 -169 53t-58 121zM244 977q0 -39 26.5 -63.5t65.5 -24.5q94 0 143 119q51 125 51 219q0 86 -86 86q-100 0 -145 -117q-14 -37 -34.5 -113.5t-20.5 -105.5z" />
<glyph unicode="&#xbb;" d="M178 164q0 49 234 268q18 16 26 25q-150 268 -149 282q0 12 12 13q4 0 8 -2t11.5 -9.5t15.5 -17.5t24.5 -29.5t34 -41t49 -58.5t66.5 -76q49 -55 49 -65q0 -6 -15.5 -18.5t-47 -36t-56.5 -44.5q-74 -53 -132 -106t-81.5 -75.5t-31.5 -22.5q-17 0 -17 14zM449 164 q0 49 233 268q18 16 27 25q-150 268 -150 282q0 12 12 13q4 0 8.5 -2t11.5 -9.5t15 -17.5t24.5 -29.5t34 -41t49 -58.5t66.5 -76q49 -55 49 -65q0 -6 -15 -18.5t-47 -36t-56 -44.5q-74 -53 -132.5 -106t-82 -75.5t-31.5 -22.5q-16 0 -16 14z" />
<glyph unicode="&#xbc;" horiz-adv-x="1536" d="M76 539l8 41h133l176 612q16 49 17 82q0 16 -74 16h-70l10 41h54q217 12 245 17l-217 -768h150l-10 -41h-422zM244 -23l927 1371h103l-928 -1371h-102zM795 207v45q90 117 267 296t271 259h105l-158 -555h102l23 78h43l-55 -209h-45l24 86h-100l-51 -166h100l-10 -41 h-334l10 41h94l52 166h-338zM854 252h289l117 418l-5 4q-231 -217 -401 -422z" />
<glyph unicode="&#xbd;" horiz-adv-x="1536" d="M76 539l8 41h133l176 612q16 49 17 82q0 16 -74 16h-70l10 41h54q217 12 245 17l-217 -768h150l-10 -41h-422zM244 -23l927 1371h103l-928 -1371h-102zM813 0v61q37 31 149.5 114t178 137.5t126 141.5t60.5 167q0 145 -143 145q-59 0 -109.5 -32t-50.5 -70q0 -31 27 -31 q31 0 50 -14.5t19 -38.5q0 -68 -63 -68q-43 0 -73 33t-30 82q0 76 79 129t204 53q98 0 173 -48t75 -138q0 -76 -66.5 -159t-145.5 -139.5t-180.5 -123t-134.5 -95.5l3 -4h296q37 0 56.5 21.5t34.5 73.5h45l-68 -197h-512z" />
<glyph unicode="&#xbe;" horiz-adv-x="1536" d="M29 678q0 31 26.5 58.5t65.5 27.5q16 0 37.5 -17.5t21.5 -44.5q0 -39 -39 -51t-39 -22q0 -2 3.5 -8.5t13.5 -16.5t25.5 -19.5t47 -16.5t72.5 -7q84 0 144.5 69.5t60.5 184.5q0 137 -162 137q-8 0 -28.5 -4t-28.5 -4q-25 0 -25 33q0 27 31 27q4 0 23.5 -3.5t31.5 -3.5 q111 0 167.5 63.5t56.5 145.5q0 104 -101 105q-43 0 -81 -15.5t-38 -31.5q0 -2 11.5 -15.5t11.5 -38.5q0 -27 -16.5 -45t-47.5 -18q-27 0 -45 23.5t-18 56.5q0 41 59.5 80t165.5 39q88 0 164 -42t76 -120q0 -88 -82 -143.5t-180 -63.5v-4q205 -51 204 -201q0 -37 -16 -75 t-54 -80t-117 -68.5t-187 -26.5q-82 0 -148.5 39t-66.5 117zM305 -23l928 1371h102l-927 -1371h-103zM795 207v45q90 117 267 296t271 259h105l-158 -555h102l23 78h43l-55 -209h-45l24 86h-100l-51 -166h100l-10 -41h-334l10 41h94l52 166h-338zM854 252h289l117 418l-5 4 q-231 -217 -401 -422z" />
<glyph unicode="&#xbf;" d="M78 -129q0 117 51 199t113.5 119.5t162 91t152.5 96.5q59 47 74 172h45q-4 -76 -15.5 -132.5t-36 -101.5t-46 -74.5t-70.5 -64.5t-84 -54.5t-111 -60.5q-86 -45 -130 -98t-44 -139q0 -88 72 -163t192 -75q68 0 132.5 36t64.5 63q0 8 -19.5 21t-38 35.5t-18.5 53.5 q0 84 82 84q33 0 57.5 -27.5t24.5 -60.5q0 -90 -80 -168t-209 -78q-141 0 -231 91.5t-90 234.5zM602 852q0 49 34 83t81 34t79.5 -34t32.5 -83q0 -47 -33.5 -81t-78.5 -34q-47 0 -81 34t-34 81z" />
<glyph unicode="&#xc0;" horiz-adv-x="1138" d="M-102 0l14 47h78l727 1344h69l103 -1344h131l-14 -47h-465l14 47h139l-26 428h-385l-230 -428h160l-14 -47h-301zM311 526h353l-35 582h-4zM457 1731q0 23 21.5 42t41.5 19q41 0 92 -63l224 -285h-60l-280 219q-39 29 -39 68z" />
<glyph unicode="&#xc1;" horiz-adv-x="1138" d="M-102 0l14 47h78l727 1344h69l103 -1344h131l-14 -47h-465l14 47h139l-26 428h-385l-230 -428h160l-14 -47h-301zM311 526h353l-35 582h-4zM643 1444q39 37 134 135t153.5 151.5t81.5 53.5q33 0 54 -18.5t21 -47.5q0 -41 -63 -76l-317 -198h-64z" />
<glyph unicode="&#xc2;" horiz-adv-x="1138" d="M-102 0l14 47h78l727 1344h69l103 -1344h131l-14 -47h-465l14 47h139l-26 428h-385l-230 -428h160l-14 -47h-301zM311 526h353l-35 582h-4zM440 1444l330 342h78l180 -342h-65l-168 217l-279 -217h-76z" />
<glyph unicode="&#xc3;" horiz-adv-x="1138" d="M-102 0l14 47h78l727 1344h69l103 -1344h131l-14 -47h-465l14 47h139l-26 428h-385l-230 -428h160l-14 -47h-301zM311 526h353l-35 582h-4zM403 1493q14 84 64.5 146.5t130.5 62.5q55 0 162 -45q106 -47 149 -47q57 0 97 96h53q-49 -209 -203 -209q-43 0 -149 47 q-106 45 -144 45q-43 0 -70.5 -27.5t-35.5 -68.5h-54z" />
<glyph unicode="&#xc4;" horiz-adv-x="1138" d="M-102 0l14 47h78l727 1344h69l103 -1344h131l-14 -47h-465l14 47h139l-26 428h-385l-230 -428h160l-14 -47h-301zM311 526h353l-35 582h-4zM451 1573q0 37 26.5 64.5t65.5 27.5q37 0 64.5 -27.5t27.5 -64.5q0 -39 -27.5 -65.5t-64.5 -26.5q-39 0 -65.5 26.5t-26.5 65.5z M860 1573q0 37 26.5 64.5t65.5 27.5q37 0 64.5 -27.5t27.5 -64.5q0 -39 -27.5 -65.5t-64.5 -26.5q-39 0 -65.5 26.5t-26.5 65.5z" />
<glyph unicode="&#xc5;" horiz-adv-x="1138" d="M-102 0l14 47h78l727 1344h69l103 -1344h131l-14 -47h-465l14 47h139l-26 428h-385l-230 -428h160l-14 -47h-301zM311 526h353l-35 582h-4zM578 1618q0 82 58 140.5t140 58.5t140.5 -58.5t58.5 -140.5t-58.5 -140.5t-140.5 -58.5q-84 0 -141 58.5t-57 140.5zM639 1618 q0 -57 39 -97t98 -40q57 0 97 40t40 97t-39.5 97t-97 40t-97.5 -40t-40 -97z" />
<glyph unicode="&#xc6;" horiz-adv-x="1820" d="M-78 0l15 47h67l670 909q129 170 129 236q0 63 -43 96t-166 33l14 47h1211l-80 -356h-51q8 47 8 94q0 119 -62.5 167t-240.5 48h-156l-147 -586q158 2 215 38t116 177h54l-136 -530h-51q6 55 6 98q0 98 -37.5 125t-181.5 37l-162 -633h179q215 0 315 64.5t205 273.5h57 l-119 -385h-993l14 47h148l108 432h-438l-317 -432h157l-14 -47h-293zM430 530h410l149 580q43 166 43 174q-2 14 -14 14q-8 0 -14.5 -2t-14.5 -9t-15 -15t-19.5 -24.5t-22.5 -32t-30.5 -43t-39.5 -54.5z" />
<glyph unicode="&#xc7;" horiz-adv-x="1251" d="M121 461q0 242 112.5 461t286.5 348t354 129q66 0 138.5 -29t122.5 -76l79 60h37l-75 -365l-58 8q0 354 -262 355q-98 0 -186 -77t-148.5 -195.5t-104.5 -260t-65.5 -270.5t-21.5 -227q0 -41 11 -87.5t36.5 -96.5t79 -81.5t127.5 -31.5q258 0 458 366l58 -16l-111 -375 h-37l-39 80q-135 -111 -323 -111q-41 0 -72 8l-74 -110q31 6 60 6q70 0 112.5 -41t42.5 -108q0 -76 -73.5 -119t-184.5 -43q-90 0 -172 43l39 53q55 -29 125 -29q125 0 125 92q0 37 -26.5 59.5t-75.5 22.5q-12 0 -37 -6t-31 -8l-14 21l123 184q-150 43 -243 173t-93 294z " />
<glyph unicode="&#xc8;" horiz-adv-x="1251" d="M-8 0l14 47h115l321 1274h-155l14 47h948l-80 -356h-51q8 47 8 94q0 119 -62.5 167t-240.5 48h-182l-147 -586q168 2 226 38t118 177h53l-135 -530h-51q6 55 6 98q0 98 -40 125t-192 37l-162 -633h207q215 0 315.5 64.5t204.5 273.5h58l-119 -385h-991zM514 1731 q0 23 21.5 42t42.5 19q41 0 92 -63l223 -285h-59l-281 219q-39 29 -39 68z" />
<glyph unicode="&#xc9;" horiz-adv-x="1251" d="M-8 0l14 47h115l321 1274h-155l14 47h948l-80 -356h-51q8 47 8 94q0 119 -62.5 167t-240.5 48h-182l-147 -586q168 2 226 38t118 177h53l-135 -530h-51q6 55 6 98q0 98 -40 125t-192 37l-162 -633h207q215 0 315.5 64.5t204.5 273.5h58l-119 -385h-991zM700 1444 q39 37 134.5 135t154 151.5t80.5 53.5q33 0 54.5 -18.5t21.5 -47.5q0 -41 -64 -76l-317 -198h-64z" />
<glyph unicode="&#xca;" horiz-adv-x="1251" d="M-8 0l14 47h115l321 1274h-155l14 47h948l-80 -356h-51q8 47 8 94q0 119 -62.5 167t-240.5 48h-182l-147 -586q168 2 226 38t118 177h53l-135 -530h-51q6 55 6 98q0 98 -40 125t-192 37l-162 -633h207q215 0 315.5 64.5t204.5 273.5h58l-119 -385h-991zM498 1444l329 342 h78l180 -342h-65l-168 217l-279 -217h-75z" />
<glyph unicode="&#xcb;" horiz-adv-x="1251" d="M-8 0l14 47h115l321 1274h-155l14 47h948l-80 -356h-51q8 47 8 94q0 119 -62.5 167t-240.5 48h-182l-147 -586q168 2 226 38t118 177h53l-135 -530h-51q6 55 6 98q0 98 -40 125t-192 37l-162 -633h207q215 0 315.5 64.5t204.5 273.5h58l-119 -385h-991zM508 1573 q0 37 26.5 64.5t65.5 27.5q37 0 64.5 -27.5t27.5 -64.5q0 -39 -27.5 -65.5t-64.5 -26.5q-39 0 -65.5 26.5t-26.5 65.5zM918 1573q0 37 26.5 64.5t65.5 27.5q37 0 64.5 -27.5t27.5 -64.5q0 -39 -27.5 -65.5t-64.5 -26.5q-39 0 -65.5 26.5t-26.5 65.5z" />
<glyph unicode="&#xcc;" horiz-adv-x="681" d="M-18 0l14 47h110l340 1274h-159l14 47h475l-14 -47h-117l-342 -1274h154l-15 -47h-460zM229 1731q0 23 21.5 42t42.5 19q41 0 92 -63l223 -285h-59l-281 219q-39 29 -39 68z" />
<glyph unicode="&#xcd;" horiz-adv-x="681" d="M-18 0l14 47h110l340 1274h-159l14 47h475l-14 -47h-117l-342 -1274h154l-15 -47h-460zM401 1444q39 37 134.5 135t154 151.5t80.5 53.5q33 0 54.5 -18.5t21.5 -47.5q0 -41 -64 -76l-317 -198h-64z" />
<glyph unicode="&#xce;" horiz-adv-x="681" d="M-18 0l14 47h110l340 1274h-159l14 47h475l-14 -47h-117l-342 -1274h154l-15 -47h-460zM240 1444l329 342h78l180 -342h-65l-168 217l-279 -217h-75z" />
<glyph unicode="&#xcf;" horiz-adv-x="681" d="M-18 0l14 47h110l340 1274h-159l14 47h475l-14 -47h-117l-342 -1274h154l-15 -47h-460zM231 1573q0 37 27 64.5t66 27.5q37 0 64.5 -27.5t27.5 -64.5q0 -39 -28 -65.5t-64 -26.5q-39 0 -66 26.5t-27 65.5zM641 1573q0 37 26.5 64.5t65.5 27.5q37 0 64.5 -27.5t27.5 -64.5 q0 -39 -27.5 -65.5t-64.5 -26.5q-39 0 -65.5 26.5t-26.5 65.5z" />
<glyph unicode="&#xd0;" horiz-adv-x="1366" d="M-14 0l14 47h117l159 633h-219l17 59h217l147 582h-162l15 47h497q262 0 391.5 -149.5t129.5 -389.5q0 -102 -29 -213.5t-89.5 -221t-144 -197.5t-203.5 -142.5t-257 -54.5h-600zM311 47h140q113 0 179 10.5t138 44.5q119 57 230.5 370.5t111.5 524.5q0 176 -88 250 t-277 74h-110l-148 -582h285l-16 -59h-283z" />
<glyph unicode="&#xd1;" horiz-adv-x="1366" d="M-12 0l14 47h117l323 1274h-155l14 47h367l340 -1024h4l243 977h-149l14 47h324l-14 -47h-117l-344 -1352h-41l-432 1315h-4l-316 -1237h152l-15 -47h-325zM518 1493q14 84 64.5 146.5t130.5 62.5q55 0 161 -45q106 -47 150 -47q57 0 96 96h54q-49 -209 -203 -209 q-43 0 -150 47q-106 45 -143 45q-43 0 -70.5 -27.5t-36.5 -68.5h-53z" />
<glyph unicode="&#xd2;" horiz-adv-x="1366" d="M115 459q0 115 32.5 242.5t98 249.5t153.5 221.5t211 160t256 60.5q182 0 302 -128t120 -395q0 -61 -24.5 -163.5t-84 -231.5t-141.5 -240.5t-210 -188.5t-277 -77q-199 0 -317.5 143.5t-118.5 346.5zM303 285q0 -125 64.5 -200t187.5 -75q111 0 187.5 54.5t154.5 207.5 q78 152 125 350.5t56 298t9 146.5q0 131 -53 208t-192 77q-109 0 -203 -78t-145 -213q-96 -244 -143.5 -454.5t-47.5 -321.5zM571 1731q0 23 21.5 42t42.5 19q41 0 92 -63l223 -285h-59l-281 219q-39 29 -39 68z" />
<glyph unicode="&#xd3;" horiz-adv-x="1366" d="M115 459q0 115 32.5 242.5t98 249.5t153.5 221.5t211 160t256 60.5q182 0 302 -128t120 -395q0 -61 -24.5 -163.5t-84 -231.5t-141.5 -240.5t-210 -188.5t-277 -77q-199 0 -317.5 143.5t-118.5 346.5zM303 285q0 -125 64.5 -200t187.5 -75q111 0 187.5 54.5t154.5 207.5 q78 152 125 350.5t56 298t9 146.5q0 131 -53 208t-192 77q-109 0 -203 -78t-145 -213q-96 -244 -143.5 -454.5t-47.5 -321.5zM758 1444q39 37 134 135t153.5 151.5t80.5 53.5q33 0 54.5 -18.5t21.5 -47.5q0 -41 -63 -76l-318 -198h-63z" />
<glyph unicode="&#xd4;" horiz-adv-x="1366" d="M115 459q0 115 32.5 242.5t98 249.5t153.5 221.5t211 160t256 60.5q182 0 302 -128t120 -395q0 -61 -24.5 -163.5t-84 -231.5t-141.5 -240.5t-210 -188.5t-277 -77q-199 0 -317.5 143.5t-118.5 346.5zM303 285q0 -125 64.5 -200t187.5 -75q111 0 187.5 54.5t154.5 207.5 q78 152 125 350.5t56 298t9 146.5q0 131 -53 208t-192 77q-109 0 -203 -78t-145 -213q-96 -244 -143.5 -454.5t-47.5 -321.5zM555 1444l330 342h78l180 -342h-66l-168 217l-278 -217h-76z" />
<glyph unicode="&#xd5;" horiz-adv-x="1366" d="M115 459q0 115 32.5 242.5t98 249.5t153.5 221.5t211 160t256 60.5q182 0 302 -128t120 -395q0 -61 -24.5 -163.5t-84 -231.5t-141.5 -240.5t-210 -188.5t-277 -77q-199 0 -317.5 143.5t-118.5 346.5zM303 285q0 -125 64.5 -200t187.5 -75q111 0 187.5 54.5t154.5 207.5 q78 152 125 350.5t56 298t9 146.5q0 131 -53 208t-192 77q-109 0 -203 -78t-145 -213q-96 -244 -143.5 -454.5t-47.5 -321.5zM518 1493q14 84 64.5 146.5t130.5 62.5q55 0 161 -45q106 -47 150 -47q57 0 96 96h54q-49 -209 -203 -209q-43 0 -150 47q-106 45 -143 45 q-43 0 -70.5 -27.5t-36.5 -68.5h-53z" />
<glyph unicode="&#xd6;" horiz-adv-x="1366" d="M115 459q0 115 32.5 242.5t98 249.5t153.5 221.5t211 160t256 60.5q182 0 302 -128t120 -395q0 -61 -24.5 -163.5t-84 -231.5t-141.5 -240.5t-210 -188.5t-277 -77q-199 0 -317.5 143.5t-118.5 346.5zM303 285q0 -125 64.5 -200t187.5 -75q111 0 187.5 54.5t154.5 207.5 q78 152 125 350.5t56 298t9 146.5q0 131 -53 208t-192 77q-109 0 -203 -78t-145 -213q-96 -244 -143.5 -454.5t-47.5 -321.5zM573 1573q0 37 27 64.5t66 27.5q37 0 64.5 -27.5t27.5 -64.5q0 -39 -28 -65.5t-64 -26.5q-39 0 -66 26.5t-27 65.5zM983 1573q0 37 26.5 64.5 t65.5 27.5q37 0 64.5 -27.5t27.5 -64.5q0 -39 -27.5 -65.5t-64.5 -26.5q-39 0 -65.5 26.5t-26.5 65.5z" />
<glyph unicode="&#xd7;" horiz-adv-x="1126" d="M88 88l393 410l-393 409l82 86l393 -411l393 411l82 -86l-393 -409l393 -410l-82 -86l-393 410l-393 -410z" />
<glyph unicode="&#xd8;" horiz-adv-x="1366" d="M109 -199l170 269q-164 139 -164 389q0 115 32.5 242.5t98 249.5t153.5 221.5t211 160t256 60.5q123 0 217 -58l129 205h86l-157 -250q147 -131 147 -420q0 -61 -24.5 -163.5t-84 -231.5t-141.5 -240.5t-210 -188.5t-277 -77q-123 0 -213 56l-143 -224h-86zM303 285 q0 -78 27 -138l708 1119q-55 86 -196 86q-109 0 -203 -78t-145 -213q-96 -244 -143.5 -454.5t-47.5 -321.5zM373 82q66 -72 182 -72q111 0 187.5 54.5t154.5 207.5q78 152 125 350.5t56 298t9 146.5q0 68 -14 119z" />
<glyph unicode="&#xd9;" horiz-adv-x="1366" d="M184 299q0 111 58 328l182 694h-166l14 47h498l-14 -47h-138l-198 -766q-57 -223 -58 -297q0 -113 73 -173t183 -60q289 0 369 292l275 1004h-160l14 47h328l-14 -47h-111l-270 -1018q-41 -152 -159 -243t-304 -91q-162 0 -282 85t-120 245zM571 1731q0 23 21.5 42 t42.5 19q41 0 92 -63l223 -285h-59l-281 219q-39 29 -39 68z" />
<glyph unicode="&#xda;" horiz-adv-x="1366" d="M184 299q0 111 58 328l182 694h-166l14 47h498l-14 -47h-138l-198 -766q-57 -223 -58 -297q0 -113 73 -173t183 -60q289 0 369 292l275 1004h-160l14 47h328l-14 -47h-111l-270 -1018q-41 -152 -159 -243t-304 -91q-162 0 -282 85t-120 245zM758 1444q39 37 134 135 t153.5 151.5t80.5 53.5q33 0 54.5 -18.5t21.5 -47.5q0 -41 -63 -76l-318 -198h-63z" />
<glyph unicode="&#xdb;" horiz-adv-x="1366" d="M184 299q0 111 58 328l182 694h-166l14 47h498l-14 -47h-138l-198 -766q-57 -223 -58 -297q0 -113 73 -173t183 -60q289 0 369 292l275 1004h-160l14 47h328l-14 -47h-111l-270 -1018q-41 -152 -159 -243t-304 -91q-162 0 -282 85t-120 245zM555 1444l330 342h78 l180 -342h-66l-168 217l-278 -217h-76z" />
<glyph unicode="&#xdc;" horiz-adv-x="1366" d="M184 299q0 111 58 328l182 694h-166l14 47h498l-14 -47h-138l-198 -766q-57 -223 -58 -297q0 -113 73 -173t183 -60q289 0 369 292l275 1004h-160l14 47h328l-14 -47h-111l-270 -1018q-41 -152 -159 -243t-304 -91q-162 0 -282 85t-120 245zM573 1573q0 37 27 64.5 t66 27.5q37 0 64.5 -27.5t27.5 -64.5q0 -39 -28 -65.5t-64 -26.5q-39 0 -66 26.5t-27 65.5zM983 1573q0 37 26.5 64.5t65.5 27.5q37 0 64.5 -27.5t27.5 -64.5q0 -39 -27.5 -65.5t-64.5 -26.5q-39 0 -65.5 26.5t-26.5 65.5z" />
<glyph unicode="&#xdd;" horiz-adv-x="1138" d="M150 1321l14 47h493l-14 -47h-170l176 -668l465 668h-149l14 47h321l-14 -47h-108l-498 -725l-139 -549h186l-14 -47h-555l14 47h168l141 520l-198 754h-133zM643 1444q39 37 134 135t153.5 151.5t81.5 53.5q33 0 54 -18.5t21 -47.5q0 -41 -63 -76l-317 -198h-64z" />
<glyph unicode="&#xde;" horiz-adv-x="1251" d="M-12 0l14 47h115l325 1274h-159l14 47h500l-15 -47h-147l-55 -236h143q221 0 340 -82.5t119 -240.5q0 -49 -11.5 -97.5t-50.5 -107.5t-101.5 -103t-178 -74t-267.5 -30h-180l-80 -303h158l-14 -47h-469zM403 397q104 0 254 11q145 8 230.5 139t85.5 289q0 203 -264 202 h-144z" />
<glyph unicode="&#xdf;" horiz-adv-x="909" d="M-401 -346q0 39 22.5 65.5t59.5 26.5q25 0 49 -24.5t24 -61.5q0 -18 -12 -32.5t-12 -22.5q0 -20 41 -21q51 0 98 56.5t65 115.5q18 53 240 1008q154 657 469 657q113 0 180.5 -73.5t67.5 -192.5q0 -143 -93 -233.5t-237 -124.5v-4q125 -41 190.5 -113t65.5 -205 q0 -104 -45 -217t-137 -197t-205 -84q-68 0 -119 39t-51 107q0 37 24.5 65.5t61.5 28.5q33 0 55.5 -22.5t22.5 -57.5q0 -29 -25.5 -62.5t-25.5 -35.5q0 -10 22.5 -16.5t36.5 -6.5q57 0 94 58.5t70 169.5q63 217 63 323q0 80 -35.5 129t-79.5 62.5t-80 21.5t-36 17 q0 12 19 15l59 9q39 6 67 21q78 33 128.5 164t50.5 237q0 137 -111 137q-168 0 -244 -327q-12 -53 -53 -232.5t-61.5 -266.5t-56.5 -226.5t-67.5 -241.5t-62.5 -184q-41 -102 -86 -175t-79.5 -109t-75.5 -56.5t-62.5 -23.5t-50.5 -3q-53 0 -98 34t-45 85z" />
<glyph unicode="&#xe0;" d="M37 291q0 180 159.5 360t329.5 180q115 0 164 -124h2l35 104h152l-195 -702q-10 -35 3 -51.5t36 -16.5q49 0 116.5 93t84.5 163l39 -12q-55 -158 -130 -233t-151 -75q-59 0 -100 36t-43 96h-4q-39 -59 -104.5 -95.5t-131.5 -36.5q-121 0 -191.5 87.5t-70.5 226.5z M193 176q0 -68 35.5 -113t99.5 -45q53 0 120.5 56.5t116.5 193.5q90 250 90 379q0 63 -34.5 103.5t-96.5 40.5q-74 0 -123 -52.5t-92 -140.5q-43 -84 -79.5 -211t-36.5 -211zM399 1184q0 23 21.5 42t42.5 19q41 0 92 -63l223 -285h-59l-281 219q-39 29 -39 68z" />
<glyph unicode="&#xe1;" d="M37 291q0 180 159.5 360t329.5 180q115 0 164 -124h2l35 104h152l-195 -702q-10 -35 3 -51.5t36 -16.5q49 0 116.5 93t84.5 163l39 -12q-55 -158 -130 -233t-151 -75q-59 0 -100 36t-43 96h-4q-39 -59 -104.5 -95.5t-131.5 -36.5q-121 0 -191.5 87.5t-70.5 226.5z M193 176q0 -68 35.5 -113t99.5 -45q53 0 120.5 56.5t116.5 193.5q90 250 90 379q0 63 -34.5 103.5t-96.5 40.5q-74 0 -123 -52.5t-92 -140.5q-43 -84 -79.5 -211t-36.5 -211zM524 897q39 37 134.5 135t153.5 151.5t81 53.5q33 0 54.5 -18.5t21.5 -47.5q0 -41 -64 -75 l-317 -199h-64z" />
<glyph unicode="&#xe2;" d="M37 291q0 180 159.5 360t329.5 180q115 0 164 -124h2l35 104h152l-195 -702q-10 -35 3 -51.5t36 -16.5q49 0 116.5 93t84.5 163l39 -12q-55 -158 -130 -233t-151 -75q-59 0 -100 36t-43 96h-4q-39 -59 -104.5 -95.5t-131.5 -36.5q-121 0 -191.5 87.5t-70.5 226.5z M193 176q0 -68 35.5 -113t99.5 -45q53 0 120.5 56.5t116.5 193.5q90 250 90 379q0 63 -34.5 103.5t-96.5 40.5q-74 0 -123 -52.5t-92 -140.5q-43 -84 -79.5 -211t-36.5 -211zM322 897l329 342h78l180 -342h-65l-168 217l-279 -217h-75z" />
<glyph unicode="&#xe3;" d="M37 291q0 180 159.5 360t329.5 180q115 0 164 -124h2l35 104h152l-195 -702q-10 -35 3 -51.5t36 -16.5q49 0 116.5 93t84.5 163l39 -12q-55 -158 -130 -233t-151 -75q-59 0 -100 36t-43 96h-4q-39 -59 -104.5 -95.5t-131.5 -36.5q-121 0 -191.5 87.5t-70.5 226.5z M193 176q0 -68 35.5 -113t99.5 -45q53 0 120.5 56.5t116.5 193.5q90 250 90 379q0 63 -34.5 103.5t-96.5 40.5q-74 0 -123 -52.5t-92 -140.5q-43 -84 -79.5 -211t-36.5 -211zM285 946q14 84 64 146.5t130 62.5q55 0 162 -45q106 -47 150 -47q57 0 96 96h53 q-49 -209 -203 -209q-43 0 -149 47q-106 45 -144 45q-43 0 -70.5 -27.5t-35.5 -68.5h-53z" />
<glyph unicode="&#xe4;" d="M37 291q0 180 159.5 360t329.5 180q115 0 164 -124h2l35 104h152l-195 -702q-10 -35 3 -51.5t36 -16.5q49 0 116.5 93t84.5 163l39 -12q-55 -158 -130 -233t-151 -75q-59 0 -100 36t-43 96h-4q-39 -59 -104.5 -95.5t-131.5 -36.5q-121 0 -191.5 87.5t-70.5 226.5z M193 176q0 -68 35.5 -113t99.5 -45q53 0 120.5 56.5t116.5 193.5q90 250 90 379q0 63 -34.5 103.5t-96.5 40.5q-74 0 -123 -52.5t-92 -140.5q-43 -84 -79.5 -211t-36.5 -211zM295 1026q0 37 26.5 64.5t65.5 27.5q37 0 64.5 -27.5t27.5 -64.5q0 -39 -27.5 -65.5t-64.5 -26.5 q-39 0 -65.5 26.5t-26.5 65.5zM705 1026q0 37 26.5 64.5t65.5 27.5q37 0 64.5 -27.5t27.5 -64.5q0 -39 -27.5 -65.5t-64.5 -26.5q-39 0 -65.5 26.5t-26.5 65.5z" />
<glyph unicode="&#xe5;" d="M37 291q0 180 159.5 360t329.5 180q115 0 164 -124h2l35 104h152l-195 -702q-10 -35 3 -51.5t36 -16.5q49 0 116.5 93t84.5 163l39 -12q-55 -158 -130 -233t-151 -75q-59 0 -100 36t-43 96h-4q-39 -59 -104.5 -95.5t-131.5 -36.5q-121 0 -191.5 87.5t-70.5 226.5z M193 176q0 -68 35.5 -113t99.5 -45q53 0 120.5 56.5t116.5 193.5q90 250 90 379q0 63 -34.5 103.5t-96.5 40.5q-74 0 -123 -52.5t-92 -140.5q-43 -84 -79.5 -211t-36.5 -211zM449 1112q0 82 58 140.5t140 58.5t140.5 -58.5t58.5 -140.5t-58.5 -140.5t-140.5 -58.5t-140 57.5 t-58 141.5zM510 1112q0 -59 40 -98t97.5 -39t97 40t39.5 97t-39.5 97t-97 40t-97.5 -40t-40 -97z" />
<glyph unicode="&#xe6;" horiz-adv-x="1366" d="M43 291q0 180 159.5 360t329.5 180q121 0 170 -120h5l34 120h129l-26 -116l4 -4q59 61 109.5 90.5t125.5 29.5q84 0 140.5 -47t56.5 -120q0 -111 -122 -188t-384 -79q-31 -123 -31 -178q0 -82 39 -136t117 -54q102 0 161.5 49t121.5 155l35 -24q-63 -115 -137 -173.5 t-189 -58.5q-92 0 -168 48.5t-111 128.5q-137 -176 -307 -177q-121 0 -191.5 87.5t-70.5 226.5zM195 147q0 -59 43 -94t100 -35q76 0 136.5 64.5t113.5 214.5q70 197 82 342q0 66 -39 109t-105 43q-27 0 -53.5 -12.5t-46.5 -31t-40.5 -45t-36 -51t-29 -52.5t-20.5 -47.5 t-13 -35.5l-8 -18q-29 -70 -56.5 -187t-27.5 -164zM784 440q172 0 261.5 71t89.5 179q0 37 -26 65.5t-62 28.5q-66 0 -124.5 -65.5t-88.5 -134t-50 -144.5z" />
<glyph unicode="&#xe7;" horiz-adv-x="796" d="M2 -395l39 53q55 -29 125 -29q125 0 125 92q0 37 -26.5 59.5t-76.5 22.5q-12 0 -36.5 -6t-30.5 -8l-15 21l125 186q-106 33 -159.5 117t-53.5 161q0 209 155 383t341 174q84 0 147.5 -46t63.5 -130q0 -37 -23.5 -67.5t-58.5 -30.5q-33 0 -57.5 20.5t-24.5 53.5 q0 41 30 71.5t30 40.5q0 23 -34 35.5t-65 12.5q-168 0 -258 -234q-84 -227 -84 -362q0 -78 44 -122t118 -44q92 0 156.5 49t134.5 143l33 -22q-145 -221 -324 -222q-33 0 -47 5l-78 -115q31 6 59 6q70 0 113 -41t43 -108q0 -76 -73.5 -119t-184.5 -43q-90 0 -172 43z" />
<glyph unicode="&#xe8;" horiz-adv-x="796" d="M20 303q0 193 158 360.5t342 167.5q84 0 140.5 -47t56.5 -120q0 -111 -122 -188t-384 -79q-31 -123 -31 -178q0 -82 39 -136t117 -54q102 0 161.5 49t120.5 155l35 -24q-63 -115 -137 -173.5t-188 -58.5q-131 0 -219.5 98.5t-88.5 227.5zM221 440q172 0 261 71t89 179 q0 37 -25.5 65.5t-62.5 28.5q-66 0 -124 -65.5t-88 -134t-50 -144.5zM287 1184q0 23 21.5 42t41.5 19q41 0 92 -63l224 -285h-60l-280 219q-39 29 -39 68z" />
<glyph unicode="&#xe9;" horiz-adv-x="796" d="M20 303q0 193 158 360.5t342 167.5q84 0 140.5 -47t56.5 -120q0 -111 -122 -188t-384 -79q-31 -123 -31 -178q0 -82 39 -136t117 -54q102 0 161.5 49t120.5 155l35 -24q-63 -115 -137 -173.5t-188 -58.5q-131 0 -219.5 98.5t-88.5 227.5zM221 440q172 0 261 71t89 179 q0 37 -25.5 65.5t-62.5 28.5q-66 0 -124 -65.5t-88 -134t-50 -144.5zM412 897q39 37 134 135t153.5 151.5t80.5 53.5q33 0 54.5 -18.5t21.5 -47.5q0 -41 -63 -75l-318 -199h-63z" />
<glyph unicode="&#xea;" horiz-adv-x="796" d="M20 303q0 193 158 360.5t342 167.5q84 0 140.5 -47t56.5 -120q0 -111 -122 -188t-384 -79q-31 -123 -31 -178q0 -82 39 -136t117 -54q102 0 161.5 49t120.5 155l35 -24q-63 -115 -137 -173.5t-188 -58.5q-131 0 -219.5 98.5t-88.5 227.5zM209 897l330 342h77l181 -342 h-66l-168 217l-278 -217h-76zM221 440q172 0 261 71t89 179q0 37 -25.5 65.5t-62.5 28.5q-66 0 -124 -65.5t-88 -134t-50 -144.5z" />
<glyph unicode="&#xeb;" horiz-adv-x="796" d="M20 303q0 193 158 360.5t342 167.5q84 0 140.5 -47t56.5 -120q0 -111 -122 -188t-384 -79q-31 -123 -31 -178q0 -82 39 -136t117 -54q102 0 161.5 49t120.5 155l35 -24q-63 -115 -137 -173.5t-188 -58.5q-131 0 -219.5 98.5t-88.5 227.5zM203 1026q0 37 26.5 64.5 t65.5 27.5q37 0 64.5 -27.5t27.5 -64.5q0 -39 -27.5 -65.5t-64.5 -26.5q-39 0 -65.5 26.5t-26.5 65.5zM221 440q172 0 261 71t89 179q0 37 -25.5 65.5t-62.5 28.5q-66 0 -124 -65.5t-88 -134t-50 -144.5zM612 1026q0 37 27 64.5t66 27.5q37 0 64.5 -27.5t27.5 -64.5 q0 -39 -28 -65.5t-64 -26.5q-39 0 -66 26.5t-27 65.5z" />
<glyph unicode="&#xec;" horiz-adv-x="569" d="M70 84q0 33 20 115l148 565h-162l14 47h39q80 0 274 20l-178 -669l-18 -74q0 -18 18.5 -28.5t38.5 -10.5q104 0 203 246l39 -14q-98 -303 -307 -304q-53 0 -91 28t-38 79zM172 1184q0 23 21.5 42t42.5 19q41 0 92 -63l223 -285h-59l-281 219q-39 29 -39 68z" />
<glyph unicode="&#xed;" horiz-adv-x="569" d="M70 84q0 33 20 115l148 565h-162l14 47h39q80 0 274 20l-178 -669l-18 -74q0 -18 18.5 -28.5t38.5 -10.5q104 0 203 246l39 -14q-98 -303 -307 -304q-53 0 -91 28t-38 79zM297 897q39 37 134 135t153.5 151.5t81.5 53.5q33 0 54 -18.5t21 -47.5q0 -41 -63 -75l-318 -199 h-63z" />
<glyph unicode="&#xee;" horiz-adv-x="569" d="M53 897l330 342h78l180 -342h-66l-167 217l-279 -217h-76zM70 84q0 33 20 115l148 565h-162l14 47h39q80 0 274 20l-178 -669l-18 -74q0 -18 18.5 -28.5t38.5 -10.5q104 0 203 246l39 -14q-98 -303 -307 -304q-53 0 -91 28t-38 79z" />
<glyph unicode="&#xef;" horiz-adv-x="569" d="M70 84q0 33 20 115l148 565h-162l14 47h39q80 0 274 20l-178 -669l-18 -74q0 -18 18.5 -28.5t38.5 -10.5q104 0 203 246l39 -14q-98 -303 -307 -304q-53 0 -91 28t-38 79zM78 1026q0 37 26.5 64.5t65.5 27.5q37 0 64.5 -27.5t27.5 -64.5q0 -39 -27.5 -65.5t-64.5 -26.5 q-39 0 -65.5 26.5t-26.5 65.5zM487 1026q0 37 27 64.5t66 27.5q37 0 64.5 -27.5t27.5 -64.5q0 -39 -28 -65.5t-64 -26.5q-39 0 -66 26.5t-27 65.5z" />
<glyph unicode="&#xf0;" horiz-adv-x="909" d="M27 276q0 209 151.5 382t343.5 173q90 0 144 -59q12 178 -80 358l-240 -122l-22 55l233 121q-74 127 -166 190l70 47q119 -70 198 -186l242 127l23 -55l-232 -121q129 -203 129 -477q0 -317 -136 -524.5t-339 -207.5q-147 0 -233 92t-86 207zM182 188q0 -70 44 -120 t112 -50q92 0 146.5 61.5t90.5 164.5q78 215 78 377q0 170 -145 170q-164 0 -242 -224q-23 -61 -53.5 -194.5t-30.5 -184.5z" />
<glyph unicode="&#xf1;" d="M43 0l197 764h-164l14 47h39q80 0 274 20l-49 -186l4 -2q51 80 140.5 134t163.5 54q180 0 180 -169q0 -37 -73 -306.5t-73 -271.5q0 -41 58 -41q96 0 190 248l39 -17q-25 -63 -47.5 -106t-58 -91t-84 -74t-105.5 -26q-55 0 -92 29t-37 82q0 68 73 322t73 280q0 78 -93 78 q-111 0 -202 -125t-136 -307l-84 -336h-147zM285 946q14 84 64 146.5t130 62.5q55 0 162 -45q106 -47 150 -47q57 0 96 96h53q-49 -209 -203 -209q-43 0 -149 47q-106 45 -144 45q-43 0 -70.5 -27.5t-35.5 -68.5h-53z" />
<glyph unicode="&#xf2;" horiz-adv-x="909" d="M27 276q0 209 151.5 382t343.5 173q129 0 214 -96t85 -229q0 -117 -65.5 -240t-177 -206t-232.5 -83q-147 0 -233 92t-86 207zM182 188q0 -70 44 -120t112 -50q92 0 146.5 61.5t90.5 164.5q78 215 78 377q0 170 -145 170q-164 0 -242 -224q-23 -61 -53.5 -194.5 t-30.5 -184.5zM342 1184q0 23 21.5 42t42.5 19q41 0 92 -63l223 -285h-59l-281 219q-39 29 -39 68z" />
<glyph unicode="&#xf3;" horiz-adv-x="909" d="M27 276q0 209 151.5 382t343.5 173q129 0 214 -96t85 -229q0 -117 -65.5 -240t-177 -206t-232.5 -83q-147 0 -233 92t-86 207zM182 188q0 -70 44 -120t112 -50q92 0 146.5 61.5t90.5 164.5q78 215 78 377q0 170 -145 170q-164 0 -242 -224q-23 -61 -53.5 -194.5 t-30.5 -184.5zM467 897q39 37 134 135t153.5 151.5t81.5 53.5q33 0 54 -18.5t21 -47.5q0 -41 -63 -75l-318 -199h-63z" />
<glyph unicode="&#xf4;" horiz-adv-x="909" d="M27 276q0 209 151.5 382t343.5 173q129 0 214 -96t85 -229q0 -117 -65.5 -240t-177 -206t-232.5 -83q-147 0 -233 92t-86 207zM182 188q0 -70 44 -120t112 -50q92 0 146.5 61.5t90.5 164.5q78 215 78 377q0 170 -145 170q-164 0 -242 -224q-23 -61 -53.5 -194.5 t-30.5 -184.5zM244 897l329 342h78l180 -342h-65l-168 217l-279 -217h-75z" />
<glyph unicode="&#xf5;" horiz-adv-x="909" d="M27 276q0 209 151.5 382t343.5 173q129 0 214 -96t85 -229q0 -117 -65.5 -240t-177 -206t-232.5 -83q-147 0 -233 92t-86 207zM182 188q0 -70 44 -120t112 -50q92 0 146.5 61.5t90.5 164.5q78 215 78 377q0 170 -145 170q-164 0 -242 -224q-23 -61 -53.5 -194.5 t-30.5 -184.5zM227 946q14 84 64.5 146.5t130.5 62.5q55 0 162 -45q106 -47 149 -47q57 0 96 96h54q-49 -209 -203 -209q-43 0 -150 47q-106 45 -143 45q-43 0 -70.5 -27.5t-35.5 -68.5h-54z" />
<glyph unicode="&#xf6;" horiz-adv-x="909" d="M27 276q0 209 151.5 382t343.5 173q129 0 214 -96t85 -229q0 -117 -65.5 -240t-177 -206t-232.5 -83q-147 0 -233 92t-86 207zM182 188q0 -70 44 -120t112 -50q92 0 146.5 61.5t90.5 164.5q78 215 78 377q0 170 -145 170q-164 0 -242 -224q-23 -61 -53.5 -194.5 t-30.5 -184.5zM238 1026q0 37 26.5 64.5t65.5 27.5q37 0 64.5 -27.5t27.5 -64.5q0 -39 -27.5 -65.5t-64.5 -26.5q-39 0 -65.5 26.5t-26.5 65.5zM647 1026q0 37 26.5 64.5t65.5 27.5q37 0 64.5 -27.5t27.5 -64.5q0 -39 -27.5 -65.5t-64.5 -26.5q-39 0 -65.5 26.5t-26.5 65.5z " />
<glyph unicode="&#xf7;" horiz-adv-x="1126" d="M88 438v119h950v-119h-950zM442 98.5q0 53.5 35 89t86 35.5t87 -36.5t36 -88t-36 -88.5t-87 -37t-86 36t-35 89.5zM442 897q0 53 35 89t86 36t87 -37t36 -88q0 -53 -36 -89t-87 -36t-86 36t-35 89z" />
<glyph unicode="&#xf8;" horiz-adv-x="909" d="M4 -213l154 246q-61 41 -96 107.5t-35 135.5q0 209 151.5 382t343.5 173q59 0 115 -22l131 213h76l-152 -246q59 -43 94 -115.5t35 -154.5q0 -117 -65.5 -240t-177 -206t-232.5 -83q-74 0 -133 27l-133 -217h-76zM182 188q0 -45 21 -84l401 654q-37 33 -96 33 q-164 0 -242 -224q-23 -61 -53.5 -194.5t-30.5 -184.5zM244 53q45 -35 94 -35q92 0 146.5 61.5t90.5 164.5q78 215 78 377q0 41 -10 77z" />
<glyph unicode="&#xf9;" d="M68 764l14 47h39q80 0 274 20l-147 -608q-2 -8 -9.5 -31.5t-11.5 -44t-4 -36.5q0 -41 26.5 -56.5t53.5 -15.5q94 0 182 93t123 226l117 453h145l-90 -344q-6 -29 -30.5 -119t-40 -153.5t-15.5 -77.5q0 -70 54 -70q104 0 196 248l37 -12q-98 -305 -289 -306 q-80 0 -111.5 51.5t-19.5 127.5l-6 4q-47 -76 -130 -129.5t-169 -53.5q-174 0 -174 142q0 8 6 34.5t16.5 65.5t16.5 64l112 481h-165zM399 1184q0 23 21.5 42t42.5 19q41 0 92 -63l223 -285h-59l-281 219q-39 29 -39 68z" />
<glyph unicode="&#xfa;" d="M68 764l14 47h39q80 0 274 20l-147 -608q-2 -8 -9.5 -31.5t-11.5 -44t-4 -36.5q0 -41 26.5 -56.5t53.5 -15.5q94 0 182 93t123 226l117 453h145l-90 -344q-6 -29 -30.5 -119t-40 -153.5t-15.5 -77.5q0 -70 54 -70q104 0 196 248l37 -12q-98 -305 -289 -306 q-80 0 -111.5 51.5t-19.5 127.5l-6 4q-47 -76 -130 -129.5t-169 -53.5q-174 0 -174 142q0 8 6 34.5t16.5 65.5t16.5 64l112 481h-165zM524 897q39 37 134.5 135t153.5 151.5t81 53.5q33 0 54.5 -18.5t21.5 -47.5q0 -41 -64 -75l-317 -199h-64z" />
<glyph unicode="&#xfb;" d="M68 764l14 47h39q80 0 274 20l-147 -608q-2 -8 -9.5 -31.5t-11.5 -44t-4 -36.5q0 -41 26.5 -56.5t53.5 -15.5q94 0 182 93t123 226l117 453h145l-90 -344q-6 -29 -30.5 -119t-40 -153.5t-15.5 -77.5q0 -70 54 -70q104 0 196 248l37 -12q-98 -305 -289 -306 q-80 0 -111.5 51.5t-19.5 127.5l-6 4q-47 -76 -130 -129.5t-169 -53.5q-174 0 -174 142q0 8 6 34.5t16.5 65.5t16.5 64l112 481h-165zM291 897l330 342h77l181 -342h-66l-168 217l-278 -217h-76z" />
<glyph unicode="&#xfc;" d="M68 764l14 47h39q80 0 274 20l-147 -608q-2 -8 -9.5 -31.5t-11.5 -44t-4 -36.5q0 -41 26.5 -56.5t53.5 -15.5q94 0 182 93t123 226l117 453h145l-90 -344q-6 -29 -30.5 -119t-40 -153.5t-15.5 -77.5q0 -70 54 -70q104 0 196 248l37 -12q-98 -305 -289 -306 q-80 0 -111.5 51.5t-19.5 127.5l-6 4q-47 -76 -130 -129.5t-169 -53.5q-174 0 -174 142q0 8 6 34.5t16.5 65.5t16.5 64l112 481h-165zM295 1026q0 37 26.5 64.5t65.5 27.5q37 0 64.5 -27.5t27.5 -64.5q0 -39 -27.5 -65.5t-64.5 -26.5q-39 0 -65.5 26.5t-26.5 65.5zM705 1026 q0 37 26.5 64.5t65.5 27.5q37 0 64.5 -27.5t27.5 -64.5q0 -39 -27.5 -65.5t-64.5 -26.5q-39 0 -65.5 26.5t-26.5 65.5z" />
<glyph unicode="&#xfd;" horiz-adv-x="909" d="M-45 -383q0 25 18.5 46.5t44.5 21.5q23 0 58 -34t51 -34q53 0 152.5 147.5t99.5 227.5q0 27 -33 267.5t-47 332.5q0 2 -3 29.5t-7 44t-11.5 40t-20.5 35t-30 11.5q-29 0 -57.5 -34t-46 -71t-37.5 -89t-27 -62l-41 14q76 184 127 246q61 76 136 75q68 0 106.5 -53 t63.5 -219l51 -326h4l156 340q70 156 103.5 207t80.5 51q70 0 69 -71q0 -23 -17 -40.5t-40 -17.5q-31 0 -45 13.5t-25 13.5q-8 0 -33.5 -50t-67.5 -142.5t-79 -179.5t-88 -208.5t-78 -181.5q-98 -225 -205.5 -328.5t-181.5 -103.5q-100 0 -100 82zM467 897q39 37 134 135 t153.5 151.5t81.5 53.5q33 0 54 -18.5t21 -47.5q0 -41 -63 -75l-318 -199h-63z" />
<glyph unicode="&#xfe;" horiz-adv-x="909" d="M-197 -463l15 41h112l435 1782h-142l15 47h49q123 0 241 10l-176 -663l4 -4q98 82 198.5 81.5t186.5 -75t86 -252.5q0 -182 -141 -354.5t-311 -172.5q-135 0 -180 105h-5l-120 -504h149l-14 -41h-402zM223 166q0 -59 37 -103.5t94 -44.5q90 0 138.5 48.5t99.5 195.5 q80 223 80 356q0 172 -140 173q-168 0 -247 -312q-62 -219 -62 -313z" />
<glyph unicode="&#xff;" horiz-adv-x="909" d="M-45 -383q0 25 18.5 46.5t44.5 21.5q23 0 58 -34t51 -34q53 0 152.5 147.5t99.5 227.5q0 27 -33 267.5t-47 332.5q0 2 -3 29.5t-7 44t-11.5 40t-20.5 35t-30 11.5q-29 0 -57.5 -34t-46 -71t-37.5 -89t-27 -62l-41 14q76 184 127 246q61 76 136 75q68 0 106.5 -53 t63.5 -219l51 -326h4l156 340q70 156 103.5 207t80.5 51q70 0 69 -71q0 -23 -17 -40.5t-40 -17.5q-31 0 -45 13.5t-25 13.5q-8 0 -33.5 -50t-67.5 -142.5t-79 -179.5t-88 -208.5t-78 -181.5q-98 -225 -205.5 -328.5t-181.5 -103.5q-100 0 -100 82zM258 1026q0 37 26.5 64.5 t65.5 27.5q37 0 64.5 -27.5t27.5 -64.5q0 -39 -27.5 -65.5t-64.5 -26.5q-39 0 -65.5 26.5t-26.5 65.5zM668 1026q0 37 26.5 64.5t65.5 27.5q37 0 64.5 -27.5t27.5 -64.5q0 -39 -27.5 -65.5t-64.5 -26.5q-39 0 -65.5 26.5t-26.5 65.5z" />
<glyph unicode="&#x152;" horiz-adv-x="1933" d="M111 467q0 82 25.5 190.5t86 235.5t146.5 231.5t221 174t295 69.5h1046l-80 -356h-51q8 47 8 94q0 119 -62.5 167t-240.5 48h-182l-147 -586q168 2 226 38t118 177h53l-135 -530h-52q6 55 7 98q0 98 -40 125t-192 37l-162 -633h207q215 0 315.5 64.5t204.5 273.5h58 l-119 -385h-1055q-499 0 -499 467zM305 274q0 -106 70.5 -164.5t177.5 -58.5q66 0 135.5 24.5t97.5 65.5q66 94 175.5 511t109.5 485q0 92 -58.5 138t-152.5 46q-184 0 -311 -188q-74 -111 -159 -400t-85 -459z" />
<glyph unicode="&#x153;" horiz-adv-x="1366" d="M31 276q0 209 151.5 382t343.5 173q143 0 250 -135q166 135 309 135q84 0 140.5 -47t56.5 -120q0 -111 -122 -188t-384 -79q-31 -123 -31 -178q0 -82 39 -136t117 -54q102 0 161.5 49t121.5 155l35 -24q-63 -115 -137 -173.5t-189 -58.5q-160 0 -250 134 q-139 -133 -293 -134q-147 0 -233 92t-86 207zM186 188q0 -70 44 -120t112 -50q92 0 146.5 61.5t91.5 164.5q78 215 77 377q0 170 -145 170q-164 0 -242 -224q-23 -61 -53.5 -194.5t-30.5 -184.5zM786 440q172 0 261.5 71t89.5 179q0 37 -26 65.5t-62 28.5 q-66 0 -124.5 -65.5t-88.5 -134t-50 -144.5z" />
<glyph unicode="&#x178;" horiz-adv-x="1138" d="M150 1321l14 47h493l-14 -47h-170l176 -668l465 668h-149l14 47h321l-14 -47h-108l-498 -725l-139 -549h186l-14 -47h-555l14 47h168l141 520l-198 754h-133zM473 1573q0 37 26.5 64.5t65.5 27.5q37 0 64.5 -27.5t27.5 -64.5q0 -39 -27.5 -65.5t-64.5 -26.5 q-39 0 -65.5 26.5t-26.5 65.5zM883 1573q0 37 26.5 64.5t65.5 27.5q37 0 64.5 -27.5t27.5 -64.5q0 -39 -27.5 -65.5t-64.5 -26.5q-39 0 -65.5 26.5t-26.5 65.5z" />
<glyph unicode="&#x2c6;" horiz-adv-x="569" d="M94 897l330 342h78l180 -342h-66l-167 217l-279 -217h-76z" />
<glyph unicode="&#x2dc;" horiz-adv-x="569" d="M57 946q14 84 64.5 146.5t130.5 62.5q55 0 162 -45q106 -47 149 -47q57 0 96 96h54q-49 -209 -203 -209q-43 0 -150 47q-106 45 -143 45q-43 0 -70.5 -27.5t-35.5 -68.5h-54z" />
<glyph unicode="&#x2013;" d="M-39 397l25 97h1024l-25 -97h-1024z" />
<glyph unicode="&#x2014;" horiz-adv-x="2048" d="M-39 397l25 97h2048l-25 -97h-2048z" />
<glyph unicode="&#x2018;" horiz-adv-x="454" d="M186 1030q0 113 68 182.5t221 159.5l19 -33q-252 -143 -252 -292q0 -49 24 -50q6 0 17.5 22.5t35 44t62.5 21.5q41 0 65.5 -25.5t24.5 -66.5q0 -55 -41 -88t-98 -33q-61 0 -103.5 43t-42.5 115z" />
<glyph unicode="&#x2019;" horiz-adv-x="454" d="M195 905q252 143 251 293q0 49 -24 49q-6 0 -17.5 -21.5t-35 -44t-62.5 -22.5q-41 0 -65.5 25.5t-24.5 66.5q0 55 41 88t98 33q61 0 103.5 -43t42.5 -115q0 -113 -67.5 -182t-221.5 -160z" />
<glyph unicode="&#x201a;" horiz-adv-x="454" d="M-16 -270q252 143 252 293q0 49 -25 49q-4 0 -8 -6.5t-11.5 -17.5t-13.5 -19q-29 -45 -82 -45q-41 0 -65.5 25.5t-24.5 66.5q0 55 41 88t98 33q61 0 103.5 -43t42.5 -115q0 -113 -67.5 -182.5t-221.5 -159.5z" />
<glyph unicode="&#x201c;" horiz-adv-x="909" d="M182 1030q0 113 67.5 182.5t221.5 159.5l18 -33q-252 -143 -251 -292q0 -49 24 -50q6 0 17.5 22.5t35 44t62.5 21.5q41 0 65.5 -25.5t24.5 -66.5q0 -55 -41 -88t-98 -33q-61 0 -103.5 43t-42.5 115zM651 1030q0 113 67.5 182.5t221.5 159.5l18 -33q-252 -143 -251 -292 q0 -49 24 -50q6 0 17.5 22.5t35 44t62.5 21.5q41 0 65.5 -25.5t24.5 -66.5q0 -55 -41 -88t-98 -33q-61 0 -103.5 43t-42.5 115z" />
<glyph unicode="&#x201d;" horiz-adv-x="909" d="M184 905q252 143 252 293q0 49 -24 49q-6 0 -17.5 -21.5t-35 -44t-62.5 -22.5q-41 0 -65.5 25.5t-24.5 66.5q0 55 41 88t98 33q61 0 103.5 -43t42.5 -115q0 -113 -68 -182t-221 -160zM653 905q252 143 252 293q0 49 -24 49q-6 0 -17.5 -21.5t-35 -44t-62.5 -22.5 q-41 0 -65.5 25.5t-24.5 66.5q0 55 41 88t98 33q61 0 103.5 -43t42.5 -115q0 -113 -68 -182t-221 -160z" />
<glyph unicode="&#x201e;" horiz-adv-x="909" d="M-29 -270q252 143 252 293q0 49 -24 49q-4 0 -8.5 -6.5t-11.5 -17.5t-13 -19q-29 -45 -82 -45q-41 0 -65.5 25.5t-24.5 66.5q0 55 41 88t98 33q61 0 103.5 -43t42.5 -115q0 -113 -68 -182.5t-221 -159.5zM440 -270q252 143 252 293q0 49 -24 49q-4 0 -8.5 -6.5 t-11.5 -17.5t-13 -19q-29 -45 -82 -45q-41 0 -65.5 25.5t-24.5 66.5q0 55 41 88t98 33q61 0 103.5 -43t42.5 -115q0 -113 -68 -182.5t-221 -159.5z" />
<glyph unicode="&#x2022;" d="M178 669.5q0 137.5 97.5 236t236.5 98.5t236.5 -98.5t97.5 -236t-97.5 -235.5t-236.5 -98t-236.5 98t-97.5 235.5z" />
<glyph unicode="&#x2026;" horiz-adv-x="2048" d="M123 94q0 51 35 86t86 35t87 -35t36 -86t-36 -85t-87 -34t-86 34t-35 85zM805 94q0 51 34.5 86t86 35t87.5 -35t36 -86t-36 -85t-87.5 -34t-86 34t-34.5 85zM1487 94q0 51 34.5 86t86 35t87.5 -35t36 -86t-36 -85t-87.5 -34t-86 34t-34.5 85z" />
<glyph unicode="&#x2039;" horiz-adv-x="681" d="M162 449q0 6 15.5 18t47 35.5t56.5 44.5q74 53 132 106.5t81.5 76t31.5 22.5q16 0 17 -15q0 -49 -234 -268q-18 -16 -26 -25q150 -268 149 -282q0 -12 -12 -12q-4 0 -8 2t-11.5 9t-15.5 17t-24.5 29.5t-34 41t-49 58.5t-66.5 76q-49 56 -49 66z" />
<glyph unicode="&#x203a;" horiz-adv-x="681" d="M141 164q0 49 234 268q18 16 26 25q-150 268 -149 282q0 12 12 13q4 0 8 -2t11.5 -9.5t15.5 -17.5t24.5 -29.5t34 -41t49 -58.5t66.5 -76q49 -55 49 -65q0 -6 -15 -18.5t-47 -36t-57 -44.5q-74 -53 -132 -106t-81.5 -75.5t-31.5 -22.5q-17 0 -17 14z" />
<glyph unicode="&#x20ac;" d="M20 504l23 49h109q8 113 41 225h-134l25 49h125q80 227 233.5 374t313.5 147q55 0 114.5 -29t98.5 -76l65 60h31l-59 -359l-37 8q0 190 -65.5 272.5t-160.5 82.5q-207 0 -348 -480h504l-25 -49h-493l-25 -100q-10 -43 -26 -125h440l-25 -49h-421q-14 -88 -15 -174 q0 -41 10.5 -89t34 -100.5t68.5 -87.5t104 -35q121 0 222.5 110t162.5 257l37 -16l-90 -369h-31l-30 88q-111 -111 -267 -111q-162 0 -272.5 144.5t-110.5 347.5v35h-127z" />
<glyph unicode="&#x2122;" horiz-adv-x="2027" d="M94 1161v180h694v-180h-38q-35 141 -140 142h-98v-639q0 -80 11.5 -93.5t84.5 -21.5v-39h-334v39q76 8 86.5 21.5t10.5 93.5v639h-99q-104 0 -139 -142h-39zM881 1303v38h252l315 -630l326 630h200v-38q-63 -2 -86.5 -31t-23.5 -86v-522q0 -82 9 -94.5t87 -20.5v-39h-334 v39q78 8 87 20.5t9 94.5v477h-4l-311 -637h-18l-312 641h-4v-465q0 -68 21.5 -95.5t85.5 -35.5v-39h-267v39q66 8 87.5 35.5t21.5 95.5v520q-18 45 -58 74t-83 29z" />
<glyph unicode="&#xe000;" horiz-adv-x="830" d="M0 830h830v-830h-830v830z" />
<glyph unicode="&#xfb01;" d="M-389 -346q0 37 23.5 64.5t66.5 27.5q25 0 47.5 -22.5t22.5 -61.5q0 -6 -13 -29l-10 -22q0 -23 45 -23q104 0 156 115q47 96 98 320l176 741h-176l14 47h177q170 606 514 606q78 0 141 -32.5t63 -112.5q0 -31 -24.5 -53.5t-54.5 -22.5q-29 0 -53.5 18.5t-24.5 49.5 q0 14 6 32.5t14 30.5l6 12q0 18 -27.5 27.5t-47.5 9.5q-68 0 -124.5 -47t-100.5 -139t-72.5 -174t-63.5 -205h203q80 0 274 20l-178 -669l-18 -74q0 -18 18.5 -28.5t38.5 -10.5q104 0 203 246l39 -14q-98 -303 -307 -304q-53 0 -91.5 28t-38.5 79q0 33 21 115l147 565h-323 l-82 -356q-55 -229 -113.5 -395.5t-108.5 -255.5t-109.5 -140t-101.5 -63.5t-95 -12.5q-57 0 -106.5 29t-49.5 84z" />
<glyph unicode="&#xfb02;" d="M-389 -352q0 37 23.5 64.5t66.5 27.5q25 0 47.5 -22.5t22.5 -61.5q0 -6 -13 -29l-10 -22q0 -23 45 -23q104 0 156 115q49 100 98 326l176 741h-176l14 47h177q27 125 87 257t166.5 240.5t225.5 108.5q47 0 88 -10q10 -2 21.5 -4t19.5 -4t14 -2q25 0 72 8t69 8l-299 -1182 q0 -4 -14 -55t-14 -70q0 -59 45 -59q27 0 53.5 18.5t52 57.5t41 64.5t39 74.5t25.5 53l37 -18q-27 -61 -50.5 -106.5t-62.5 -99.5t-88 -84t-104 -30q-53 0 -92.5 27t-39.5 84q0 18 11.5 66.5t33 133.5t33.5 140l78 336h-309l-82 -363q-55 -229 -113.5 -395t-108.5 -255 t-109.5 -140t-101.5 -63.5t-95 -12.5q-57 0 -106.5 29t-49.5 84zM389 811h311l105 401q-16 16 -17 52q0 12 14.5 34.5t14.5 36.5q0 35 -65 35q-63 0 -116.5 -39t-88.5 -91t-68 -133t-48 -135t-34 -128q-6 -23 -8 -33z" />
<glyph unicode="&#xfb03;" horiz-adv-x="1708" d="M1209 84q0 33 20 115l148 565h-162l14 47h39q80 0 274 20l-178 -669l-18 -74q0 -18 18.5 -28.5t38.5 -10.5q104 0 203 246l39 -14q-98 -303 -307 -304q-53 0 -91 28t-38 79zM1452 1245q0 41 28 71t66.5 30t66.5 -30t28 -71q0 -43 -26.5 -70.5t-67.5 -27.5t-68 27.5 t-27 70.5zM180 -346q0 37 23.5 64.5t66.5 27.5q25 0 47.5 -22.5t22.5 -61.5q0 -6 -13 -29l-10 -22q0 -23 45 -23q104 0 156 115q47 96 98 320l176 741h-176l14 47h177q27 125 87 257t166.5 240.5t225.5 108.5q66 0 111.5 -32.5t45.5 -96.5q0 -33 -23.5 -55.5t-56 -22.5 t-56 19.5t-23.5 50.5q0 18 11 39.5t11 32.5q0 25 -49 24q-78 0 -171 -154.5t-130 -410.5h205l-14 -47h-201l-82 -356q-55 -229 -113.5 -395.5t-108.5 -255.5t-109.5 -140t-101.5 -63.5t-95 -12.5q-57 0 -106.5 29t-49.5 84zM-389 -346q0 37 23.5 64.5t66.5 27.5 q25 0 47.5 -22.5t22.5 -61.5q0 -6 -13 -29l-10 -22q0 -23 45 -23q104 0 156 115q47 96 98 320l176 741h-176l14 47h177q27 125 87 257t166.5 240.5t225.5 108.5q66 0 111.5 -32.5t45.5 -96.5q0 -33 -23.5 -55.5t-56 -22.5t-56 19.5t-23.5 50.5q0 18 11 39.5t11 32.5 q0 25 -49 24q-78 0 -171 -154.5t-130 -410.5h205l-14 -47h-201l-82 -356q-55 -229 -113.5 -395.5t-108.5 -255.5t-109.5 -140t-101.5 -63.5t-95 -12.5q-57 0 -106.5 29t-49.5 84z" />
<glyph unicode="&#xfb04;" horiz-adv-x="1708" d="M1180 84q0 33 20 115l306 1161h-168l14 47h78q123 0 241 10l-335 -1255l-19 -74q0 -18 18.5 -28.5t39.5 -10.5q98 0 219 268l39 -14q-123 -326 -324 -326q-53 0 -91 28t-38 79zM180 -346q0 37 23.5 64.5t66.5 27.5q25 0 47.5 -22.5t22.5 -61.5q0 -6 -13 -29l-10 -22 q0 -23 45 -23q104 0 156 115q47 96 98 320l176 741h-176l14 47h177q27 125 87 257t166.5 240.5t225.5 108.5q66 0 111.5 -32.5t45.5 -96.5q0 -33 -23.5 -55.5t-56 -22.5t-56 19.5t-23.5 50.5q0 18 11 39.5t11 32.5q0 25 -49 24q-78 0 -171 -154.5t-130 -410.5h205l-14 -47 h-201l-82 -356q-55 -229 -113.5 -395.5t-108.5 -255.5t-109.5 -140t-101.5 -63.5t-95 -12.5q-57 0 -106.5 29t-49.5 84zM-389 -346q0 37 23.5 64.5t66.5 27.5q25 0 47.5 -22.5t22.5 -61.5q0 -6 -13 -29l-10 -22q0 -23 45 -23q104 0 156 115q47 96 98 320l176 741h-176l14 47 h177q27 125 87 257t166.5 240.5t225.5 108.5q66 0 111.5 -32.5t45.5 -96.5q0 -33 -23.5 -55.5t-56 -22.5t-56 19.5t-23.5 50.5q0 18 11 39.5t11 32.5q0 25 -49 24q-78 0 -171 -154.5t-130 -410.5h205l-14 -47h-201l-82 -356q-55 -229 -113.5 -395.5t-108.5 -255.5 t-109.5 -140t-101.5 -63.5t-95 -12.5q-57 0 -106.5 29t-49.5 84z" />
</font>
</defs>
</svg>
