<?xml version="1.0" standalone="no"?>
<!DOCTYPE svg PUBLIC "-//W3C//DTD SVG 1.1//EN" "http://www.w3.org/Graphics/SVG/1.1/DTD/svg11.dtd" >
<svg>
<metadata>
Created by FontForge 20090914 at Wed Mar 30 15:39:21 2011
 By apache
Copyright 1986, 1990, 1991, 1998 , 2002Adobe Systems Incorporated. All Rights Reserved. 
</metadata>
<defs>
<font id="BodoniStd-BoldItalic" horiz-adv-x="556" >
  <font-face 
    font-family="Bodoni Std"
    font-weight="700"
    font-style="italic"
    font-stretch="normal"
    units-per-em="1000"
    panose-1="2 7 8 3 7 7 6 9 3 3"
    ascent="698"
    descent="-302"
    x-height="400"
    cap-height="668"
    bbox="-168 -250 1020 949"
    underline-thickness="50"
    underline-position="-50"
    slope="-12"
    stemh="28"
    stemv="124"
    unicode-range="U+0020-U+FB02"
  />
<missing-glyph horiz-adv-x="587" 
d="M87 0v700h500v-700h-500zM337 395l170 255h-340zM367 350l170 -255v510zM167 50h340l-170 255zM137 605v-510l170 255z" />
    <glyph glyph-name="fi" unicode="fi" horiz-adv-x="611" 
d="M133 368h-88l6 28h90c21 66 42 124 80 171c58 72 135 116 201 116c48 0 99 -6 127 -50c7 -11 12 -23 12 -37c0 -37 -25 -60 -62 -60c-31 0 -55 24 -55 54c0 13 4 21 9 28s9 13 9 20c0 14 -33 17 -42 17c-60 0 -91 -41 -111 -94s-26 -118 -38 -165h184l50 3
c16 1 33 1 49 1l-79 -333c-6 -27 -9 -40 12 -40c34 0 75 81 87 110l21 -10c-33 -85 -73 -142 -169 -142c-42 0 -81 22 -81 56c0 15 7 47 14 79l55 248h-150c-23 -115 -46 -229 -84 -338c-28 -85 -84 -237 -191 -237c-64 0 -95 45 -95 79c0 30 24 57 54 57
c27 0 57 -15 57 -48c0 -22 -15 -46 -15 -54c0 -7 6 -6 11 -6c42 0 58 127 62 153z" />
    <glyph glyph-name="fl" unicode="fl" horiz-adv-x="611" 
d="M133 368h-90l6 28h92c13 50 26 90 47 127c23 42 53 79 89 111c41 34 77 49 130 49c34 0 59 -11 77 -19l128 19l-134 -615c-3 -15 -9 -39 12 -41c36 -3 76 77 89 105l21 -11c-34 -79 -71 -136 -161 -136c-49 0 -88 29 -88 83c0 22 7 34 9 46l88 438c-26 14 -29 30 -29 45
c0 12 7 21 14 32c13 20 -21 26 -36 26c-52 0 -80 -45 -97 -99s-23 -118 -31 -160h101l-5 -28h-101c-23 -115 -46 -229 -84 -338c-28 -85 -84 -237 -191 -237c-64 0 -95 45 -95 79c0 30 24 57 54 57c27 0 57 -15 57 -48c0 -22 -15 -46 -15 -54c0 -7 6 -6 11 -6
c42 0 58 127 62 153z" />
    <glyph glyph-name=".notdef" horiz-adv-x="587" 
d="M87 0v700h500v-700h-500zM337 395l170 255h-340zM367 350l170 -255v510zM167 50h340l-170 255zM137 605v-510l170 255z" />
    <glyph glyph-name="space" unicode=" " horiz-adv-x="305" 
 />
    <glyph glyph-name="exclam" unicode="!" horiz-adv-x="389" 
d="M198 219h-30c19 78 25 158 25 238c0 29 -1 58 -2 87c0 16 -1 31 -1 47c0 49 30 92 81 92c48 0 74 -30 74 -76c0 -11 -10 -37 -15 -47c-51 -104 -78 -166 -112 -278zM156 149c44 0 83 -37 83 -82c0 -46 -38 -82 -83 -82s-82 38 -82 82s38 82 82 82z" />
    <glyph glyph-name="quotedbl" unicode="&#x22;" horiz-adv-x="500" 
d="M279 579l-51 -138c-6 -15 -13 -44 -34 -44c-20 0 -19 21 -18 36l15 178c3 36 26 72 68 72c21 0 40 -13 37 -37c-4 -35 -10 -50 -17 -67zM451 579l-51 -138c-6 -15 -13 -44 -34 -44c-20 0 -19 21 -18 36l15 178c3 36 26 72 68 72c21 0 40 -13 37 -37
c-4 -35 -10 -50 -17 -67z" />
    <glyph glyph-name="numbersign" unicode="#" horiz-adv-x="611" 
d="M526 277v-66h-105l-32 -211h-75l32 211h-108l-32 -211h-75l32 211h-103v66h114l18 121h-104v66h114l30 201h75l-30 -201h107l29 201h75l-29 -201h93v-66h-103l-18 -121h95zM374 398h-107l-18 -121h107z" />
    <glyph glyph-name="dollar" unicode="$" horiz-adv-x="611" 
d="M213 -11l-24 -108h-26l25 114c-61 10 -135 52 -135 122c0 39 22 82 66 82c41 0 62 -26 62 -65c0 -24 -14 -37 -28 -47s-29 -14 -30 -21c-4 -24 53 -42 71 -44l59 262c-79 25 -127 75 -127 160c0 107 108 183 207 190l17 69h25l-15 -66c27 2 54 2 80 -4l16 70h27l-18 -75
c51 -7 111 -60 111 -114c0 -33 -15 -65 -52 -65c-35 0 -55 21 -55 56c0 16 11 29 21 39s20 18 20 22c0 17 -38 34 -52 36l-49 -220c71 -18 128 -88 128 -162c0 -133 -88 -211 -215 -229l-25 -110h-25l21 106c-27 -2 -53 -1 -80 2zM382 389l52 219c-15 3 -57 4 -79 2
l-47 -203zM380 245l-51 -226c72 12 135 52 135 125c0 58 -30 85 -84 101zM284 413l44 195c-69 -8 -127 -41 -127 -117c0 -41 48 -70 83 -78zM297 14l56 238l-75 22l-59 -258c26 -4 52 -5 78 -2z" />
    <glyph glyph-name="percent" unicode="%" horiz-adv-x="1000" 
d="M251 -30l358 616l-2 2c-38 -26 -84 -42 -132 -42c-24 0 -48 3 -71 10c17 -118 -78 -285 -208 -285c-80 0 -139 53 -139 135c0 155 164 248 228 248c46 0 90 -20 109 -64c27 -10 55 -18 84 -18c69 0 156 50 174 96c6 15 24 11 32 11h25l-407 -709h-51zM310 613
c-48 -6 -138 -174 -138 -259c0 -27 24 -51 51 -51c94 0 158 144 158 224c0 12 -1 24 -4 36c-25 15 -46 31 -67 50zM790 376c75 0 110 -55 110 -125c0 -113 -85 -256 -210 -256c-80 0 -140 50 -140 132c0 141 136 249 240 249zM822 338c-66 0 -155 -180 -155 -257
c0 -34 16 -54 51 -54c95 0 159 146 159 226c0 34 -12 85 -55 85z" />
    <glyph glyph-name="ampersand" unicode="&#x26;" horiz-adv-x="778" 
d="M271 353c-58 -26 -76 -66 -76 -127c0 -66 40 -189 120 -189c34 0 67 16 92 39c-63 82 -103 180 -136 277zM407 428c75 35 108 83 108 167c0 39 -33 50 -67 50c-46 0 -97 -26 -70 -119zM417 400l83 -197l88 155c19 33 55 57 93 57c49 0 84 -23 84 -75
c0 -39 -26 -66 -65 -66c-35 0 -60 28 -60 63c0 6 3 12 4 18c3 17 -27 2 -46 -33l-82 -151c31 -47 64 -121 130 -121c40 0 74 29 96 60l22 -18c-43 -69 -103 -103 -184 -103c-64 0 -111 18 -155 65c-68 -48 -106 -69 -191 -69c-131 0 -193 90 -193 183c0 119 133 170 223 212
c-10 34 -21 70 -21 106c0 118 86 182 207 182c67 0 168 -17 168 -102c0 -93 -136 -132 -201 -166z" />
    <glyph glyph-name="quoteright" unicode="&#x2019;" horiz-adv-x="278" 
d="M155 403l-5 23c58 17 127 64 127 131c0 8 0 30 -12 30c-11 -22 -33 -41 -59 -41c-42 0 -63 28 -63 68s40 69 78 69c65 0 100 -49 100 -111c0 -88 -87 -151 -166 -169z" />
    <glyph glyph-name="parenleft" unicode="(" horiz-adv-x="389" 
d="M220 -220h-24c-80 120 -132 256 -132 402c0 234 138 360 319 501h27c-99 -92 -155 -176 -193 -306c-32 -105 -55 -236 -55 -346c0 -91 13 -173 58 -251z" />
    <glyph glyph-name="parenright" unicode=")" horiz-adv-x="389" 
d="M175 683h24c80 -120 132 -256 132 -402c0 -234 -138 -360 -319 -501h-27c99 92 155 176 193 306c32 105 55 236 55 346c0 91 -13 173 -58 251z" />
    <glyph glyph-name="asterisk" unicode="*" horiz-adv-x="611" 
d="M283 424c-58 -39 -45 -50 -70 -82c-16 -19 -41 -31 -62 -26c-12 2 -23 11 -31 25c-9 14 -10 28 -6 39c6 21 29 37 54 40c40 6 42 -9 105 21c8 8 8 14 1 17c-63 31 -65 15 -106 21c-24 4 -47 19 -54 40c-3 11 -2 25 7 39c8 14 19 23 30 25c22 5 47 -7 62 -26
c26 -32 13 -42 71 -82c6 -3 10 -1 10 7c-6 70 -21 64 -36 102c-9 23 -7 51 8 67c8 9 21 14 37 14c17 0 30 -5 37 -14c15 -16 17 -44 8 -67c-15 -38 -30 -32 -34 -102c-4 -8 7 -14 14 -9c58 39 45 49 71 81c15 19 40 32 62 27c11 -3 22 -11 30 -25c8 -15 10 -29 7 -39
c-7 -21 -30 -37 -54 -41c-41 -6 -43 10 -106 -20c-9 -3 -8 -11 1 -11c63 -30 65 -14 106 -20c24 -4 47 -20 54 -41c3 -11 1 -25 -7 -39s-19 -23 -30 -25c-22 -5 -47 7 -62 27c-26 32 -13 42 -71 81c-10 9 -20 3 -15 -8c5 -70 20 -64 35 -102c9 -23 7 -51 -8 -67
c-8 -8 -21 -14 -37 -14c-17 0 -30 6 -37 14c-15 16 -17 44 -8 67c15 38 30 32 35 102c3 9 -5 13 -11 4z" />
    <glyph glyph-name="plus" unicode="+" horiz-adv-x="500" 
d="M29 263h181v181h81v-181h181v-81h-181v-181h-81v181h-181v81z" />
    <glyph glyph-name="comma" unicode="," horiz-adv-x="333" 
d="M78 -185l-9 21c60 29 144 83 144 158c0 10 -7 26 -15 26c-6 0 -11 -9 -20 -17s-22 -18 -44 -18c-45 0 -66 31 -66 73c0 40 39 78 79 78c60 0 109 -48 109 -120c0 -97 -95 -170 -178 -201z" />
    <glyph glyph-name="hyphen" unicode="-" horiz-adv-x="333" 
d="M309 150h-285l20 102h285z" />
    <glyph glyph-name="period" unicode="." horiz-adv-x="333" 
d="M153 149c44 0 83 -37 83 -82c0 -46 -38 -82 -83 -82s-82 38 -82 82s38 82 82 82z" />
    <glyph glyph-name="slash" unicode="/" horiz-adv-x="278" 
d="M-6 0l207 683h83l-206 -683h-84z" />
    <glyph glyph-name="zero" unicode="0" horiz-adv-x="611" 
d="M378 641c-47 0 -75 -38 -91 -79c-31 -79 -93 -348 -93 -481c0 -45 19 -69 64 -69c46 0 72 19 91 61c36 79 100 390 100 486c0 52 -16 82 -71 82zM392 665c129 0 197 -116 197 -234c0 -73 -15 -148 -44 -215c-48 -109 -166 -231 -293 -231c-141 0 -198 128 -198 251
c0 104 33 199 93 283c56 79 145 146 245 146z" />
    <glyph glyph-name="one" unicode="1" horiz-adv-x="611" 
d="M485 665l-146 -635h136l-7 -30h-405l6 30h121l129 553c5 21 -17 25 -43 25h-94l7 30z" />
    <glyph glyph-name="two" unicode="2" horiz-adv-x="611" 
d="M466 0h-431v89c127 95 350 207 372 381c2 16 3 32 3 48c0 77 -28 114 -108 114c-35 0 -117 -28 -117 -72c0 -12 7 -18 18 -18c8 0 15 1 23 1c34 0 56 -23 56 -57c0 -39 -26 -68 -66 -68c-50 0 -84 42 -84 90c0 105 118 157 206 157c110 0 234 -37 234 -170
c0 -100 -102 -177 -182 -222c-87 -49 -171 -105 -258 -153v-2h284c35 0 50 10 56 26l20 59h30z" />
    <glyph glyph-name="three" unicode="3" horiz-adv-x="611" 
d="M329 351v-1c95 -11 203 -39 203 -156c0 -153 -184 -209 -309 -209c-78 0 -173 39 -173 129c0 45 27 83 74 83c41 0 68 -29 68 -69c0 -27 -14 -38 -29 -47c-14 -8 -30 -13 -32 -28c-6 -37 66 -41 88 -41c118 0 150 137 150 232c0 50 -27 88 -83 88c-25 0 -50 -7 -74 -7
c-18 0 -28 1 -28 22c0 26 44 17 59 17c41 0 66 3 98 29c36 30 68 76 68 172c0 56 -27 74 -81 74c-62 0 -68 -23 -77 -31c-3 -4 -2 -9 2 -11c29 -15 44 -28 44 -62c0 -35 -27 -62 -62 -62c-40 0 -66 30 -66 69c0 94 114 123 190 123c83 0 201 -34 201 -137
c0 -125 -133 -155 -231 -177z" />
    <glyph glyph-name="four" unicode="4" horiz-adv-x="611" 
d="M64 213h240l77 331zM38 183v53l428 429h87l-102 -452h76c44 0 31 48 46 78h24l-40 -188h-26c5 29 29 80 -13 80h-74l-33 -153h90l-7 -30h-319l7 30h78l36 153h-258z" />
    <glyph glyph-name="five" unicode="5" horiz-adv-x="611" 
d="M566 683h22c-12 -38 -25 -77 -52 -109c-30 -36 -59 -39 -103 -39h-215l-52 -176c49 15 98 31 150 31c169 0 230 -87 230 -175c0 -148 -170 -230 -299 -230c-82 0 -188 31 -188 130c0 42 32 73 74 73c39 0 68 -31 68 -69c0 -23 -14 -38 -27 -49c-14 -11 -28 -18 -28 -27
c0 -29 62 -31 81 -31c62 0 153 50 153 230c0 78 -48 106 -120 106c-37 0 -73 -10 -108 -22c-9 -3 -23 7 -20 17l72 254c9 33 25 56 62 56h271c10 0 19 21 29 30z" />
    <glyph glyph-name="six" unicode="6" horiz-adv-x="611" 
d="M580 665l-7 -34c-146 -4 -278 -111 -314 -253c42 22 87 41 136 41c109 0 177 -80 177 -165c0 -111 -64 -185 -145 -229c-48 -26 -94 -40 -170 -40c-75 0 -204 65 -204 224c0 180 146 332 300 405c76 36 182 51 227 51zM229 279l-21 -127c-4 -25 -6 -49 -6 -74
c0 -49 27 -64 73 -64c39 0 66 9 88 41s53 214 53 256c0 38 -5 73 -52 73c-39 0 -90 -31 -117 -58c-8 -9 -15 -28 -18 -47z" />
    <glyph glyph-name="seven" unicode="7" horiz-adv-x="611" 
d="M618 653v-45l-163 -203c-54 -67 -116 -132 -116 -223c0 -25 14 -66 14 -98c0 -70 -37 -99 -103 -99c-46 0 -74 44 -74 73c0 20 7 47 14 62c33 70 107 151 158 212l162 196h-273c-41 0 -55 -7 -68 -27l-30 -47l-23 12l95 187h407z" />
    <glyph glyph-name="eight" unicode="8" horiz-adv-x="611" 
d="M269 10c60 0 81 19 100 73c14 38 30 117 30 157c0 53 -32 82 -84 82c-50 0 -82 -44 -102 -97s-26 -116 -26 -155c0 -56 33 -60 82 -60zM333 349c50 0 67 27 83 71s32 116 32 163c0 44 -24 57 -65 57s-71 -8 -91 -104c-7 -33 -16 -85 -16 -118c0 -40 13 -69 57 -69z
M374 336v-1c89 -20 177 -50 177 -157c0 -85 -80 -193 -294 -193c-104 0 -222 40 -222 163c0 125 137 174 240 189v2c-75 16 -144 52 -144 139c0 66 68 187 251 187c94 0 208 -35 208 -148c0 -110 -120 -173 -216 -181z" />
    <glyph glyph-name="nine" unicode="9" horiz-adv-x="611" 
d="M73 -15l7 32c148 7 276 111 314 254c-41 -23 -88 -42 -136 -42c-100 0 -177 70 -177 172c0 158 157 264 303 264c126 0 216 -101 216 -225c0 -30 -3 -56 -10 -85c-27 -113 -116 -208 -208 -273c-91 -64 -199 -93 -309 -97zM260 498l-20 -120c-15 -87 7 -113 54 -113
c32 0 73 25 97 45c37 30 32 58 37 88l20 122c16 101 -30 114 -71 114c-56 0 -97 -15 -117 -136z" />
    <glyph glyph-name="colon" unicode=":" horiz-adv-x="333" 
d="M202 402c44 0 83 -37 83 -82c0 -46 -38 -82 -83 -82s-82 38 -82 82s38 82 82 82zM154 149c44 0 83 -37 83 -82c0 -46 -38 -82 -83 -82s-82 38 -82 82s38 82 82 82z" />
    <glyph glyph-name="semicolon" unicode=";" horiz-adv-x="333" 
d="M78 -185l-9 21c60 29 144 83 144 158c0 10 -7 26 -15 26c-6 0 -11 -9 -20 -17s-22 -18 -44 -18c-45 0 -66 31 -66 73c0 40 39 78 79 78c60 0 109 -48 109 -120c0 -97 -95 -170 -178 -201zM203 402c44 0 83 -37 83 -82c0 -46 -38 -82 -83 -82s-82 38 -82 82s38 82 82 82z
" />
    <glyph glyph-name="less" unicode="&#x3c;" horiz-adv-x="500" 
d="M486 47v-79l-472 215v78l472 217v-80l-393 -177z" />
    <glyph glyph-name="equal" unicode="=" horiz-adv-x="500" 
d="M29 331h443v-81h-443v81zM29 195h443v-81h-443v81z" />
    <glyph glyph-name="greater" unicode="&#x3e;" horiz-adv-x="500" 
d="M14 47l393 174l-393 177v80l472 -217v-78l-472 -215v79z" />
    <glyph glyph-name="question" unicode="?" horiz-adv-x="500" 
d="M185 206h-21c-1 24 1 48 2 72c9 129 80 146 174 207c25 16 43 46 43 76c0 66 -44 99 -108 99c-15 0 -79 -13 -79 -35c0 -7 13 -12 26 -21s26 -23 26 -49c0 -37 -27 -66 -65 -66c-46 0 -67 34 -67 76c0 36 36 73 65 92c26 17 67 26 98 26c101 0 186 -61 186 -167
c0 -63 -26 -106 -71 -147c-35 -32 -108 -62 -154 -83c-43 -20 -45 -35 -55 -80zM156 149c44 0 83 -37 83 -82c0 -46 -38 -82 -83 -82s-82 38 -82 82s38 82 82 82z" />
    <glyph glyph-name="at" unicode="@" horiz-adv-x="833" 
d="M524 408c9 42 -1 64 -26 64c-41 0 -127 -67 -156 -205c-14 -62 6 -77 36 -77c32 0 103 71 146 218zM560 459l20 40h86l-127 -264c-6 -11 -26 -61 27 -61c79 0 150 95 177 218c25 117 -39 264 -241 264c-163 0 -320 -107 -366 -323c-41 -186 63 -314 221 -314
c94 0 173 26 232 50l14 -28c-74 -28 -177 -56 -259 -56c-288 0 -335 209 -310 326c47 218 258 372 476 372c194 0 326 -124 289 -294c-19 -93 -116 -250 -257 -250c-70 0 -85 65 -78 78c-8 -10 -75 -65 -137 -69c-31 -1 -113 9 -85 139c31 143 167 225 244 225
c52 0 65 -28 74 -53z" />
    <glyph glyph-name="A" unicode="A" horiz-adv-x="611" 
d="M124 0h-177l7 30c22 0 40 8 58 26c19 19 61 82 100 149l279 478h37l70 -653h73l-7 -30h-304l7 30h69l-14 162h-181l-70 -118c-8 -13 -11 -19 -11 -25c0 -14 8 -19 22 -19h49zM297 459l-137 -237h158z" />
    <glyph glyph-name="B" unicode="B" horiz-adv-x="722" 
d="M365 638l-57 -275h88c31 0 61 10 77 32c22 30 42 137 42 174c0 52 -1 69 -97 69h-53zM384 0h-388l6 30h72l127 608h-76l7 30h317c197 0 232 -88 232 -148c0 -124 -127 -163 -226 -168v-2c90 -15 192 -49 192 -161c0 -98 -67 -155 -155 -177c-16 -4 -58 -12 -108 -12z
M300 333l-60 -303h66c82 0 120 9 137 53c12 31 34 135 34 174c0 44 -15 76 -101 76h-76z" />
    <glyph glyph-name="C" unicode="C" horiz-adv-x="667" 
d="M558 193l36 -7l-47 -186h-22l-31 39c-46 -39 -109 -54 -168 -54c-153 0 -265 104 -265 262c0 109 55 210 123 288c60 70 169 148 263 148c48 0 95 -24 131 -55l46 40h21l-28 -189l-36 4c-6 72 -39 170 -131 170c-42 0 -63 -10 -91 -40c-40 -44 -71 -172 -85 -232
c-21 -88 -42 -179 -42 -269c0 -82 33 -97 109 -97c109 0 172 90 217 178z" />
    <glyph glyph-name="D" unicode="D" horiz-adv-x="778" 
d="M275 0h-279l6 30h73l126 608h-76l7 30h302c164 0 310 -82 310 -284c0 -134 -74 -257 -184 -328c-96 -62 -177 -56 -285 -56zM369 638l-125 -608h69c40 0 77 3 115 17c65 24 102 149 116 211c14 64 36 196 36 259c0 108 -80 121 -137 121h-74z" />
    <glyph glyph-name="E" unicode="E" horiz-adv-x="667" 
d="M547 0h-551l6 30h73l125 608h-78l6 30h516l-27 -188h-36c-3 144 -59 158 -161 158h-53l-56 -273h30c23 0 79 17 115 115h36l-58 -279h-37c0 67 3 134 -72 134h-22l-61 -305h48c148 0 211 60 273 193h33z" />
    <glyph glyph-name="F" unicode="F" horiz-adv-x="611" 
d="M322 0h-328l6 30h75l125 608h-77l7 30h502l-30 -204h-35c7 142 -35 174 -149 174h-50l-59 -273h30c23 0 79 17 115 115h36l-58 -279h-37c0 67 3 134 -72 134h-22l-59 -305h87z" />
    <glyph glyph-name="G" unicode="G" horiz-adv-x="722" 
d="M590 629l50 39h19l-27 -189l-37 4c-10 82 -45 170 -140 170c-105 0 -146 -135 -168 -220c-25 -95 -52 -226 -52 -324c0 -69 27 -94 95 -94c54 0 106 5 126 125l12 71h-92l7 30h337l-7 -30h-76l-24 -93c-9 -33 -158 -133 -274 -133c-160 0 -278 87 -278 259
c0 122 62 237 147 319c64 62 147 120 239 120c53 0 101 -21 143 -54z" />
    <glyph glyph-name="H" unicode="H" horiz-adv-x="778" 
d="M203 638h-78l7 30h316l-7 -30h-75l-58 -282h206l57 282h-78l7 30h316l-7 -30h-74l-126 -608h79l-7 -30h-318l7 30h74l63 296h-204l-63 -296h77l-7 -30h-314l6 30h72z" />
    <glyph glyph-name="I" unicode="I" horiz-adv-x="444" 
d="M387 638l-127 -608h81l-7 -30h-318l7 30h70l125 608h-80l7 30h316l-7 -30h-67z" />
    <glyph glyph-name="J" unicode="J" horiz-adv-x="444" 
d="M116 -14l135 652h-92l7 30h331l-7 -30h-76l-110 -511c-38 -174 -110 -261 -249 -261c-69 0 -144 31 -144 111c0 38 33 75 71 75c43 0 71 -33 71 -75c0 -18 -8 -31 -15 -42s-16 -17 -16 -24c0 -11 16 -14 24 -15c17 -2 51 -2 70 90z" />
    <glyph glyph-name="K" unicode="K" horiz-adv-x="722" 
d="M525 638l7 30h228l-7 -30h-27c-28 0 -61 -21 -84 -41l-193 -168l186 -399h68l-7 -30h-318l7 30h78l-148 325l260 228c10 8 34 29 34 43c0 11 -18 12 -37 12h-47zM308 0h-312l6 30h73l125 608h-77l7 30h317l-7 -30h-75l-128 -608h78z" />
    <glyph glyph-name="L" unicode="L" 
d="M522 0h-533l7 30h72l128 608h-80l7 30h321l-6 -30h-77l-126 -608h55c122 0 191 69 249 190h37z" />
    <glyph glyph-name="M" unicode="M" horiz-adv-x="833" 
d="M795 638l-126 -608h79l-7 -30h-309l7 30h69l119 549l-2 2l-300 -581h-33l-72 583h-2l-98 -481c-14 -66 22 -72 47 -72h21l-7 -30h-189l7 30h23c24 0 45 11 51 37l109 505c9 39 2 66 -23 66h-48l7 30h249l49 -422l218 422h239l-7 -30h-71z" />
    <glyph glyph-name="N" unicode="N" horiz-adv-x="722" 
d="M88 104l99 466c8 36 9 68 -44 68h-30l7 30h225l218 -434l72 340c8 36 -11 64 -37 64h-35l6 30h190l-7 -30h-25c-23 0 -46 -18 -52 -46l-128 -607h-38l-290 576l-95 -481c-6 -32 10 -50 39 -50h30l-7 -30h-188l5 30h26c29 0 52 40 59 74z" />
    <glyph glyph-name="O" unicode="O" horiz-adv-x="778" 
d="M478 653c-66 0 -109 -12 -140 -71c-37 -70 -113 -321 -113 -471c0 -73 24 -96 101 -96c99 0 137 22 184 189c27 95 70 280 70 377c0 41 -21 72 -102 72zM469 683c160 0 275 -84 275 -261c0 -151 -98 -304 -223 -382c-29 -18 -113 -55 -189 -55c-123 0 -271 58 -271 270
c0 142 80 256 184 340c65 53 141 88 224 88z" />
    <glyph glyph-name="P" unicode="P" horiz-adv-x="667" 
d="M319 0h-325l6 30h74l126 608h-66l7 30h284c108 0 246 -23 246 -163c0 -96 -80 -156 -162 -178c-78 -21 -120 -24 -170 -24h-44l-57 -273h86zM366 638l-64 -305h43c70 0 98 13 115 51c22 50 38 138 38 194c0 58 -39 60 -87 60h-45z" />
    <glyph glyph-name="Q" unicode="Q" horiz-adv-x="778" 
d="M478 653c-66 0 -109 -12 -140 -71c-37 -70 -113 -321 -113 -471c0 -73 24 -96 101 -96c99 0 137 22 184 189c27 95 70 280 70 377c0 41 -21 72 -102 72zM241 -56v53c-96 26 -180 98 -180 258c0 142 80 256 184 340c65 53 141 88 224 88c160 0 275 -84 275 -261
c0 -151 -97 -305 -223 -382c-18 -11 -58 -30 -102 -42c-14 -139 23 -153 34 -160c45 -28 97 -11 148 -11l-7 -32c-85 -14 -105 -15 -172 -9c-95 9 -181 57 -181 158z" />
    <glyph glyph-name="R" unicode="R" horiz-adv-x="722" 
d="M311 0h-317l6 30h73l125 608h-75l7 30h316c98 0 237 -19 237 -149c0 -134 -158 -157 -258 -165v-2c106 -30 166 -60 170 -182c1 -25 3 -49 5 -74c2 -29 5 -59 40 -59c18 0 35 4 52 10l-3 -33c-25 -16 -77 -29 -106 -29c-111 0 -164 48 -164 208c0 44 -3 150 -67 150h-50
l-65 -313h81zM425 638h-62l-54 -265h52c34 0 74 4 101 26c36 30 51 137 51 182c0 57 -44 57 -88 57z" />
    <glyph glyph-name="S" unicode="S" 
d="M97 41l-57 -41h-26l32 201h35c7 -104 59 -186 170 -186c95 0 149 50 149 125c0 70 -64 94 -127 129c-147 83 -164 118 -164 190c0 120 74 224 200 224c59 0 97 -17 146 -49l42 34h26l-26 -183h-38c-1 21 -3 39 -7 58c-14 69 -71 110 -139 110c-51 0 -115 -28 -115 -88
c0 -68 74 -93 148 -129s148 -84 148 -200c0 -157 -109 -251 -236 -251c-59 0 -116 16 -161 56z" />
    <glyph glyph-name="T" unicode="T" horiz-adv-x="611" 
d="M662 668l-20 -202h-29c-1 126 -83 172 -129 172h-21l-127 -608h90l-7 -30h-339l7 30h81l131 608h-24c-83 0 -154 -80 -191 -172h-31l36 202h573z" />
    <glyph glyph-name="U" unicode="U" horiz-adv-x="722" 
d="M115 274l75 364h-78l7 30h317l-7 -30h-75l-85 -413c-35 -168 5 -210 101 -210c101 0 157 60 177 158l81 401c11 56 -10 64 -44 64h-25l7 30h191l-7 -30h-23c-35 0 -50 -21 -61 -72l-78 -367c-22 -105 -45 -167 -153 -202c-37 -12 -77 -12 -116 -12
c-145 0 -222 59 -222 167c0 25 8 73 18 122z" />
    <glyph glyph-name="V" unicode="V" horiz-adv-x="611" 
d="M58 638l7 30h311l-7 -30h-70l41 -419l225 380c16 27 6 39 -26 39h-42l5 30h186l-7 -30h-22c-17 0 -41 -27 -50 -42l-373 -611h-36l-62 653h-80z" />
    <glyph glyph-name="W" unicode="W" horiz-adv-x="889" 
d="M65 638l7 30h693l-7 -30h-17c-17 0 -31 1 -57 -35l-103 -142c-15 -21 -16 -13 -14 -35l17 -237l265 412c10 16 13 37 -16 37h-29l7 30h150l-7 -30h-19c-15 0 -35 -18 -44 -33l-394 -620h-35l-27 294l-208 -294h-36l-54 653h-72zM322 173l110 152l-23 313h-122zM552 638
l9 -151l81 113c19 26 14 38 2 38h-92z" />
    <glyph glyph-name="X" unicode="X" horiz-adv-x="667" 
d="M279 306l-138 332h-80l7 30h324l-7 -30h-72l85 -205l116 143c38 47 41 62 2 62h-47l7 30h206l-7 -30h-26c-33 0 -60 -19 -77 -40l-160 -200l154 -368h76l-7 -30h-321l7 30h74l-102 241l-133 -168c-34 -43 -62 -73 0 -73h45l-6 -30h-203l6 30h24c36 0 76 56 111 100z" />
    <glyph glyph-name="Y" unicode="Y" horiz-adv-x="611" 
d="M66 668h315l-7 -30h-82l110 -301l150 240c28 44 20 61 -16 61h-46l7 30h194l-7 -30h-19c-19 0 -46 -17 -58 -36l-192 -299c-2 -4 -6 -19 -9 -34l-46 -239h93l-7 -30h-346l6 30h86l55 278l-127 330h-61z" />
    <glyph glyph-name="Z" unicode="Z" horiz-adv-x="611" 
d="M81 480l63 188h469v-35l-414 -603h89c110 0 202 95 250 188h36l-72 -218h-497v33l416 605h-51c-116 0 -197 -53 -252 -158h-37z" />
    <glyph glyph-name="bracketleft" unicode="[" horiz-adv-x="389" 
d="M-4 -220l186 903h243l-5 -30h-136l-172 -843h135l-5 -30h-246z" />
    <glyph glyph-name="backslash" unicode="\" horiz-adv-x="606" 
d="M359 0l-266 683h88l266 -683h-88z" />
    <glyph glyph-name="bracketright" unicode="]" horiz-adv-x="389" 
d="M397 683l-186 -903h-243l5 30h136l172 843h-135l5 30h246z" />
    <glyph glyph-name="asciicircum" unicode="^" horiz-adv-x="500" 
d="M74 193h-79l215 472h77l218 -472h-80l-177 387z" />
    <glyph glyph-name="underscore" unicode="_" horiz-adv-x="500" 
d="M500 -75v-50h-500v50h500z" />
    <glyph glyph-name="quoteleft" unicode="&#x2018;" horiz-adv-x="278" 
d="M285 683l5 -23c-58 -17 -127 -64 -127 -131c0 -8 0 -30 12 -30c11 22 33 41 59 41c42 0 63 -28 63 -68s-40 -69 -78 -69c-65 0 -100 49 -100 111c0 88 87 151 166 169z" />
    <glyph glyph-name="a" unicode="a" 
d="M288 374c-17 0 -58 -10 -96 -160c-7 -28 -33 -138 -33 -159c0 -25 15 -42 40 -42c92 0 150 207 150 280c0 37 -19 81 -61 81zM370 327l21 69h111l-86 -322c-8 -31 7 -35 13 -35c34 0 74 79 87 107l21 -7c-29 -61 -70 -143 -147 -143c-48 0 -71 43 -79 85
c-33 -52 -74 -96 -140 -96c-86 0 -136 73 -136 154c0 108 73 210 171 249c19 8 39 14 59 14c51 0 85 -29 105 -75z" />
    <glyph glyph-name="b" unicode="b" 
d="M210 240l-36 -136c-20 -77 18 -91 54 -91c74 0 86 55 105 118c15 50 26 101 36 153c8 43 9 67 4 81c-5 13 -16 16 -32 16c-33 0 -102 -31 -131 -141zM181 645h-72l7 28h103c34 0 68 6 102 10l-92 -350l2 -2c30 42 70 78 125 78c89 0 150 -71 150 -160
c0 -91 -49 -163 -118 -216c-29 -22 -84 -48 -185 -48c-97 0 -174 59 -139 197z" />
    <glyph glyph-name="c" unicode="c" horiz-adv-x="500" 
d="M412 111l16 -14c-50 -67 -123 -112 -208 -112c-93 0 -173 70 -173 167c0 132 143 250 269 250c54 0 138 -23 138 -92c0 -37 -24 -64 -62 -64c-32 0 -58 22 -58 55c0 10 2 20 5 29c3 10 5 17 5 20c0 11 -12 24 -28 24c-28 0 -39 -4 -56 -26c-24 -31 -77 -203 -77 -288
c0 -34 26 -47 55 -47c71 0 132 43 174 98z" />
    <glyph glyph-name="d" unicode="d" 
d="M348 298c0 39 -17 76 -62 76c-46 0 -63 -50 -77 -85c-25 -64 -54 -217 -54 -243c0 -29 12 -33 39 -33c108 0 154 199 154 285zM366 343l62 302h-72l7 28h98c33 0 65 7 98 10l-131 -625c-5 -25 3 -32 15 -32c31 0 76 81 82 110l21 -8c-18 -68 -63 -143 -140 -143
c-57 0 -99 31 -97 91l-2 2c-26 -62 -73 -93 -141 -93c-80 0 -135 87 -135 162c0 124 118 255 241 255c47 0 77 -14 94 -59z" />
    <glyph glyph-name="e" unicode="e" horiz-adv-x="500" 
d="M274 163h-81c-6 -34 -17 -69 -17 -103c0 -36 21 -47 53 -47c86 0 154 45 204 113l16 -14c-56 -84 -137 -127 -237 -127c-94 0 -174 58 -174 158c0 135 147 259 276 259c63 0 147 -28 147 -106c0 -64 -44 -97 -100 -116c-27 -9 -58 -17 -87 -17zM200 191h58
c28 0 101 32 101 126c0 38 -14 57 -54 57c-30 0 -55 -14 -72 -71z" />
    <glyph glyph-name="f" unicode="f" horiz-adv-x="333" 
d="M121 368h-93l6 28h94c27 115 86 226 192 274c17 8 39 13 58 13c52 0 115 -26 115 -88c0 -39 -24 -59 -61 -59c-27 0 -55 18 -55 48c0 21 14 38 19 58c2 8 -5 13 -20 13c-96 0 -103 -187 -119 -259h112l-6 -28h-111c-23 -115 -46 -229 -84 -338
c-28 -85 -84 -237 -191 -237c-64 0 -95 45 -95 79c0 30 24 57 54 57c27 0 57 -15 57 -48c0 -22 -15 -46 -15 -54c0 -7 6 -6 11 -6c42 0 58 127 62 153z" />
    <glyph glyph-name="g" unicode="g" horiz-adv-x="500" 
d="M193 -24h-83c-41 0 -64 -49 -64 -84c0 -63 74 -71 122 -71c44 0 89 4 130 22c30 14 75 48 75 85c0 33 -33 34 -59 37c-40 5 -81 11 -121 11zM306 228l18 75c15 56 -1 71 -43 71c-37 0 -54 -14 -65 -66l-14 -68c-15 -72 4 -79 37 -79c41 0 53 8 67 67zM155 84h79
c43 0 88 0 131 -9c47 -10 63 -45 63 -90c0 -48 -20 -83 -52 -116c-60 -61 -155 -76 -235 -76c-81 0 -169 31 -169 105c0 50 50 80 94 90c-34 17 -54 45 -54 84c0 48 46 90 85 110c-14 19 -24 43 -24 67c0 54 46 107 93 129c26 12 72 24 108 24c64 0 117 -25 157 -76
c8 32 29 94 70 94c29 0 46 -15 46 -44c0 -24 -15 -39 -38 -39c-13 0 -29 11 -37 11c-16 0 -25 -39 -25 -50c0 -118 -103 -165 -207 -165c-42 0 -82 12 -118 32c-17 -12 -42 -19 -42 -44c0 -32 52 -37 75 -37z" />
    <glyph glyph-name="h" unicode="h" 
d="M16 0l152 645h-72l7 28h103c34 0 68 6 102 10l-94 -381l2 -2c49 63 88 102 173 102c52 0 91 -29 91 -77c0 -12 -6 -40 -14 -75l-48 -202c-2 -9 5 -17 16 -17c32 0 75 80 86 107l21 -8c-9 -21 -18 -41 -31 -59c-33 -45 -61 -75 -120 -75c-50 0 -110 15 -88 110l45 191
c6 25 11 50 11 60c0 8 -6 17 -15 17c-37 0 -76 -43 -97 -69c-34 -42 -54 -93 -66 -147l-35 -158h-129z" />
    <glyph glyph-name="i" unicode="i" horiz-adv-x="278" 
d="M104 368h-72l7 28h103c17 0 34 1 51 2s34 2 51 2l-79 -333c-6 -27 -9 -40 12 -40c34 0 75 81 87 110l21 -10c-33 -85 -73 -142 -169 -142c-42 0 -81 22 -81 56c0 15 7 47 14 79zM203 641c36 0 70 -27 70 -66c0 -40 -32 -72 -70 -72c-37 0 -64 35 -64 72c0 33 32 66 64 66
z" />
    <glyph glyph-name="j" unicode="j" horiz-adv-x="333" 
d="M44 -111l111 479h-72l7 28h103c17 0 34 1 51 2s34 2 51 2l-109 -436c-39 -156 -142 -184 -207 -184c-45 0 -100 21 -100 74c0 31 23 55 53 55c32 0 55 -18 55 -52c0 -16 -6 -24 -6 -38c0 -9 7 -11 14 -11c31 0 40 43 49 81zM326 579c0 -39 -31 -72 -70 -72
c-38 0 -64 36 -64 72c0 32 32 66 64 66c36 0 70 -27 70 -66z" />
    <glyph glyph-name="k" unicode="k" horiz-adv-x="500" 
d="M3 0l144 645h-72l7 28h103c34 0 68 6 102 10l-98 -435c20 11 44 14 66 14c47 62 77 151 167 151c39 0 63 -29 63 -67c0 -34 -25 -59 -58 -59c-24 0 -49 19 -49 44c0 7 7 24 7 33c0 5 -6 9 -10 9c-25 0 -77 -96 -94 -115c60 -10 103 -48 103 -113c0 -26 -3 -52 -9 -77
c-5 -21 -5 -34 12 -34c31 0 83 69 94 96l18 -7c-28 -65 -82 -127 -156 -127c-45 0 -97 21 -97 75c0 24 8 49 17 74c9 24 16 47 16 69c0 10 -2 21 -9 21c-5 0 -10 -8 -18 -16c-7 -7 -18 -15 -33 -15c-13 0 -27 4 -36 14l-50 -218h-130z" />
    <glyph glyph-name="l" unicode="l" horiz-adv-x="278" 
d="M158 645h-72l7 28h103c34 0 68 6 102 10l-142 -615c-3 -15 -9 -39 12 -41c36 -3 76 77 89 105l21 -11c-34 -79 -71 -136 -161 -136c-49 0 -88 29 -88 83c0 22 6 34 9 46z" />
    <glyph glyph-name="m" unicode="m" horiz-adv-x="778" 
d="M234 400l-26 -110l2 -2c44 54 91 114 167 114c75 0 101 -53 88 -121l2 -2c37 61 90 123 168 123c52 0 90 -29 90 -83c0 -14 -6 -43 -14 -73l-36 -138c-7 -27 -14 -52 -14 -57c0 -10 3 -17 15 -17c36 0 79 78 94 106l22 -9c-34 -68 -76 -135 -161 -135
c-67 0 -90 31 -90 69c0 19 7 43 15 75l48 192c7 27 -2 36 -9 36c-59 0 -142 -131 -165 -240l-27 -128h-130l75 320c7 28 12 48 -14 48c-17 0 -34 -16 -50 -32c-38 -38 -77 -96 -92 -156l-46 -180h-129l85 368h-72l7 28h99c33 0 65 4 98 4z" />
    <glyph glyph-name="n" unicode="n" 
d="M257 400l-30 -106l2 -2c46 52 88 110 165 110c44 0 112 -25 94 -104l-58 -248c-2 -10 8 -19 17 -19c33 0 77 75 88 102l17 -5c-33 -81 -69 -132 -161 -132c-51 0 -101 21 -81 104l52 212c10 42 -1 56 -13 56c-27 0 -58 -37 -76 -56c-49 -52 -60 -85 -76 -151l-38 -161
h-131l89 368h-72l7 28h103c34 0 68 4 102 4z" />
    <glyph glyph-name="o" unicode="o" 
d="M333 402c95 0 183 -69 183 -169c0 -112 -108 -213 -210 -238c-32 -8 -55 -10 -87 -10c-119 0 -177 81 -177 168c0 141 162 249 291 249zM322 374c-46 0 -75 -18 -90 -59c-14 -39 -54 -239 -54 -269c0 -31 37 -33 62 -33c39 0 64 4 78 41c21 53 62 217 62 272
c0 35 -22 48 -58 48z" />
    <glyph glyph-name="p" unicode="p" 
d="M339 374c-57 0 -98 -75 -117 -120c-19 -46 -31 -97 -31 -148c0 -43 19 -93 70 -93c31 0 44 29 56 54c34 70 71 218 71 275c0 24 -28 32 -49 32zM177 52l-53 -239h84l-5 -28h-285l5 28h70l122 555h-72l7 28h103c34 0 68 4 102 4c-11 -32 -21 -63 -30 -93l2 -2
c24 50 72 97 131 97c93 0 156 -65 156 -158c0 -151 -141 -259 -221 -259c-56 0 -86 18 -116 67z" />
    <glyph glyph-name="q" unicode="q" 
d="M300 374c-42 0 -58 -39 -71 -72c-29 -73 -60 -227 -60 -251s6 -38 33 -38c110 0 165 186 165 275c0 36 -24 86 -67 86zM383 325l19 71h128l-139 -583h68l-5 -28h-257l6 28h64l58 259h-2c-29 -48 -82 -87 -141 -87c-86 0 -139 74 -139 156c0 110 109 261 239 261
c55 0 81 -28 101 -77z" />
    <glyph glyph-name="r" unicode="r" horiz-adv-x="389" 
d="M256 400l-29 -105l2 -2c28 37 71 109 126 109c37 0 57 -23 57 -59s-19 -60 -56 -60c-21 0 -32 11 -40 21c-8 11 -12 21 -22 21c-17 0 -44 -41 -51 -53c-24 -41 -32 -61 -44 -109l-40 -163h-128l85 368h-72l7 28h103c34 0 68 4 102 4z" />
    <glyph glyph-name="s" unicode="s" horiz-adv-x="389" 
d="M220 112l-114 88c-35 27 -32 54 -32 71c0 62 58 131 160 131c44 0 117 -19 117 -76c0 -25 -18 -50 -45 -50c-29 0 -48 14 -53 43c-1 6 3 30 5 39c3 12 -31 16 -39 16c-23 0 -63 -5 -63 -35c0 -18 7 -24 20 -33l100 -74c34 -25 60 -55 60 -101c0 -97 -82 -146 -169 -146
c-55 0 -147 19 -147 91c0 34 25 59 59 59c29 0 51 -24 51 -53c0 -17 -13 -37 -13 -49c0 -18 40 -20 55 -20c30 0 80 6 80 47c0 22 -15 39 -32 52z" />
    <glyph glyph-name="t" unicode="t" horiz-adv-x="333" 
d="M58 390h62l28 114c42 1 84 2 126 4l-26 -118h70l-5 -28h-72l-71 -292c-8 -33 0 -40 13 -40c42 0 87 72 91 110l22 -6c-16 -84 -73 -138 -161 -138c-41 0 -90 21 -90 69c0 12 7 42 14 72l53 225h-60z" />
    <glyph glyph-name="u" unicode="u" 
d="M317 161l59 235h129l-79 -352c-2 -11 1 -18 12 -18c36 0 77 72 87 101l21 -5c-22 -76 -72 -137 -157 -137c-39 0 -83 18 -83 64c0 19 5 39 7 58l-2 2c-41 -68 -86 -124 -173 -124c-40 0 -98 21 -98 69c0 6 2 16 5 28l67 286h-72l7 28h103c17 0 34 1 51 2s34 2 51 2
l-82 -333c-5 -21 -15 -47 14 -47c35 0 74 47 93 73c11 15 36 51 40 68z" />
    <glyph glyph-name="v" unicode="v" horiz-adv-x="444" 
d="M240 295l-32 -132c-11 -45 -22 -88 -22 -97c0 -20 21 -35 40 -35c90 0 161 171 161 249c0 5 -5 10 -13 10c-7 0 -15 -2 -22 -2c-32 0 -57 22 -57 56s24 58 58 58c49 0 73 -48 73 -92c0 -84 -57 -209 -116 -268c-33 -33 -86 -57 -144 -57c-54 0 -106 33 -106 93
c0 18 6 39 13 68l35 143c7 28 12 56 12 66c0 7 -9 9 -14 9c-31 0 -74 -79 -82 -105l-23 5c20 63 69 138 143 138c76 0 108 -57 96 -107z" />
    <glyph glyph-name="w" unicode="w" horiz-adv-x="667" 
d="M497 396l-46 -192c-10 -39 -14 -70 -14 -112c0 -25 6 -65 39 -65c59 0 136 138 136 231c0 10 3 35 -14 35c-6 0 -13 2 -20 2c-34 0 -48 25 -48 52c0 28 27 55 54 55c51 0 67 -46 63 -97c-16 -205 -113 -320 -218 -320c-55 0 -103 40 -103 124c0 25 5 50 7 73l-2 2
c-33 -69 -76 -168 -155 -194c-12 -4 -25 -5 -43 -5c-45 0 -94 28 -94 78c0 10 8 41 17 72l44 149c7 23 13 44 13 55c0 8 -6 13 -13 13c-27 0 -67 -74 -80 -96l-20 14c30 52 77 132 146 132c58 0 84 -42 84 -87c0 -17 -4 -36 -9 -53l-53 -194c-12 -43 3 -42 13 -42
c38 0 87 84 103 113c27 49 53 112 66 167l21 90h126z" />
    <glyph glyph-name="x" unicode="x" horiz-adv-x="500" 
d="M78 241l-21 8c26 62 69 153 148 153c67 0 81 -68 94 -120c26 38 70 120 123 120c32 0 58 -20 58 -54c0 -36 -21 -55 -55 -55c-11 0 -23 6 -33 12s-18 11 -22 11c-24 -3 -63 -62 -60 -78l34 -150c6 -25 8 -48 28 -48c22 0 65 78 72 99l22 -7c-24 -65 -71 -147 -150 -147
c-84 0 -96 85 -111 149c-32 -56 -68 -149 -146 -149c-35 0 -52 31 -52 63c0 27 24 53 52 53c20 0 37 -11 46 -16c7 -4 16 -11 19 -11c13 0 61 58 72 93l-37 158c-1 4 -6 10 -11 10c-28 0 -58 -74 -70 -94z" />
    <glyph glyph-name="y" unicode="y" horiz-adv-x="500" 
d="M256 324l53 -185l67 182c12 31 25 81 66 81c29 0 46 -21 46 -49c0 -26 -12 -56 -42 -56c-7 0 -19 8 -27 9c-16 3 -26 -29 -30 -40l-104 -268c-33 -84 -96 -213 -201 -213c-39 0 -71 28 -71 68c0 34 23 61 58 61c32 0 60 -22 53 -54c-4 -18 6 -23 16 -23
c22 0 82 84 87 106c2 8 4 16 4 24c0 16 -8 37 -13 53l-82 243c-5 15 -13 61 -33 61c-22 0 -53 -62 -62 -78l-22 9c21 56 77 147 145 147c33 0 71 -4 92 -78z" />
    <glyph glyph-name="z" unicode="z" horiz-adv-x="444" 
d="M86 106l236 191l-2 2c-47 -18 -100 -30 -152 -30c-26 0 -50 4 -75 11c-9 -20 -19 -40 -30 -59l-21 11l80 170c69 -29 141 -45 216 -45c14 0 30 0 32 11c4 20 14 34 34 34c11 0 16 -12 16 -21c0 -32 -34 -62 -57 -80l-231 -189l2 -2c24 5 51 6 78 6c25 0 52 -7 76 -14
c23 -7 44 -14 56 -14c17 0 35 7 35 27c0 12 -17 6 -24 6c-25 0 -42 15 -42 41c0 24 17 42 42 42c43 0 52 -36 52 -72c0 -75 -69 -147 -145 -147c-37 0 -67 12 -94 24c-26 12 -49 25 -72 25c-17 0 -13 -10 -13 -21c0 -17 -8 -25 -25 -28c-20 -3 -32 18 -32 36
c0 29 22 54 60 85z" />
    <glyph glyph-name="braceleft" unicode="{" horiz-adv-x="333" 
d="M81 -78l40 194c7 34 12 54 -1 80c-9 21 -25 32 -44 37l1 2c62 16 79 47 93 115l36 174c8 40 20 92 52 122c42 40 94 37 136 37l-1 -3c-55 -18 -79 -54 -92 -119l-38 -182c-16 -76 -36 -128 -105 -144l-1 -2c60 -17 62 -63 47 -135l-40 -196c-14 -66 -7 -101 43 -120
l-1 -2c-43 0 -81 -5 -114 25c-27 29 -21 72 -11 117z" />
    <glyph glyph-name="bar" unicode="|" horiz-adv-x="606" 
d="M240 -250v1000h81v-1000h-81z" />
    <glyph glyph-name="braceright" unicode="}" horiz-adv-x="333" 
d="M313 541l-40 -194c-7 -34 -12 -54 1 -80c9 -21 25 -32 44 -37l-1 -2c-62 -16 -79 -47 -93 -115l-36 -174c-8 -40 -20 -92 -52 -122c-42 -40 -94 -37 -136 -37l1 3c55 18 79 54 92 119l38 182c16 76 36 128 105 144l1 2c-60 17 -62 63 -47 135l40 196c14 66 7 101 -43 120
l1 2c43 0 81 5 114 -25c27 -29 21 -72 11 -117z" />
    <glyph glyph-name="asciitilde" unicode="~" horiz-adv-x="500" 
d="M446 301l63 -40c-36 -51 -72 -104 -142 -104c-32 0 -58 10 -88 21l-42 16c-23 9 -53 22 -77 22c-45 0 -65 -40 -87 -73l-62 41c34 55 76 109 147 109c37 0 77 -15 113 -29c37 -14 71 -29 96 -29c38 0 60 39 79 66z" />
    <glyph glyph-name="exclamdown" unicode="&#xa1;" horiz-adv-x="389" 
d="M190 242h30c-17 -73 -26 -150 -26 -225c0 -49 4 -97 4 -146c0 -55 -34 -91 -88 -91c-44 0 -67 34 -67 75c0 16 8 33 15 47l48 98c24 50 42 107 84 242zM231 462c44 0 83 -37 83 -82c0 -46 -38 -82 -83 -82s-82 38 -82 82s38 82 82 82z" />
    <glyph glyph-name="cent" unicode="&#xa2;" horiz-adv-x="611" 
d="M249 26l131 267c-1 5 -2 11 -2 16c0 21 17 34 17 38c0 17 -17 29 -32 29c-77 0 -133 -203 -133 -315c0 -17 8 -28 19 -35zM427 390l57 115h40l-64 -130c24 -13 41 -35 41 -66c0 -37 -22 -64 -61 -64c-15 0 -28 4 -37 13l-118 -241h1c70 0 132 40 173 95l17 -14
c-50 -65 -122 -110 -206 -111l-61 -125h-40l63 129c-77 14 -137 77 -137 161c0 117 125 248 268 248c19 0 42 -3 64 -10z" />
    <glyph glyph-name="sterling" unicode="&#xa3;" horiz-adv-x="611" 
d="M126 131c-35 0 -66 -24 -73 -60c-8 -39 13 -58 51 -58c37 0 78 23 104 54c-14 40 -35 64 -82 64zM187 325h-95l10 50h85c1 24 4 48 9 72c32 153 166 218 270 218c86 0 186 -41 165 -142c-9 -43 -46 -78 -89 -78c-39 0 -68 25 -59 68c4 23 19 38 32 51c14 13 26 24 29 38
c6 26 -42 33 -60 33c-99 0 -135 -40 -121 -169c4 -35 8 -70 8 -91h113l-10 -50h-109c1 -18 -3 -36 -7 -54c-10 -50 -36 -102 -68 -147c26 -7 56 -10 85 -10c100 0 142 39 175 136h31c-35 -167 -113 -265 -236 -265c-48 0 -88 23 -118 54c-39 -32 -88 -54 -134 -54
c-56 0 -99 25 -86 86c11 55 69 94 121 94c43 0 77 -25 97 -29c6 27 4 62 -19 134c-6 19 -13 37 -19 55z" />
    <glyph glyph-name="fraction" unicode="&#x2044;" horiz-adv-x="167" 
d="M333 665l-448 -665h-53l448 665h53z" />
    <glyph glyph-name="yen" unicode="&#xa5;" horiz-adv-x="611" 
d="M280 635l88 -270l166 244c10 15 -2 26 -21 26h-53l6 30h191l-6 -30h-34c-25 0 -36 -5 -69 -55l-173 -255l-10 -47h122l-9 -44h-122l-9 -44h122l-10 -44h-122l-24 -116h80l-6 -30h-307l6 30h76l24 116h-121l10 44h121l9 44h-121l9 44h121l4 22l-103 335h-56l6 30h288
l-6 -30h-67z" />
    <glyph glyph-name="florin" unicode="&#x192;" horiz-adv-x="611" 
d="M366 353l-29 -169c-21 -123 -65 -263 -158 -351c-37 -35 -92 -57 -147 -53c-50 4 -87 30 -94 85c-4 32 30 61 60 61c31 0 58 -18 58 -52c0 -24 -20 -43 -20 -51c0 -12 12 -15 23 -15c54 0 81 55 98 123c17 67 22 147 31 195l41 227h-111l7 28h112c25 120 129 284 262 284
c51 0 112 -29 112 -87c0 -36 -26 -59 -61 -59c-33 0 -56 25 -56 57c0 11 4 19 8 27c11 22 10 34 -14 34c-94 0 -100 -189 -115 -256h120l-6 -28h-121z" />
    <glyph glyph-name="section" unicode="&#xa7;" horiz-adv-x="500" 
d="M248 28c-38 33 -119 112 -147 152c-22 32 -27 63 -19 106c16 77 74 127 150 120l2 10c-38 41 -67 75 -53 142c19 93 110 125 170 125c54 0 131 -32 118 -96c-7 -33 -34 -63 -70 -63c-30 0 -51 24 -45 54c5 23 30 37 47 52c3 2 6 9 4 15c-6 14 -31 20 -49 20
c-46 0 -92 -25 -102 -74c-9 -41 19 -68 120 -158c71 -63 86 -136 77 -179c-16 -74 -72 -120 -146 -118l-2 -10c37 -32 65 -79 53 -135c-19 -92 -106 -131 -188 -131c-57 0 -134 31 -120 99c9 41 34 62 75 62c28 0 49 -22 43 -51c-8 -37 -49 -44 -52 -58
c-5 -23 44 -32 61 -32c48 0 90 22 100 74c7 33 -5 55 -27 74zM226 387c-35 0 -66 -29 -73 -63c-9 -47 44 -93 70 -120c28 -29 54 -49 80 -49c36 0 68 29 76 64c7 34 -19 62 -37 84c-25 29 -72 84 -116 84z" />
    <glyph glyph-name="currency" unicode="&#xa4;" horiz-adv-x="611" 
d="M92 153l36 37c-26 39 -39 76 -39 124c0 49 11 87 39 127l-36 36l50 52l37 -37c38 28 83 40 130 40c46 0 85 -14 123 -40l37 37l51 -52l-37 -36c28 -42 39 -81 39 -131c0 -47 -14 -82 -39 -120l37 -37l-51 -51l-37 37c-38 -27 -84 -41 -130 -41s-86 15 -123 41l-37 -37z
M308 188c69 0 124 61 124 128s-55 126 -123 126c-74 0 -130 -54 -130 -129c0 -72 59 -125 129 -125z" />
    <glyph glyph-name="quotesingle" unicode="'" horiz-adv-x="250" 
d="M255 579l-51 -138c-6 -15 -13 -44 -34 -44c-20 0 -19 21 -18 36l15 178c3 36 26 72 68 72c21 0 40 -13 37 -37c-4 -35 -10 -50 -17 -67z" />
    <glyph glyph-name="quotedblleft" unicode="&#x201c;" 
d="M256 683l5 -23c-58 -17 -127 -64 -127 -131c0 -8 0 -30 12 -30c11 22 33 41 59 41c42 0 63 -28 63 -68s-40 -69 -78 -69c-65 0 -100 49 -100 111c0 88 87 151 166 169zM525 683l5 -23c-58 -17 -127 -64 -127 -131c0 -8 0 -30 12 -30c11 22 33 41 59 41
c42 0 63 -28 63 -68s-40 -69 -78 -69c-65 0 -100 49 -100 111c0 88 87 151 166 169z" />
    <glyph glyph-name="guillemotleft" unicode="&#xab;" horiz-adv-x="500" 
d="M242 222l168 125c7 5 13 11 20 11c6 0 8 -3 8 -9c0 -13 -14 -35 -36 -57l-87 -91l39 -69c16 -28 28 -56 28 -69c0 -5 -4 -9 -9 -9c-8 0 -19 10 -30 22l-103 113c-5 6 -16 13 -16 18s12 10 18 15zM104 222l168 125c7 5 13 11 20 11c6 0 8 -3 8 -9c0 -13 -14 -35 -36 -57
l-87 -91l39 -69c16 -28 28 -56 28 -69c0 -5 -4 -9 -9 -9c-8 0 -19 10 -30 22l-103 113c-5 6 -16 13 -16 18s12 10 18 15z" />
    <glyph glyph-name="guilsinglleft" unicode="&#x2039;" horiz-adv-x="333" 
d="M76 222l168 125c7 5 13 11 20 11c6 0 8 -3 8 -9c0 -13 -14 -35 -36 -57l-87 -91l39 -69c16 -28 28 -56 28 -69c0 -5 -4 -9 -9 -9c-8 0 -19 10 -30 22l-103 113c-5 6 -16 13 -16 18s12 10 18 15z" />
    <glyph glyph-name="guilsinglright" unicode="&#x203a;" horiz-adv-x="333" 
d="M257 190l-168 -125c-7 -5 -13 -11 -20 -11c-6 0 -8 3 -8 9c0 13 14 35 36 57l87 91l-39 69c-16 28 -28 56 -28 69c0 5 4 9 9 9c8 0 19 -10 30 -22l103 -113c5 -6 16 -13 16 -18s-12 -10 -18 -15z" />
    <glyph glyph-name="endash" unicode="&#x2013;" horiz-adv-x="500" 
d="M0 150l20 102h500l-20 -102h-500z" />
    <glyph glyph-name="dagger" unicode="&#x2020;" horiz-adv-x="500" 
d="M192 -159h-30c28 153 57 292 31 421c48 52 84 112 91 174c-20 0 -66 -11 -93 -27c-15 -9 -43 -17 -56 -17c-32 0 -46 25 -40 55s30 55 62 55c13 0 39 -8 50 -17c21 -16 61 -27 81 -27c10 37 12 61 3 96c-6 24 -16 50 -11 75c7 36 39 54 72 54s57 -18 50 -54
c-5 -25 -27 -51 -43 -75c-23 -35 -31 -59 -37 -96c20 0 66 11 93 27c15 9 43 17 56 17c32 0 46 -25 40 -55s-30 -55 -62 -55c-13 0 -39 8 -50 17c-21 16 -61 27 -81 27c-19 -62 -9 -122 17 -174c-78 -129 -107 -268 -143 -421z" />
    <glyph glyph-name="daggerdbl" unicode="&#x2021;" horiz-adv-x="500" 
d="M191 409c-15 -9 -43 -17 -56 -17c-32 0 -46 25 -40 55s30 55 62 55c13 0 39 -8 50 -17c21 -16 61 -27 81 -27c10 37 12 61 3 96c-6 24 -16 50 -11 75c7 36 39 54 72 54s57 -18 50 -54c-5 -25 -27 -51 -43 -75c-23 -35 -31 -59 -37 -96c20 0 66 11 93 27c15 9 43 17 56 17
c32 0 46 -25 40 -55s-30 -55 -62 -55c-13 0 -39 8 -50 17c-21 16 -61 27 -81 27c-19 -62 -9 -122 17 -174c-47 -52 -83 -112 -90 -174c20 0 66 11 93 27c15 9 43 17 56 17c32 0 46 -25 40 -55s-30 -55 -62 -55c-13 0 -39 8 -50 17c-21 16 -61 27 -81 27
c-10 -37 -12 -61 -3 -96c6 -24 16 -50 11 -75c-7 -36 -39 -54 -72 -54s-57 18 -50 54c5 25 27 51 43 75c23 35 31 59 37 96c-20 0 -66 -11 -93 -27c-15 -9 -43 -17 -56 -17c-32 0 -46 25 -40 55s30 55 62 55c13 0 39 -8 50 -17c21 -16 61 -27 81 -27c19 62 9 122 -18 174
c48 52 84 112 91 174c-20 0 -66 -11 -93 -27z" />
    <glyph glyph-name="periodcentered" unicode="&#xb7;" horiz-adv-x="333" 
d="M153 304c44 0 83 -37 83 -82c0 -46 -38 -82 -83 -82s-82 38 -82 82s38 82 82 82z" />
    <glyph glyph-name="paragraph" unicode="&#xb6;" 
d="M604 683l-20 -68h-76l-221 -754h-60l221 754h-77l-221 -755h-60l113 384c-15 4 -121 3 -130 140c-11 179 172 299 268 299h263z" />
    <glyph glyph-name="bullet" unicode="&#x2022;" horiz-adv-x="606" 
d="M138 334c0 85 78 155 172 155s172 -70 172 -155s-78 -155 -172 -155s-172 70 -172 155z" />
    <glyph glyph-name="quotesinglbase" unicode="&#x201a;" horiz-adv-x="278" 
d="M51 -158l-5 23c58 17 127 64 127 131c0 8 0 30 -12 30c-11 -22 -33 -41 -59 -41c-42 0 -63 28 -63 68s40 69 78 69c65 0 100 -49 100 -111c0 -88 -87 -151 -166 -169z" />
    <glyph glyph-name="quotedblbase" unicode="&#x201e;" 
d="M323 -158l-5 23c58 17 127 64 127 131c0 8 0 30 -12 30c-5 -11 -14 -21 -24 -29c-10 -7 -22 -12 -35 -12c-42 0 -63 28 -63 68s40 69 78 69c65 0 100 -49 100 -111c0 -88 -87 -151 -166 -169zM51 -158l-5 23c58 17 127 64 127 131c0 8 0 30 -12 30
c-5 -11 -14 -21 -24 -29c-10 -7 -22 -12 -35 -12c-42 0 -63 28 -63 68s40 69 78 69c65 0 100 -49 100 -111c0 -88 -87 -151 -166 -169z" />
    <glyph glyph-name="quotedblright" unicode="&#x201d;" 
d="M427 403l-5 23c58 17 127 64 127 131c0 8 0 30 -12 30c-11 -22 -33 -41 -59 -41c-42 0 -63 28 -63 68s40 69 78 69c65 0 100 -49 100 -111c0 -88 -87 -151 -166 -169zM155 403l-5 23c58 17 127 64 127 131c0 8 0 30 -12 30c-11 -22 -33 -41 -59 -41c-42 0 -63 28 -63 68
s40 69 78 69c65 0 100 -49 100 -111c0 -88 -87 -151 -166 -169z" />
    <glyph glyph-name="guillemotright" unicode="&#xbb;" horiz-adv-x="500" 
d="M242 190l-168 -125c-7 -5 -13 -11 -20 -11c-6 0 -8 3 -8 9c0 13 14 35 36 57l87 91l-39 69c-16 28 -28 56 -28 69c0 5 4 9 9 9c8 0 19 -10 30 -22l103 -113c5 -6 16 -13 16 -18s-12 -10 -18 -15zM404 190l-168 -125c-7 -5 -13 -11 -20 -11c-6 0 -8 3 -8 9
c0 13 14 35 36 57l87 91l-39 69c-16 28 -28 56 -28 69c0 5 4 9 9 9c8 0 19 -10 30 -22l103 -113c5 -6 16 -13 16 -18s-12 -10 -18 -15z" />
    <glyph glyph-name="ellipsis" unicode="&#x2026;" horiz-adv-x="1000" 
d="M166 149c44 0 83 -37 83 -82c0 -46 -38 -82 -83 -82s-82 38 -82 82s38 82 82 82zM499 149c44 0 83 -37 83 -82c0 -46 -38 -82 -83 -82s-82 38 -82 82s38 82 82 82zM832 149c44 0 83 -37 83 -82c0 -46 -38 -82 -83 -82s-82 38 -82 82s38 82 82 82z" />
    <glyph glyph-name="perthousand" unicode="&#x2030;" horiz-adv-x="1000" 
d="M696 125c0 99 85 208 189 208c75 0 110 -48 110 -120c0 -51 -14 -102 -40 -146c-28 -47 -72 -85 -130 -85c-87 0 -129 62 -129 143zM911 300c-71 0 -117 -168 -117 -225c0 -37 11 -60 50 -65c20 -3 56 16 89 69c19 30 37 99 37 135s-13 86 -59 86zM464 -18
c-86 0 -130 62 -130 143c0 98 87 208 190 208c75 0 110 -48 110 -120c0 -61 -22 -131 -62 -177c-27 -31 -65 -54 -108 -54zM550 300c-71 0 -117 -168 -117 -225c0 -38 11 -60 50 -65c44 -6 126 91 126 204c0 36 -14 86 -59 86zM542 701h25l-445 -751h-49l398 670l-2 2
c-28 -25 -73 -38 -111 -38c-18 0 -40 6 -57 13c18 -106 -40 -275 -168 -275c-82 0 -126 65 -126 142c0 124 108 210 190 210c42 0 60 -15 78 -30c19 -15 38 -30 84 -30c66 0 127 40 149 77c8 14 26 10 34 10zM104 419c0 -36 11 -66 52 -66c79 0 122 138 122 202
c0 17 -2 33 -8 49c-22 8 -46 20 -61 30c-44 6 -105 -120 -105 -215z" />
    <glyph glyph-name="questiondown" unicode="&#xbf;" horiz-adv-x="500" 
d="M302 256h21c2 -115 -7 -184 -116 -242c-34 -18 -64 -31 -87 -63c-11 -15 -16 -36 -16 -55c0 -62 51 -92 108 -92c24 0 52 6 70 22c6 4 15 13 6 19c-27 15 -48 29 -48 63c0 38 25 66 64 66c42 0 68 -32 68 -73c0 -50 -69 -121 -164 -121c-100 0 -186 63 -186 168
c0 87 65 153 122 179c35 16 70 32 104 49c41 20 46 36 54 80zM331 462c44 0 83 -37 83 -82c0 -46 -38 -82 -83 -82s-82 38 -82 82s38 82 82 82z" />
    <glyph glyph-name="grave" unicode="`" horiz-adv-x="333" 
d="M186 498l-137 88c-20 13 -41 26 -41 53c0 24 20 44 44 44c45 0 71 -43 98 -74l97 -111h-61z" />
    <glyph glyph-name="acute" unicode="&#xb4;" horiz-adv-x="333" 
d="M285 586l-137 -88h-61l97 111c27 31 53 74 98 74c24 0 44 -20 44 -44c0 -27 -21 -40 -41 -53z" />
    <glyph glyph-name="circumflex" unicode="&#x2c6;" horiz-adv-x="333" 
d="M102 494l157 174h93l87 -174l-3 -2h-56l-90 98l-136 -98h-51z" />
    <glyph glyph-name="tilde" unicode="&#x2dc;" horiz-adv-x="333" 
d="M307 663h43c-15 -64 -46 -126 -121 -126c-31 0 -59 12 -85 24c-25 12 -49 24 -72 24c-21 0 -41 -22 -45 -47h-42c9 63 47 125 118 125c28 0 57 -12 83 -24c27 -13 51 -25 69 -25c31 0 42 24 52 49z" />
    <glyph glyph-name="macron" unicode="&#xaf;" horiz-adv-x="333" 
d="M332 596h-331v72h331v-72z" />
    <glyph glyph-name="breve" unicode="&#x2d8;" horiz-adv-x="333" 
d="M154 668h44c-4 -61 32 -87 91 -87c58 0 103 30 124 87h44c-22 -93 -86 -163 -185 -163s-139 68 -118 163z" />
    <glyph glyph-name="dotaccent" unicode="&#x2d9;" horiz-adv-x="333" 
d="M165 533c-34 0 -62 32 -62 65c0 34 28 65 62 65c35 0 65 -29 65 -65s-29 -65 -65 -65z" />
    <glyph glyph-name="dieresis" unicode="&#xa8;" horiz-adv-x="333" 
d="M271 533c-34 0 -62 32 -62 65c0 34 28 65 62 65c35 0 65 -29 65 -65s-29 -65 -65 -65zM60 533c-34 0 -62 32 -62 65c0 34 28 65 62 65c35 0 65 -29 65 -65s-29 -65 -65 -65z" />
    <glyph glyph-name="ring" unicode="&#x2da;" horiz-adv-x="333" 
d="M166 470c-59 0 -106 49 -106 107c0 57 48 106 106 106s107 -47 107 -106c0 -60 -48 -107 -107 -107zM166 634c-31 0 -58 -26 -58 -57s27 -58 58 -58s59 28 59 58c0 31 -28 57 -59 57z" />
    <glyph glyph-name="cedilla" unicode="&#xb8;" horiz-adv-x="333" 
d="M103 -104l-10 8l42 96h42l-28 -64c11 4 23 5 35 5c48 0 87 -21 87 -74c0 -70 -86 -85 -139 -85c-25 0 -65 9 -88 18l16 37c25 -11 45 -13 72 -13c23 0 45 16 45 40c0 25 -21 36 -43 36c-10 0 -21 -1 -31 -4z" />
    <glyph glyph-name="hungarumlaut" unicode="&#x2dd;" horiz-adv-x="333" 
d="M145 586l-137 -88h-61l97 111c27 31 53 74 98 74c24 0 44 -20 44 -44c0 -27 -21 -40 -41 -53zM346 586l-137 -88h-61l97 111c27 31 53 74 98 74c24 0 44 -20 44 -44c0 -27 -21 -40 -41 -53z" />
    <glyph glyph-name="ogonek" unicode="&#x2db;" horiz-adv-x="333" 
d="M252 -66l18 -30c-12 -12 -27 -22 -43 -32c-23 -14 -59 -17 -90 -15c-30 2 -57 15 -69 48c-18 50 30 95 105 95h49l-6 -11l-31 -6c-22 -4 -37 -25 -33 -47c3 -17 26 -25 44 -27c20 -2 38 13 56 25z" />
    <glyph glyph-name="caron" unicode="&#x2c7;" horiz-adv-x="333" 
d="M314 492h-93l-85 174l3 2h53l92 -99l132 99h56l1 -2z" />
    <glyph glyph-name="emdash" unicode="&#x2014;" horiz-adv-x="1000" 
d="M0 150l20 102h1000l-20 -102h-1000z" />
    <glyph glyph-name="AE" unicode="&#xc6;" horiz-adv-x="944" 
d="M256 330h163l66 308h-34zM234 300l-148 -238c-13 -21 11 -32 26 -32h38l-6 -30h-162l7 30c41 0 77 58 101 96l224 358c81 129 20 154 -24 154h-31l7 30h657l-27 -188h-36c-3 144 -59 158 -161 158h-53l-55 -273h30c23 0 79 17 115 115h36l-58 -279h-37
c0 67 3 134 -72 134h-22l-60 -305h48c148 0 211 60 273 193h33l-49 -223h-549l7 30h73l54 270h-179z" />
    <glyph glyph-name="ordfeminine" unicode="&#xaa;" horiz-adv-x="334" 
d="M247 666c-11 0 -38 -6 -62 -96c-5 -16 -22 -82 -22 -95c0 -15 10 -25 26 -25c60 0 98 124 98 168c0 22 -13 48 -40 48zM300 638l14 42h72l-56 -194c-5 -18 5 -21 9 -21c22 0 48 48 56 65l14 -5c-19 -36 -46 -85 -96 -85c-31 0 -46 25 -51 51c-21 -32 -48 -58 -91 -58
c-56 0 -88 44 -88 92c0 65 47 126 111 150c12 5 25 8 38 8c33 0 55 -17 68 -45z" />
    <glyph glyph-name="Lslash" unicode="&#x141;" 
d="M306 374l-71 -344h55c122 0 191 69 249 190h37l-54 -220h-533l7 30h72l60 283l-78 -27l-13 32l99 34l60 286h-80l7 30h321l-6 -30h-77l-47 -226l108 36l12 -30z" />
    <glyph glyph-name="Oslash" unicode="&#xd8;" horiz-adv-x="778" 
d="M225 99l348 516c-12 23 -39 38 -95 38c-66 0 -109 -12 -140 -71c-37 -70 -113 -321 -113 -483zM602 659l52 77h50l-65 -96c65 -42 105 -114 105 -218c0 -151 -98 -304 -223 -382c-29 -18 -113 -55 -189 -55c-39 0 -81 6 -119 21l-75 -111h-50l87 129
c-65 38 -114 109 -114 231c0 142 80 256 184 340c65 53 141 88 224 88c50 0 95 -8 133 -24zM580 550l-341 -505c15 -22 41 -30 87 -30c99 0 137 22 184 189c24 86 70 244 70 346z" />
    <glyph glyph-name="OE" unicode="&#x152;" horiz-adv-x="972" 
d="M908 0h-436c-134 0 -301 -22 -382 114c-40 67 -63 187 34 347c55 91 172 207 367 207h515l-27 -188h-36c-3 144 -59 158 -161 158h-53l-57 -273h30c23 0 79 17 115 115h36l-58 -279h-37c0 67 3 134 -72 134h-22l-61 -305h48c148 0 211 60 273 193h33zM330 30
c54 0 108 9 136 136l72 328c31 140 -36 144 -82 144c-79 0 -144 -41 -194 -262c-16 -70 -42 -198 -42 -268c0 -65 58 -78 110 -78z" />
    <glyph glyph-name="ordmasculine" unicode="&#xba;" horiz-adv-x="334" 
d="M293 683c62 0 119 -41 119 -101c0 -67 -70 -128 -136 -143c-21 -5 -36 -6 -57 -6c-77 0 -115 49 -115 101c0 84 105 149 189 149zM286 666c-30 0 -49 -10 -59 -35c-9 -23 -35 -143 -35 -161c0 -19 24 -20 41 -20c25 0 41 2 50 24c14 32 41 131 41 164c0 21 -15 28 -38 28
z" />
    <glyph glyph-name="ae" unicode="&#xe6;" horiz-adv-x="722" 
d="M298 135l26 93c5 19 8 40 8 60c0 35 -15 86 -58 86c-40 0 -58 -44 -70 -76c-39 -103 -59 -216 -59 -252c0 -23 16 -33 37 -33c49 0 86 48 105 90c5 11 8 21 11 32zM450 254l-18 -65h62c69 0 98 70 98 133c0 28 -15 52 -45 52c-43 0 -56 -21 -73 -57
c-9 -19 -18 -41 -24 -63zM351 328l15 68h90l-15 -73l2 -2c30 46 63 81 122 81c63 0 128 -40 128 -110c0 -65 -44 -97 -99 -115c-28 -9 -58 -16 -88 -16h-80c-9 -33 -19 -68 -19 -103c0 -37 34 -45 64 -45c87 0 136 44 193 105l17 -19c-53 -58 -123 -114 -206 -114
c-79 0 -143 23 -171 104c-27 -58 -78 -104 -145 -104c-83 0 -137 72 -137 152c0 83 43 164 107 215c35 28 76 50 121 50c56 0 80 -22 101 -74z" />
    <glyph glyph-name="dotlessi" unicode="&#x131;" horiz-adv-x="278" 
d="M49 120l55 248h-72l7 28h103c17 0 34 1 51 2s34 2 51 2l-79 -333c-6 -27 -9 -40 12 -40c34 0 75 81 87 110l21 -10c-33 -85 -73 -142 -169 -142c-42 0 -81 22 -81 56c0 15 7 47 14 79z" />
    <glyph glyph-name="lslash" unicode="&#x142;" horiz-adv-x="278" 
d="M98 383l60 262h-72l7 28h103c34 0 68 6 102 10l-58 -252l73 25l7 -24l-87 -30l-77 -334c-3 -15 -9 -39 12 -41c36 -3 76 77 89 105l21 -11c-34 -79 -71 -136 -161 -136c-49 0 -88 29 -88 83c0 22 6 34 9 46l53 238l-57 -20l-8 26z" />
    <glyph glyph-name="oslash" unicode="&#xf8;" 
d="M182 66l186 296c-10 10 -26 12 -46 12c-46 0 -75 -16 -90 -57c-13 -35 -47 -204 -52 -249zM376 311l-181 -289c12 -6 31 -9 45 -9c39 0 64 6 78 43c20 49 56 195 60 253zM388 394l60 94h42l-68 -108c55 -27 94 -80 94 -147c0 -112 -108 -213 -210 -238
c-32 -8 -55 -10 -87 -10c-16 0 -30 1 -44 5l-66 -105h-44l74 116c-65 27 -97 88 -97 152c0 141 162 249 291 249c19 0 37 -3 55 -8z" />
    <glyph glyph-name="oe" unicode="&#x153;" horiz-adv-x="778" 
d="M713 118l15 -19c-61 -65 -123 -114 -216 -114c-49 0 -100 18 -134 54c-43 -40 -103 -54 -160 -54c-131 0 -182 92 -182 170c0 117 122 247 275 247c53 0 103 -20 143 -54c51 35 85 54 148 54c69 0 138 -37 138 -115s-86 -125 -174 -125h-91l-17 -72c-11 -48 2 -77 66 -77
c79 0 138 51 189 105zM332 123l32 139c5 24 8 48 8 67c0 34 -39 45 -66 45c-26 0 -41 0 -61 -18c-38 -35 -73 -235 -73 -291c0 -36 20 -52 58 -52c33 0 68 8 80 39c9 23 16 47 22 71zM508 294l-28 -104h56c34 0 103 36 103 129c0 37 -15 55 -53 55c-39 0 -62 -20 -78 -80z
" />
    <glyph glyph-name="germandbls" unicode="&#xdf;" 
d="M256 538l-61 -288c-20 -94 -39 -189 -76 -278c-35 -83 -80 -179 -182 -179c-41 0 -96 38 -88 85c5 28 24 50 54 50c37 0 56 -17 56 -54c0 -26 -16 -41 -16 -49c0 -3 13 -4 15 -4c49 0 61 132 68 171l49 289c29 172 65 234 102 293c42 66 107 109 185 109
c83 0 179 -38 179 -137c0 -111 -95 -163 -190 -177v-2c97 -11 166 -59 166 -166c0 -106 -97 -205 -201 -205c-51 0 -120 27 -120 87c0 31 16 57 49 57c24 0 44 -19 44 -44c0 -20 -7 -30 -14 -37s-15 -10 -14 -14c3 -13 16 -17 27 -17c27 0 35 10 45 35c28 70 47 184 47 221
c0 56 -39 74 -88 75c-9 0 -9 19 -3 20c13 2 26 5 38 5c29 0 41 18 50 42c29 76 35 155 35 170c0 41 -19 59 -61 59c-65 0 -84 -63 -95 -117z" />
    <glyph glyph-name="onesuperior" unicode="&#xb9;" horiz-adv-x="366" 
d="M340 665l-95 -381h89l-5 -18h-263l4 18h79l83 332c4 12 -11 15 -28 15h-61l5 18z" />
    <glyph glyph-name="logicalnot" unicode="&#xac;" horiz-adv-x="500" 
d="M392 62v188h-363v81h443v-269h-80z" />
    <glyph glyph-name="mu" unicode="&#xb5;" 
d="M317 161l59 235h129l-79 -352c-2 -11 1 -18 12 -18c36 0 77 72 87 101l21 -5c-22 -76 -72 -137 -157 -137c-39 0 -83 18 -83 64c0 19 5 39 7 58l-2 2c-41 -68 -86 -117 -159 -121c-22 -1 -37 -20 -34 -44c2 -18 2 -58 -8 -98c-6 -24 -24 -66 -62 -66c-35 0 -46 62 -42 86
c7 41 22 76 32 92c10 17 17 38 12 50c-6 14 -11 48 -5 74l67 286h-72l7 28h103c17 0 34 1 51 2s34 2 51 2l-82 -333c-5 -21 -15 -47 14 -47c35 0 74 47 93 73c11 15 36 51 40 68z" />
    <glyph glyph-name="trademark" unicode="&#x2122;" horiz-adv-x="1000" 
d="M22 558l6 110h335l4 -110h-14c-19 61 -36 100 -112 94v-308h46v-15h-184v15h46v308c-76 6 -93 -33 -112 -94h-15zM794 652v-308h45v-15h-182v15h48v307h-2l-106 -322h-20l-105 322h-1v-276c0 -34 20 -31 52 -31v-15h-118v15c31 0 50 -3 50 31v277h-50v16h156l63 -205
l66 205h149v-16h-45z" />
    <glyph glyph-name="Eth" unicode="&#xd0;" horiz-adv-x="778" 
d="M369 638l-54 -261h133l-10 -40h-131l-63 -307h69c40 0 77 3 115 17c65 24 102 149 116 211c14 64 36 196 36 259c0 108 -80 121 -137 121h-74zM-4 0l6 30h73l64 307h-74l10 40h72l54 261h-76l7 30h302c164 0 310 -82 310 -284c0 -134 -74 -257 -184 -328
c-87 -56 -177 -56 -285 -56h-279z" />
    <glyph glyph-name="onehalf" unicode="&#xbd;" horiz-adv-x="916" 
d="M719 665l-448 -665h-53l448 665h53zM362 665l-95 -381h89l-5 -18h-263l4 18h79l83 332c4 12 -11 15 -28 15h-61l5 18zM479 0v53c83 57 228 125 242 229c1 10 2 19 2 29c0 46 -18 68 -70 68c-23 0 -76 -17 -76 -43c0 -7 4 -11 11 -11c5 0 10 1 15 1c22 0 37 -14 37 -34
c0 -24 -17 -41 -43 -41c-33 0 -55 25 -55 54c0 63 77 94 134 94c71 0 152 -22 152 -102c0 -60 -66 -106 -118 -133c-57 -30 -111 -63 -168 -92v-1h185c22 0 32 6 36 15l13 36h20l-37 -122h-280z" />
    <glyph glyph-name="plusminus" unicode="&#xb1;" horiz-adv-x="500" 
d="M29 322h181v122h81v-122h181v-81h-181v-123h-81v123h-181v81zM472 0h-443v81h443v-81z" />
    <glyph glyph-name="Thorn" unicode="&#xde;" horiz-adv-x="667" 
d="M-6 0l6 30h74l126 608h-66l7 30h317l-9 -30h-83l-23 -110h52c108 0 246 -23 246 -163c0 -96 -80 -156 -162 -178c-78 -21 -120 -24 -170 -24h-43l-28 -133h86l-5 -30h-325zM337 498l-65 -305h43c70 0 98 13 115 51c22 50 38 138 38 194c0 58 -39 60 -87 60h-44z" />
    <glyph glyph-name="onequarter" unicode="&#xbc;" horiz-adv-x="916" 
d="M465 110v32l278 257h57l-67 -271h50c28 0 20 29 30 47h15l-26 -113h-17c4 17 19 48 -8 48h-48l-22 -92h59l-5 -18h-207l5 18h50l24 92h-168zM749 665l-448 -665h-53l448 665h53zM484 128h156l50 199zM362 665l-95 -381h89l-5 -18h-263l4 18h79l83 332c4 12 -11 15 -28 15
h-61l5 18z" />
    <glyph glyph-name="divide" unicode="&#xf7;" horiz-adv-x="500" 
d="M472 182h-443v81h443v-81zM251 314c-34 0 -62 32 -62 65c0 34 28 65 62 65c35 0 65 -29 65 -65s-29 -65 -65 -65zM251 1c-34 0 -62 32 -62 65c0 34 28 65 62 65c35 0 65 -29 65 -65s-29 -65 -65 -65z" />
    <glyph glyph-name="brokenbar" unicode="&#xa6;" horiz-adv-x="606" 
d="M240 -175v350h81v-350h-81zM240 325v350h81v-350h-81z" />
    <glyph glyph-name="degree" unicode="&#xb0;" horiz-adv-x="400" 
d="M370 515c0 -83 -68 -150 -150 -150c-83 0 -150 67 -150 150c-1 82 67 150 150 150c82 0 150 -68 150 -150zM219 609c-51 0 -94 -43 -93 -94c0 -52 42 -94 94 -94c51 0 95 42 94 94c1 51 -43 94 -95 94z" />
    <glyph glyph-name="thorn" unicode="&#xfe;" 
d="M191 106c0 -43 19 -93 60 -93s54 29 66 54c34 70 71 219 71 262c0 32 -19 45 -44 45c-62 0 -103 -75 -122 -120c-19 -46 -31 -97 -31 -148zM-7 -187l186 832h-70l7 28h103c34 0 68 6 102 10c-77 -315 -87 -346 -96 -376l2 -2c24 50 72 97 131 97c93 0 156 -65 156 -158
c0 -151 -133 -259 -231 -259c-46 0 -82 18 -105 67h-2l-52 -239h84l-5 -28h-285l5 28h70z" />
    <glyph glyph-name="threequarters" unicode="&#xbe;" horiz-adv-x="916" 
d="M465 110v32l278 257h57l-67 -271h50c28 0 20 29 30 47h15l-26 -113h-17c4 17 19 48 -8 48h-48l-22 -92h59l-5 -18h-207l5 18h50l24 92h-168zM745 665l-448 -665h-53l448 665h53zM484 128h156l50 199zM269 477v-2c62 -6 132 -22 132 -93c0 -91 -120 -125 -201 -125
c-51 0 -112 23 -112 77c0 27 17 50 48 50c26 0 44 -17 44 -41c0 -16 -9 -23 -19 -28c-9 -5 -19 -8 -21 -17c-4 -22 43 -25 57 -25c77 0 98 82 98 139c0 30 -18 53 -54 53c-16 0 -33 -4 -48 -4c-12 0 -18 1 -18 13c0 16 28 10 38 10c27 0 43 2 64 18c23 18 44 45 44 103
c0 34 -18 44 -53 44c-40 0 -44 -13 -50 -18c-2 -3 -1 -6 2 -7c18 -9 28 -17 28 -37c0 -21 -17 -37 -40 -37c-26 0 -43 18 -43 41c0 57 74 74 123 74c54 0 131 -20 131 -82c0 -75 -86 -93 -150 -106z" />
    <glyph glyph-name="twosuperior" unicode="&#xb2;" horiz-adv-x="366" 
d="M318 266h-280v53c83 57 228 125 242 229c1 10 2 19 2 29c0 46 -18 68 -70 68c-23 0 -76 -17 -76 -43c0 -7 4 -11 11 -11c5 0 10 1 15 1c22 0 37 -14 37 -34c0 -24 -17 -41 -43 -41c-33 0 -55 25 -55 54c0 63 77 94 134 94c71 0 152 -22 152 -102
c0 -60 -66 -106 -118 -133c-57 -30 -111 -63 -168 -92v-1h185c22 0 32 6 36 15l13 36h20z" />
    <glyph glyph-name="registered" unicode="&#xae;" horiz-adv-x="747" 
d="M377 -15c-187 0 -340 160 -340 350c0 191 151 348 341 348c192 0 346 -152 346 -348c0 -197 -157 -350 -347 -350zM378 623c-154 0 -281 -132 -281 -287c0 -162 129 -291 286 -291c155 0 281 134 281 291c0 159 -128 287 -286 287zM388 178v-16h-183v16h44v325h-45v17
h221c56 0 114 -25 114 -87c0 -59 -77 -77 -125 -81v-2c79 -13 110 -42 110 -94c0 -44 3 -64 11 -72c4 -4 15 -8 43 -1l3 -12c-18 -9 -45 -16 -65 -16c-68 0 -91 29 -93 111c0 64 -12 78 -58 78h-24v-166h47zM341 503v-142h23c58 0 73 9 73 47v52c0 25 9 43 -56 43h-40z" />
    <glyph glyph-name="minus" unicode="&#x2212;" horiz-adv-x="500" 
d="M472 182h-443v81h443v-81z" />
    <glyph glyph-name="eth" unicode="&#xf0;" 
d="M187 548l123 57c-53 34 -21 19 -107 55l24 33c69 -19 88 -25 145 -59l126 59l35 -33l-120 -55c79 -73 103 -165 103 -283c0 -201 -108 -302 -210 -327c-32 -8 -55 -10 -87 -10c-119 0 -177 81 -177 168c0 141 162 249 275 249c32 0 54 -8 66 -21c3 10 3 17 3 26
c0 19 -11 117 -47 163l-122 -56zM322 374c-46 0 -75 -18 -90 -59c-14 -39 -54 -239 -54 -269c0 -31 37 -33 62 -33c39 0 64 4 78 41c21 53 62 217 62 272c0 35 -22 48 -58 48z" />
    <glyph glyph-name="multiply" unicode="&#xd7;" horiz-adv-x="500" 
d="M29 57l164 165l-164 165l57 57l164 -165l164 165l57 -57l-164 -165l164 -165l-57 -57l-164 165l-164 -165z" />
    <glyph glyph-name="threesuperior" unicode="&#xb3;" horiz-adv-x="366" 
d="M239 477v-2c62 -6 132 -22 132 -93c0 -91 -120 -125 -201 -125c-51 0 -112 23 -112 77c0 27 17 50 48 50c26 0 44 -17 44 -41c0 -16 -9 -23 -19 -28c-9 -5 -19 -8 -21 -17c-4 -22 43 -25 57 -25c77 0 98 82 98 139c0 30 -18 53 -54 53c-16 0 -33 -4 -48 -4
c-12 0 -18 1 -18 13c0 16 28 10 38 10c27 0 43 2 64 18c23 18 44 45 44 103c0 34 -18 44 -53 44c-40 0 -44 -13 -50 -18c-2 -3 -1 -6 2 -7c18 -9 28 -17 28 -37c0 -21 -17 -37 -40 -37c-26 0 -43 18 -43 41c0 57 74 74 123 74c54 0 131 -20 131 -82c0 -75 -86 -93 -150 -106
z" />
    <glyph glyph-name="copyright" unicode="&#xa9;" horiz-adv-x="747" 
d="M377 -15c-187 0 -340 160 -340 350c0 191 151 348 341 348c192 0 346 -152 346 -348c0 -197 -157 -350 -347 -350zM378 623c-154 0 -281 -132 -281 -287c0 -162 129 -291 286 -291c155 0 281 134 281 291c0 159 -128 287 -286 287zM472 494l19 18h19v-95h-17
c-20 47 -47 88 -111 88c-54 0 -71 -16 -71 -160c0 -130 1 -166 72 -166c66 0 98 41 116 92h20v-101h-22l-20 18c-28 -15 -60 -26 -91 -26c-102 0 -186 79 -186 183c0 63 77 175 180 175c34 0 66 -9 92 -26z" />
    <glyph glyph-name="Aacute" unicode="&#xc1;" horiz-adv-x="611" 
d="M124 0h-177l7 30c22 0 40 8 58 26c19 19 61 82 100 149l279 478h37l70 -653h73l-7 -30h-304l7 30h69l-14 162h-181l-70 -118c-8 -13 -11 -19 -11 -25c0 -14 8 -19 22 -19h49zM297 459l-137 -237h158zM524 852l-137 -88h-61l97 111c27 31 53 74 98 74c24 0 44 -20 44 -44
c0 -27 -21 -40 -41 -53z" />
    <glyph glyph-name="Acircumflex" unicode="&#xc2;" horiz-adv-x="611" 
d="M124 0h-177l7 30c22 0 40 8 58 26c19 19 61 82 100 149l279 478h37l70 -653h73l-7 -30h-304l7 30h69l-14 162h-181l-70 -118c-8 -13 -11 -19 -11 -25c0 -14 8 -19 22 -19h49zM297 459l-137 -237h158zM241 760l157 174h93l87 -174l-3 -2h-56l-90 98l-136 -98h-51z" />
    <glyph glyph-name="Adieresis" unicode="&#xc4;" horiz-adv-x="611" 
d="M124 0h-177l7 30c22 0 40 8 58 26c19 19 61 82 100 149l279 478h37l70 -653h73l-7 -30h-304l7 30h69l-14 162h-181l-70 -118c-8 -13 -11 -19 -11 -25c0 -14 8 -19 22 -19h49zM297 459l-137 -237h158zM520 779c-34 0 -62 32 -62 65c0 34 28 65 62 65c35 0 65 -29 65 -65
s-29 -65 -65 -65zM309 779c-34 0 -62 32 -62 65c0 34 28 65 62 65c35 0 65 -29 65 -65s-29 -65 -65 -65z" />
    <glyph glyph-name="Agrave" unicode="&#xc0;" horiz-adv-x="611" 
d="M124 0h-177l7 30c22 0 40 8 58 26c19 19 61 82 100 149l279 478h37l70 -653h73l-7 -30h-304l7 30h69l-14 162h-181l-70 -118c-8 -13 -11 -19 -11 -25c0 -14 8 -19 22 -19h49zM297 459l-137 -237h158zM435 764l-137 88c-20 13 -41 26 -41 53c0 24 20 44 44 44
c45 0 71 -43 98 -74l97 -111h-61z" />
    <glyph glyph-name="Aring" unicode="&#xc5;" horiz-adv-x="611" 
d="M124 0h-177l7 30c22 0 40 8 58 26c19 19 61 82 100 149l279 478h37l70 -653h73l-7 -30h-304l7 30h69l-14 162h-181l-70 -118c-8 -13 -11 -19 -11 -25c0 -14 8 -19 22 -19h49zM297 459l-137 -237h158zM415 701c-59 0 -106 49 -106 107c0 57 48 106 106 106
s107 -47 107 -106c0 -60 -48 -107 -107 -107zM415 865c-31 0 -58 -26 -58 -57s27 -58 58 -58s59 28 59 58c0 31 -28 57 -59 57z" />
    <glyph glyph-name="Atilde" unicode="&#xc3;" horiz-adv-x="611" 
d="M124 0h-177l7 30c22 0 40 8 58 26c19 19 61 82 100 149l279 478h37l70 -653h73l-7 -30h-304l7 30h69l-14 162h-181l-70 -118c-8 -13 -11 -19 -11 -25c0 -14 8 -19 22 -19h49zM297 459l-137 -237h158zM546 889h43c-15 -64 -46 -126 -121 -126c-31 0 -59 12 -85 24
c-25 12 -49 24 -72 24c-21 0 -41 -22 -45 -47h-42c9 63 47 125 118 125c28 0 57 -12 83 -24c27 -13 51 -25 69 -25c31 0 42 24 52 49z" />
    <glyph glyph-name="Ccedilla" unicode="&#xc7;" horiz-adv-x="667" 
d="M617 479l-36 4c-6 72 -39 170 -131 170c-42 0 -63 -10 -91 -40c-40 -44 -71 -172 -85 -232c-21 -88 -42 -179 -42 -269c0 -82 33 -97 109 -97c109 0 172 90 217 178l36 -7l-47 -186h-22l-31 39c-46 -39 -109 -54 -168 -54c-6 0 -12 0 -18 2l-22 -51c11 4 23 5 35 5
c48 0 87 -21 87 -74c0 -70 -86 -85 -139 -85c-25 0 -65 9 -88 18l16 37c25 -11 45 -13 72 -13c23 0 45 16 45 40c0 25 -21 36 -43 36c-10 0 -21 -1 -31 -4l-10 8l39 88c-124 21 -208 118 -208 255c0 109 55 210 123 288c60 70 169 148 263 148c48 0 95 -24 131 -55l46 40h21
z" />
    <glyph glyph-name="Eacute" unicode="&#xc9;" horiz-adv-x="667" 
d="M547 0h-551l6 30h73l125 608h-78l6 30h516l-27 -188h-36c-3 144 -59 158 -161 158h-53l-56 -273h30c23 0 79 17 115 115h36l-58 -279h-37c0 67 3 134 -72 134h-22l-61 -305h48c148 0 211 60 273 193h33zM552 852l-137 -88h-61l97 111c27 31 53 74 98 74
c24 0 44 -20 44 -44c0 -27 -21 -40 -41 -53z" />
    <glyph glyph-name="Ecircumflex" unicode="&#xca;" horiz-adv-x="667" 
d="M547 0h-551l6 30h73l125 608h-78l6 30h516l-27 -188h-36c-3 144 -59 158 -161 158h-53l-56 -273h30c23 0 79 17 115 115h36l-58 -279h-37c0 67 3 134 -72 134h-22l-61 -305h48c148 0 211 60 273 193h33zM289 760l157 174h93l87 -174l-3 -2h-56l-90 98l-136 -98h-51z" />
    <glyph glyph-name="Edieresis" unicode="&#xcb;" horiz-adv-x="667" 
d="M547 0h-551l6 30h73l125 608h-78l6 30h516l-27 -188h-36c-3 144 -59 158 -161 158h-53l-56 -273h30c23 0 79 17 115 115h36l-58 -279h-37c0 67 3 134 -72 134h-22l-61 -305h48c148 0 211 60 273 193h33zM548 779c-34 0 -62 32 -62 65c0 34 28 65 62 65
c35 0 65 -29 65 -65s-29 -65 -65 -65zM337 779c-34 0 -62 32 -62 65c0 34 28 65 62 65c35 0 65 -29 65 -65s-29 -65 -65 -65z" />
    <glyph glyph-name="Egrave" unicode="&#xc8;" horiz-adv-x="667" 
d="M547 0h-551l6 30h73l125 608h-78l6 30h516l-27 -188h-36c-3 144 -59 158 -161 158h-53l-56 -273h30c23 0 79 17 115 115h36l-58 -279h-37c0 67 3 134 -72 134h-22l-61 -305h48c148 0 211 60 273 193h33zM463 764l-137 88c-20 13 -41 26 -41 53c0 24 20 44 44 44
c45 0 71 -43 98 -74l97 -111h-61z" />
    <glyph glyph-name="Iacute" unicode="&#xcd;" horiz-adv-x="444" 
d="M387 638l-127 -608h81l-7 -30h-318l7 30h70l125 608h-80l7 30h316l-7 -30h-67zM411 852l-137 -88h-61l97 111c27 31 53 74 98 74c24 0 44 -20 44 -44c0 -27 -21 -40 -41 -53z" />
    <glyph glyph-name="Icircumflex" unicode="&#xce;" horiz-adv-x="444" 
d="M387 638l-127 -608h81l-7 -30h-318l7 30h70l125 608h-80l7 30h316l-7 -30h-67zM148 760l157 174h93l87 -174l-3 -2h-56l-90 98l-136 -98h-51z" />
    <glyph glyph-name="Idieresis" unicode="&#xcf;" horiz-adv-x="444" 
d="M387 638l-127 -608h81l-7 -30h-318l7 30h70l125 608h-80l7 30h316l-7 -30h-67zM447 779c-34 0 -62 32 -62 65c0 34 28 65 62 65c35 0 65 -29 65 -65s-29 -65 -65 -65zM236 779c-34 0 -62 32 -62 65c0 34 28 65 62 65c35 0 65 -29 65 -65s-29 -65 -65 -65z" />
    <glyph glyph-name="Igrave" unicode="&#xcc;" horiz-adv-x="444" 
d="M387 638l-127 -608h81l-7 -30h-318l7 30h70l125 608h-80l7 30h316l-7 -30h-67zM342 764l-137 88c-20 13 -41 26 -41 53c0 24 20 44 44 44c45 0 71 -43 98 -74l97 -111h-61z" />
    <glyph glyph-name="Ntilde" unicode="&#xd1;" horiz-adv-x="722" 
d="M88 104l99 466c8 36 9 68 -44 68h-30l7 30h225l218 -434l72 340c8 36 -11 64 -37 64h-35l6 30h190l-7 -30h-25c-23 0 -46 -18 -52 -46l-128 -607h-38l-290 576l-95 -481c-6 -32 10 -50 39 -50h30l-7 -30h-188l5 30h26c29 0 52 40 59 74zM602 889h43
c-15 -64 -46 -126 -121 -126c-31 0 -59 12 -85 24c-25 12 -49 24 -72 24c-21 0 -41 -22 -45 -47h-42c9 63 47 125 118 125c28 0 57 -12 83 -24c27 -13 51 -25 69 -25c31 0 42 24 52 49z" />
    <glyph glyph-name="Oacute" unicode="&#xd3;" horiz-adv-x="778" 
d="M478 653c-66 0 -109 -12 -140 -71c-37 -70 -113 -321 -113 -471c0 -73 24 -96 101 -96c99 0 137 22 184 189c27 95 70 280 70 377c0 41 -21 72 -102 72zM469 683c160 0 275 -84 275 -261c0 -151 -98 -304 -223 -382c-29 -18 -113 -55 -189 -55c-123 0 -271 58 -271 270
c0 142 80 256 184 340c65 53 141 88 224 88zM608 852l-137 -88h-61l97 111c27 31 53 74 98 74c24 0 44 -20 44 -44c0 -27 -21 -40 -41 -53z" />
    <glyph glyph-name="Ocircumflex" unicode="&#xd4;" horiz-adv-x="778" 
d="M478 653c-66 0 -109 -12 -140 -71c-37 -70 -113 -321 -113 -471c0 -73 24 -96 101 -96c99 0 137 22 184 189c27 95 70 280 70 377c0 41 -21 72 -102 72zM469 683c160 0 275 -84 275 -261c0 -151 -98 -304 -223 -382c-29 -18 -113 -55 -189 -55c-123 0 -271 58 -271 270
c0 142 80 256 184 340c65 53 141 88 224 88zM325 760l157 174h93l87 -174l-3 -2h-56l-90 98l-136 -98h-51z" />
    <glyph glyph-name="Odieresis" unicode="&#xd6;" horiz-adv-x="778" 
d="M478 653c-66 0 -109 -12 -140 -71c-37 -70 -113 -321 -113 -471c0 -73 24 -96 101 -96c99 0 137 22 184 189c27 95 70 280 70 377c0 41 -21 72 -102 72zM469 683c160 0 275 -84 275 -261c0 -151 -98 -304 -223 -382c-29 -18 -113 -55 -189 -55c-123 0 -271 58 -271 270
c0 142 80 256 184 340c65 53 141 88 224 88zM604 779c-34 0 -62 32 -62 65c0 34 28 65 62 65c35 0 65 -29 65 -65s-29 -65 -65 -65zM393 779c-34 0 -62 32 -62 65c0 34 28 65 62 65c35 0 65 -29 65 -65s-29 -65 -65 -65z" />
    <glyph glyph-name="Ograve" unicode="&#xd2;" horiz-adv-x="778" 
d="M478 653c-66 0 -109 -12 -140 -71c-37 -70 -113 -321 -113 -471c0 -73 24 -96 101 -96c99 0 137 22 184 189c27 95 70 280 70 377c0 41 -21 72 -102 72zM469 683c160 0 275 -84 275 -261c0 -151 -98 -304 -223 -382c-29 -18 -113 -55 -189 -55c-123 0 -271 58 -271 270
c0 142 80 256 184 340c65 53 141 88 224 88zM509 764l-137 88c-20 13 -41 26 -41 53c0 24 20 44 44 44c45 0 71 -43 98 -74l97 -111h-61z" />
    <glyph glyph-name="Otilde" unicode="&#xd5;" horiz-adv-x="778" 
d="M478 653c-66 0 -109 -12 -140 -71c-37 -70 -113 -321 -113 -471c0 -73 24 -96 101 -96c99 0 137 22 184 189c27 95 70 280 70 377c0 41 -21 72 -102 72zM469 683c160 0 275 -84 275 -261c0 -151 -98 -304 -223 -382c-29 -18 -113 -55 -189 -55c-123 0 -271 58 -271 270
c0 142 80 256 184 340c65 53 141 88 224 88zM630 889h43c-15 -64 -46 -126 -121 -126c-31 0 -59 12 -85 24c-25 12 -49 24 -72 24c-21 0 -41 -22 -45 -47h-42c9 63 47 125 118 125c28 0 57 -12 83 -24c27 -13 51 -25 69 -25c31 0 42 24 52 49z" />
    <glyph glyph-name="Scaron" unicode="&#x160;" 
d="M97 41l-57 -41h-26l32 201h35c7 -104 59 -186 170 -186c95 0 149 50 149 125c0 70 -64 94 -127 129c-147 83 -164 118 -164 190c0 120 74 224 200 224c59 0 97 -17 146 -49l42 34h26l-26 -183h-38c-1 21 -3 39 -7 58c-14 69 -71 110 -139 110c-51 0 -115 -28 -115 -88
c0 -68 74 -93 148 -129s148 -84 148 -200c0 -157 -109 -251 -236 -251c-59 0 -116 16 -161 56zM426 758h-93l-85 174l3 2h53l92 -99l132 99h56l1 -2z" />
    <glyph glyph-name="Uacute" unicode="&#xda;" horiz-adv-x="722" 
d="M115 274l75 364h-78l7 30h317l-7 -30h-75l-85 -413c-35 -168 5 -210 101 -210c101 0 157 60 177 158l81 401c11 56 -10 64 -44 64h-25l7 30h191l-7 -30h-23c-35 0 -50 -21 -61 -72l-78 -367c-22 -105 -45 -167 -153 -202c-37 -12 -77 -12 -116 -12
c-145 0 -222 59 -222 167c0 25 8 73 18 122zM610 852l-137 -88h-61l97 111c27 31 53 74 98 74c24 0 44 -20 44 -44c0 -27 -21 -40 -41 -53z" />
    <glyph glyph-name="Ucircumflex" unicode="&#xdb;" horiz-adv-x="722" 
d="M115 274l75 364h-78l7 30h317l-7 -30h-75l-85 -413c-35 -168 5 -210 101 -210c101 0 157 60 177 158l81 401c11 56 -10 64 -44 64h-25l7 30h191l-7 -30h-23c-35 0 -50 -21 -61 -72l-78 -367c-22 -105 -45 -167 -153 -202c-37 -12 -77 -12 -116 -12
c-145 0 -222 59 -222 167c0 25 8 73 18 122zM317 760l157 174h93l87 -174l-3 -2h-56l-90 98l-136 -98h-51z" />
    <glyph glyph-name="Udieresis" unicode="&#xdc;" horiz-adv-x="722" 
d="M115 274l75 364h-78l7 30h317l-7 -30h-75l-85 -413c-35 -168 5 -210 101 -210c101 0 157 60 177 158l81 401c11 56 -10 64 -44 64h-25l7 30h191l-7 -30h-23c-35 0 -50 -21 -61 -72l-78 -367c-22 -105 -45 -167 -153 -202c-37 -12 -77 -12 -116 -12
c-145 0 -222 59 -222 167c0 25 8 73 18 122zM576 779c-34 0 -62 32 -62 65c0 34 28 65 62 65c35 0 65 -29 65 -65s-29 -65 -65 -65zM365 779c-34 0 -62 32 -62 65c0 34 28 65 62 65c35 0 65 -29 65 -65s-29 -65 -65 -65z" />
    <glyph glyph-name="Ugrave" unicode="&#xd9;" horiz-adv-x="722" 
d="M115 274l75 364h-78l7 30h317l-7 -30h-75l-85 -413c-35 -168 5 -210 101 -210c101 0 157 60 177 158l81 401c11 56 -10 64 -44 64h-25l7 30h191l-7 -30h-23c-35 0 -50 -21 -61 -72l-78 -367c-22 -105 -45 -167 -153 -202c-37 -12 -77 -12 -116 -12
c-145 0 -222 59 -222 167c0 25 8 73 18 122zM491 764l-137 88c-20 13 -41 26 -41 53c0 24 20 44 44 44c45 0 71 -43 98 -74l97 -111h-61z" />
    <glyph glyph-name="Yacute" unicode="&#xdd;" horiz-adv-x="611" 
d="M66 668h315l-7 -30h-82l110 -301l150 240c28 44 20 61 -16 61h-46l7 30h194l-7 -30h-19c-19 0 -46 -17 -58 -36l-192 -299c-2 -4 -6 -19 -9 -34l-46 -239h93l-7 -30h-346l6 30h86l55 278l-127 330h-61zM554 852l-137 -88h-61l97 111c27 31 53 74 98 74
c24 0 44 -20 44 -44c0 -27 -21 -40 -41 -53z" />
    <glyph glyph-name="Ydieresis" unicode="&#x178;" horiz-adv-x="611" 
d="M66 668h315l-7 -30h-82l110 -301l150 240c28 44 20 61 -16 61h-46l7 30h194l-7 -30h-19c-19 0 -46 -17 -58 -36l-192 -299c-2 -4 -6 -19 -9 -34l-46 -239h93l-7 -30h-346l6 30h86l55 278l-127 330h-61zM530 779c-34 0 -62 32 -62 65c0 34 28 65 62 65c35 0 65 -29 65 -65
s-29 -65 -65 -65zM319 779c-34 0 -62 32 -62 65c0 34 28 65 62 65c35 0 65 -29 65 -65s-29 -65 -65 -65z" />
    <glyph glyph-name="Zcaron" unicode="&#x17d;" horiz-adv-x="611" 
d="M81 480l63 188h469v-35l-414 -603h89c110 0 202 95 250 188h36l-72 -218h-497v33l416 605h-51c-116 0 -197 -53 -252 -158h-37zM453 758h-93l-85 174l3 2h53l92 -99l132 99h56l1 -2z" />
    <glyph glyph-name="aacute" unicode="&#xe1;" 
d="M288 374c-17 0 -58 -10 -96 -160c-7 -28 -33 -138 -33 -159c0 -25 15 -42 40 -42c92 0 150 207 150 280c0 37 -19 81 -61 81zM370 327l21 69h111l-86 -322c-8 -31 7 -35 13 -35c34 0 74 79 87 107l21 -7c-29 -61 -70 -143 -147 -143c-48 0 -71 43 -79 85
c-33 -52 -74 -96 -140 -96c-86 0 -136 73 -136 154c0 108 73 210 171 249c19 8 39 14 59 14c51 0 85 -29 105 -75zM467 586l-137 -88h-61l97 111c27 31 53 74 98 74c24 0 44 -20 44 -44c0 -27 -21 -40 -41 -53z" />
    <glyph glyph-name="acircumflex" unicode="&#xe2;" 
d="M288 374c-17 0 -58 -10 -96 -160c-7 -28 -33 -138 -33 -159c0 -25 15 -42 40 -42c92 0 150 207 150 280c0 37 -19 81 -61 81zM370 327l21 69h111l-86 -322c-8 -31 7 -35 13 -35c34 0 74 79 87 107l21 -7c-29 -61 -70 -143 -147 -143c-48 0 -71 43 -79 85
c-33 -52 -74 -96 -140 -96c-86 0 -136 73 -136 154c0 108 73 210 171 249c19 8 39 14 59 14c51 0 85 -29 105 -75zM174 494l157 174h93l87 -174l-3 -2h-56l-90 98l-136 -98h-51z" />
    <glyph glyph-name="adieresis" unicode="&#xe4;" 
d="M288 374c-17 0 -58 -10 -96 -160c-7 -28 -33 -138 -33 -159c0 -25 15 -42 40 -42c92 0 150 207 150 280c0 37 -19 81 -61 81zM370 327l21 69h111l-86 -322c-8 -31 7 -35 13 -35c34 0 74 79 87 107l21 -7c-29 -61 -70 -143 -147 -143c-48 0 -71 43 -79 85
c-33 -52 -74 -96 -140 -96c-86 0 -136 73 -136 154c0 108 73 210 171 249c19 8 39 14 59 14c51 0 85 -29 105 -75zM443 513c-34 0 -62 32 -62 65c0 34 28 65 62 65c35 0 65 -29 65 -65s-29 -65 -65 -65zM232 513c-34 0 -62 32 -62 65c0 34 28 65 62 65c35 0 65 -29 65 -65
s-29 -65 -65 -65z" />
    <glyph glyph-name="agrave" unicode="&#xe0;" 
d="M288 374c-17 0 -58 -10 -96 -160c-7 -28 -33 -138 -33 -159c0 -25 15 -42 40 -42c92 0 150 207 150 280c0 37 -19 81 -61 81zM370 327l21 69h111l-86 -322c-8 -31 7 -35 13 -35c34 0 74 79 87 107l21 -7c-29 -61 -70 -143 -147 -143c-48 0 -71 43 -79 85
c-33 -52 -74 -96 -140 -96c-86 0 -136 73 -136 154c0 108 73 210 171 249c19 8 39 14 59 14c51 0 85 -29 105 -75zM338 498l-137 88c-20 13 -41 26 -41 53c0 24 20 44 44 44c45 0 71 -43 98 -74l97 -111h-61z" />
    <glyph glyph-name="aring" unicode="&#xe5;" 
d="M288 374c-17 0 -58 -10 -96 -160c-7 -28 -33 -138 -33 -159c0 -25 15 -42 40 -42c92 0 150 207 150 280c0 37 -19 81 -61 81zM370 327l21 69h111l-86 -322c-8 -31 7 -35 13 -35c34 0 74 79 87 107l21 -7c-29 -61 -70 -143 -147 -143c-48 0 -71 43 -79 85
c-33 -52 -74 -96 -140 -96c-86 0 -136 73 -136 154c0 108 73 210 171 249c19 8 39 14 59 14c51 0 85 -29 105 -75zM338 455c-59 0 -106 49 -106 107c0 57 48 106 106 106s107 -47 107 -106c0 -60 -48 -107 -107 -107zM338 619c-31 0 -58 -26 -58 -57s27 -58 58 -58
s59 28 59 58c0 31 -28 57 -59 57z" />
    <glyph glyph-name="atilde" unicode="&#xe3;" 
d="M288 374c-17 0 -58 -10 -96 -160c-7 -28 -33 -138 -33 -159c0 -25 15 -42 40 -42c92 0 150 207 150 280c0 37 -19 81 -61 81zM370 327l21 69h111l-86 -322c-8 -31 7 -35 13 -35c34 0 74 79 87 107l21 -7c-29 -61 -70 -143 -147 -143c-48 0 -71 43 -79 85
c-33 -52 -74 -96 -140 -96c-86 0 -136 73 -136 154c0 108 73 210 171 249c19 8 39 14 59 14c51 0 85 -29 105 -75zM459 643h43c-15 -64 -46 -126 -121 -126c-31 0 -59 12 -85 24c-25 12 -49 24 -72 24c-21 0 -41 -22 -45 -47h-42c9 63 47 125 118 125c28 0 57 -12 83 -24
c27 -13 51 -25 69 -25c31 0 42 24 52 49z" />
    <glyph glyph-name="ccedilla" unicode="&#xe7;" horiz-adv-x="500" 
d="M147 -96l37 85c-77 15 -137 79 -137 163c0 132 143 250 269 250c54 0 138 -23 138 -92c0 -37 -24 -64 -62 -64c-32 0 -58 22 -58 55c0 10 2 20 5 29c3 10 5 17 5 20c0 11 -12 24 -28 24c-28 0 -39 -4 -56 -26c-24 -31 -77 -203 -77 -288c0 -34 26 -47 55 -47
c71 0 132 43 174 98l16 -14c-49 -66 -121 -111 -203 -112l-22 -49c11 4 23 5 35 5c48 0 87 -21 87 -74c0 -70 -86 -85 -139 -85c-25 0 -65 9 -88 18l16 37c25 -11 45 -13 72 -13c23 0 45 16 45 40c0 25 -21 36 -43 36c-10 0 -21 -1 -31 -4z" />
    <glyph glyph-name="eacute" unicode="&#xe9;" horiz-adv-x="500" 
d="M274 163h-81c-6 -34 -17 -69 -17 -103c0 -36 21 -47 53 -47c86 0 154 45 204 113l16 -14c-56 -84 -137 -127 -237 -127c-94 0 -174 58 -174 158c0 135 147 259 276 259c63 0 147 -28 147 -106c0 -64 -44 -97 -100 -116c-27 -9 -58 -17 -87 -17zM200 191h58
c28 0 101 32 101 126c0 38 -14 57 -54 57c-30 0 -55 -14 -72 -71zM439 586l-137 -88h-61l97 111c27 31 53 74 98 74c24 0 44 -20 44 -44c0 -27 -21 -40 -41 -53z" />
    <glyph glyph-name="ecircumflex" unicode="&#xea;" horiz-adv-x="500" 
d="M274 163h-81c-6 -34 -17 -69 -17 -103c0 -36 21 -47 53 -47c86 0 154 45 204 113l16 -14c-56 -84 -137 -127 -237 -127c-94 0 -174 58 -174 158c0 135 147 259 276 259c63 0 147 -28 147 -106c0 -64 -44 -97 -100 -116c-27 -9 -58 -17 -87 -17zM200 191h58
c28 0 101 32 101 126c0 38 -14 57 -54 57c-30 0 -55 -14 -72 -71zM146 494l157 174h93l87 -174l-3 -2h-56l-90 98l-136 -98h-51z" />
    <glyph glyph-name="edieresis" unicode="&#xeb;" horiz-adv-x="500" 
d="M274 163h-81c-6 -34 -17 -69 -17 -103c0 -36 21 -47 53 -47c86 0 154 45 204 113l16 -14c-56 -84 -137 -127 -237 -127c-94 0 -174 58 -174 158c0 135 147 259 276 259c63 0 147 -28 147 -106c0 -64 -44 -97 -100 -116c-27 -9 -58 -17 -87 -17zM200 191h58
c28 0 101 32 101 126c0 38 -14 57 -54 57c-30 0 -55 -14 -72 -71zM410 513c-34 0 -62 32 -62 65c0 34 28 65 62 65c35 0 65 -29 65 -65s-29 -65 -65 -65zM199 513c-34 0 -62 32 -62 65c0 34 28 65 62 65c35 0 65 -29 65 -65s-29 -65 -65 -65z" />
    <glyph glyph-name="egrave" unicode="&#xe8;" horiz-adv-x="500" 
d="M274 163h-81c-6 -34 -17 -69 -17 -103c0 -36 21 -47 53 -47c86 0 154 45 204 113l16 -14c-56 -84 -137 -127 -237 -127c-94 0 -174 58 -174 158c0 135 147 259 276 259c63 0 147 -28 147 -106c0 -64 -44 -97 -100 -116c-27 -9 -58 -17 -87 -17zM200 191h58
c28 0 101 32 101 126c0 38 -14 57 -54 57c-30 0 -55 -14 -72 -71zM310 498l-137 88c-20 13 -41 26 -41 53c0 24 20 44 44 44c45 0 71 -43 98 -74l97 -111h-61z" />
    <glyph glyph-name="iacute" unicode="&#xed;" horiz-adv-x="278" 
d="M49 120l55 248h-72l7 28h103c17 0 34 1 51 2s34 2 51 2l-79 -333c-6 -27 -9 -40 12 -40c34 0 75 81 87 110l21 -10c-33 -85 -73 -142 -169 -142c-42 0 -81 22 -81 56c0 15 7 47 14 79zM298 586l-137 -88h-61l97 111c27 31 53 74 98 74c24 0 44 -20 44 -44
c0 -27 -21 -40 -41 -53z" />
    <glyph glyph-name="icircumflex" unicode="&#xee;" horiz-adv-x="278" 
d="M49 120l55 248h-72l7 28h103c17 0 34 1 51 2s34 2 51 2l-79 -333c-6 -27 -9 -40 12 -40c34 0 75 81 87 110l21 -10c-33 -85 -73 -142 -169 -142c-42 0 -81 22 -81 56c0 15 7 47 14 79zM-6 494l157 174h93l87 -174l-3 -2h-56l-90 98l-136 -98h-51z" />
    <glyph glyph-name="idieresis" unicode="&#xef;" horiz-adv-x="278" 
d="M49 120l55 248h-72l7 28h103c17 0 34 1 51 2s34 2 51 2l-79 -333c-6 -27 -9 -40 12 -40c34 0 75 81 87 110l21 -10c-33 -85 -73 -142 -169 -142c-42 0 -81 22 -81 56c0 15 7 47 14 79zM284 513c-34 0 -62 32 -62 65c0 34 28 65 62 65c35 0 65 -29 65 -65s-29 -65 -65 -65
zM73 513c-34 0 -62 32 -62 65c0 34 28 65 62 65c35 0 65 -29 65 -65s-29 -65 -65 -65z" />
    <glyph glyph-name="igrave" unicode="&#xec;" horiz-adv-x="278" 
d="M49 120l55 248h-72l7 28h103c17 0 34 1 51 2s34 2 51 2l-79 -333c-6 -27 -9 -40 12 -40c34 0 75 81 87 110l21 -10c-33 -85 -73 -142 -169 -142c-42 0 -81 22 -81 56c0 15 7 47 14 79zM199 498l-137 88c-20 13 -41 26 -41 53c0 24 20 44 44 44c45 0 71 -43 98 -74
l97 -111h-61z" />
    <glyph glyph-name="ntilde" unicode="&#xf1;" 
d="M257 400l-30 -106l2 -2c46 52 88 110 165 110c44 0 112 -25 94 -104l-58 -248c-2 -10 8 -19 17 -19c33 0 77 75 88 102l17 -5c-33 -81 -69 -132 -161 -132c-51 0 -101 21 -81 104l52 212c10 42 -1 56 -13 56c-27 0 -58 -37 -76 -56c-49 -52 -60 -85 -76 -151l-38 -161
h-131l89 368h-72l7 28h103c34 0 68 4 102 4zM459 643h43c-15 -64 -46 -126 -121 -126c-31 0 -59 12 -85 24c-25 12 -49 24 -72 24c-21 0 -41 -22 -45 -47h-42c9 63 47 125 118 125c28 0 57 -12 83 -24c27 -13 51 -25 69 -25c31 0 42 24 52 49z" />
    <glyph glyph-name="oacute" unicode="&#xf3;" 
d="M333 402c95 0 183 -69 183 -169c0 -112 -108 -213 -210 -238c-32 -8 -55 -10 -87 -10c-119 0 -177 81 -177 168c0 141 162 249 291 249zM322 374c-46 0 -75 -18 -90 -59c-14 -39 -54 -239 -54 -269c0 -31 37 -33 62 -33c39 0 64 4 78 41c21 53 62 217 62 272
c0 35 -22 48 -58 48zM467 586l-137 -88h-61l97 111c27 31 53 74 98 74c24 0 44 -20 44 -44c0 -27 -21 -40 -41 -53z" />
    <glyph glyph-name="ocircumflex" unicode="&#xf4;" 
d="M333 402c95 0 183 -69 183 -169c0 -112 -108 -213 -210 -238c-32 -8 -55 -10 -87 -10c-119 0 -177 81 -177 168c0 141 162 249 291 249zM322 374c-46 0 -75 -18 -90 -59c-14 -39 -54 -239 -54 -269c0 -31 37 -33 62 -33c39 0 64 4 78 41c21 53 62 217 62 272
c0 35 -22 48 -58 48zM174 494l157 174h93l87 -174l-3 -2h-56l-90 98l-136 -98h-51z" />
    <glyph glyph-name="odieresis" unicode="&#xf6;" 
d="M333 402c95 0 183 -69 183 -169c0 -112 -108 -213 -210 -238c-32 -8 -55 -10 -87 -10c-119 0 -177 81 -177 168c0 141 162 249 291 249zM322 374c-46 0 -75 -18 -90 -59c-14 -39 -54 -239 -54 -269c0 -31 37 -33 62 -33c39 0 64 4 78 41c21 53 62 217 62 272
c0 35 -22 48 -58 48zM438 513c-34 0 -62 32 -62 65c0 34 28 65 62 65c35 0 65 -29 65 -65s-29 -65 -65 -65zM227 513c-34 0 -62 32 -62 65c0 34 28 65 62 65c35 0 65 -29 65 -65s-29 -65 -65 -65z" />
    <glyph glyph-name="ograve" unicode="&#xf2;" 
d="M333 402c95 0 183 -69 183 -169c0 -112 -108 -213 -210 -238c-32 -8 -55 -10 -87 -10c-119 0 -177 81 -177 168c0 141 162 249 291 249zM322 374c-46 0 -75 -18 -90 -59c-14 -39 -54 -239 -54 -269c0 -31 37 -33 62 -33c39 0 64 4 78 41c21 53 62 217 62 272
c0 35 -22 48 -58 48zM338 498l-137 88c-20 13 -41 26 -41 53c0 24 20 44 44 44c45 0 71 -43 98 -74l97 -111h-61z" />
    <glyph glyph-name="otilde" unicode="&#xf5;" 
d="M333 402c95 0 183 -69 183 -169c0 -112 -108 -213 -210 -238c-32 -8 -55 -10 -87 -10c-119 0 -177 81 -177 168c0 141 162 249 291 249zM322 374c-46 0 -75 -18 -90 -59c-14 -39 -54 -239 -54 -269c0 -31 37 -33 62 -33c39 0 64 4 78 41c21 53 62 217 62 272
c0 35 -22 48 -58 48zM459 643h43c-15 -64 -46 -126 -121 -126c-31 0 -59 12 -85 24c-25 12 -49 24 -72 24c-21 0 -41 -22 -45 -47h-42c9 63 47 125 118 125c28 0 57 -12 83 -24c27 -13 51 -25 69 -25c31 0 42 24 52 49z" />
    <glyph glyph-name="scaron" unicode="&#x161;" horiz-adv-x="389" 
d="M220 112l-114 88c-35 27 -32 54 -32 71c0 62 58 131 160 131c44 0 117 -19 117 -76c0 -25 -18 -50 -45 -50c-29 0 -48 14 -53 43c-1 6 3 30 5 39c3 12 -31 16 -39 16c-23 0 -63 -5 -63 -35c0 -18 7 -24 20 -33l100 -74c34 -25 60 -55 60 -101c0 -97 -82 -146 -169 -146
c-55 0 -147 19 -147 91c0 34 25 59 59 59c29 0 51 -24 51 -53c0 -17 -13 -37 -13 -49c0 -18 40 -20 55 -20c30 0 80 6 80 47c0 22 -15 39 -32 52zM322 492h-93l-85 174l3 2h53l92 -99l132 99h56l1 -2z" />
    <glyph glyph-name="uacute" unicode="&#xfa;" 
d="M317 161l59 235h129l-79 -352c-2 -11 1 -18 12 -18c36 0 77 72 87 101l21 -5c-22 -76 -72 -137 -157 -137c-39 0 -83 18 -83 64c0 19 5 39 7 58l-2 2c-41 -68 -86 -124 -173 -124c-40 0 -98 21 -98 69c0 6 2 16 5 28l67 286h-72l7 28h103c17 0 34 1 51 2s34 2 51 2
l-82 -333c-5 -21 -15 -47 14 -47c35 0 74 47 93 73c11 15 36 51 40 68zM467 586l-137 -88h-61l97 111c27 31 53 74 98 74c24 0 44 -20 44 -44c0 -27 -21 -40 -41 -53z" />
    <glyph glyph-name="ucircumflex" unicode="&#xfb;" 
d="M317 161l59 235h129l-79 -352c-2 -11 1 -18 12 -18c36 0 77 72 87 101l21 -5c-22 -76 -72 -137 -157 -137c-39 0 -83 18 -83 64c0 19 5 39 7 58l-2 2c-41 -68 -86 -124 -173 -124c-40 0 -98 21 -98 69c0 6 2 16 5 28l67 286h-72l7 28h103c17 0 34 1 51 2s34 2 51 2
l-82 -333c-5 -21 -15 -47 14 -47c35 0 74 47 93 73c11 15 36 51 40 68zM154 494l157 174h93l87 -174l-3 -2h-56l-90 98l-136 -98h-51z" />
    <glyph glyph-name="udieresis" unicode="&#xfc;" 
d="M317 161l59 235h129l-79 -352c-2 -11 1 -18 12 -18c36 0 77 72 87 101l21 -5c-22 -76 -72 -137 -157 -137c-39 0 -83 18 -83 64c0 19 5 39 7 58l-2 2c-41 -68 -86 -124 -173 -124c-40 0 -98 21 -98 69c0 6 2 16 5 28l67 286h-72l7 28h103c17 0 34 1 51 2s34 2 51 2
l-82 -333c-5 -21 -15 -47 14 -47c35 0 74 47 93 73c11 15 36 51 40 68zM423 513c-34 0 -62 32 -62 65c0 34 28 65 62 65c35 0 65 -29 65 -65s-29 -65 -65 -65zM212 513c-34 0 -62 32 -62 65c0 34 28 65 62 65c35 0 65 -29 65 -65s-29 -65 -65 -65z" />
    <glyph glyph-name="ugrave" unicode="&#xf9;" 
d="M317 161l59 235h129l-79 -352c-2 -11 1 -18 12 -18c36 0 77 72 87 101l21 -5c-22 -76 -72 -137 -157 -137c-39 0 -83 18 -83 64c0 19 5 39 7 58l-2 2c-41 -68 -86 -124 -173 -124c-40 0 -98 21 -98 69c0 6 2 16 5 28l67 286h-72l7 28h103c17 0 34 1 51 2s34 2 51 2
l-82 -333c-5 -21 -15 -47 14 -47c35 0 74 47 93 73c11 15 36 51 40 68zM338 498l-137 88c-20 13 -41 26 -41 53c0 24 20 44 44 44c45 0 71 -43 98 -74l97 -111h-61z" />
    <glyph glyph-name="yacute" unicode="&#xfd;" horiz-adv-x="500" 
d="M256 324l53 -185l67 182c12 31 25 81 66 81c29 0 46 -21 46 -49c0 -26 -12 -56 -42 -56c-7 0 -19 8 -27 9c-16 3 -26 -29 -30 -40l-104 -268c-33 -84 -96 -213 -201 -213c-39 0 -71 28 -71 68c0 34 23 61 58 61c32 0 60 -22 53 -54c-4 -18 6 -23 16 -23
c22 0 82 84 87 106c2 8 4 16 4 24c0 16 -8 37 -13 53l-82 243c-5 15 -13 61 -33 61c-22 0 -53 -62 -62 -78l-22 9c21 56 77 147 145 147c33 0 71 -4 92 -78zM439 586l-137 -88h-61l97 111c27 31 53 74 98 74c24 0 44 -20 44 -44c0 -27 -21 -40 -41 -53z" />
    <glyph glyph-name="ydieresis" unicode="&#xff;" horiz-adv-x="500" 
d="M256 324l53 -185l67 182c12 31 25 81 66 81c29 0 46 -21 46 -49c0 -26 -12 -56 -42 -56c-7 0 -19 8 -27 9c-16 3 -26 -29 -30 -40l-104 -268c-33 -84 -96 -213 -201 -213c-39 0 -71 28 -71 68c0 34 23 61 58 61c32 0 60 -22 53 -54c-4 -18 6 -23 16 -23
c22 0 82 84 87 106c2 8 4 16 4 24c0 16 -8 37 -13 53l-82 243c-5 15 -13 61 -33 61c-22 0 -53 -62 -62 -78l-22 9c21 56 77 147 145 147c33 0 71 -4 92 -78zM395 513c-34 0 -62 32 -62 65c0 34 28 65 62 65c35 0 65 -29 65 -65s-29 -65 -65 -65zM184 513
c-34 0 -62 32 -62 65c0 34 28 65 62 65c35 0 65 -29 65 -65s-29 -65 -65 -65z" />
    <glyph glyph-name="zcaron" unicode="&#x17e;" horiz-adv-x="444" 
d="M86 106l236 191l-2 2c-47 -18 -100 -30 -152 -30c-26 0 -50 4 -75 11c-9 -20 -19 -40 -30 -59l-21 11l80 170c69 -29 141 -45 216 -45c14 0 30 0 32 11c4 20 14 34 34 34c11 0 16 -12 16 -21c0 -32 -34 -62 -57 -80l-231 -189l2 -2c24 5 51 6 78 6c25 0 52 -7 76 -14
c23 -7 44 -14 56 -14c17 0 35 7 35 27c0 12 -17 6 -24 6c-25 0 -42 15 -42 41c0 24 17 42 42 42c43 0 52 -36 52 -72c0 -75 -69 -147 -145 -147c-37 0 -67 12 -94 24c-26 12 -49 25 -72 25c-17 0 -13 -10 -13 -21c0 -17 -8 -25 -25 -28c-20 -3 -32 18 -32 36
c0 29 22 54 60 85zM350 492h-93l-85 174l3 2h53l92 -99l132 99h56l1 -2z" />
    <glyph glyph-name="Delta" unicode="&#x2206;" horiz-adv-x="693" 
d="M601 0h-617l7 33l405 617l62 14l150 -631zM458 59l-102 456l-291 -456h393z" />
    <glyph glyph-name="Omega" unicode="&#x2126;" horiz-adv-x="799" 
d="M742 161l-64 -161h-273l-4 24c59 73 171 198 200 338c40 193 -26 265 -125 265c-103 0 -192 -71 -234 -269c-28 -133 21 -249 54 -334l-13 -24h-274l8 161l32 1c11 -59 23 -72 70 -72h103c-62 50 -153 130 -122 275c39 183 201 300 388 300c189 0 297 -111 258 -292
c-27 -128 -147 -216 -247 -283h114c45 0 60 11 96 72z" />
    <glyph glyph-name="pi" unicode="&#x3c0;" horiz-adv-x="621" 
d="M611 469l26 -9c-14 -41 -46 -96 -64 -113c-18 -5 -44 -6 -71 -6c-19 -60 -33 -128 -47 -197c-12 -60 0 -83 27 -83c20 0 33 9 52 22l8 -27c-36 -42 -93 -68 -139 -68c-59 0 -100 28 -79 128c19 87 40 160 59 227c-63 1 -104 2 -143 2l-3 -12
c-46 -219 -119 -311 -138 -328c-26 -9 -53 -15 -72 -17l-4 21c93 92 150 247 170 338c-65 0 -96 -13 -144 -41l-11 29c46 47 94 104 209 103c80 -1 193 -3 292 -3c31 0 49 6 72 34z" />
    <glyph glyph-name="Euro" unicode="&#x20ac;" horiz-adv-x="611" 
d="M466 239h-211c-12 -95 -41 -224 97 -224c100 0 171 97 194 157l36 -6l-42 -166h-22l-29 34c-46 -39 -93 -49 -152 -49c-148 0 -234 98 -237 254h-78l29 54h52c2 24 7 47 13 69h-68l29 54h59c19 42 46 84 75 117c60 70 136 132 244 132c48 0 87 -19 120 -52l39 37h21
l-24 -167l-33 3c-5 69 -43 149 -120 149c-125 0 -145 -136 -166 -219h269l-30 -54h-252c-5 -23 -9 -46 -14 -69h230z" />
    <glyph glyph-name="estimated" unicode="&#x212e;" horiz-adv-x="905" 
d="M873 315h-611c-3 0 -5 -1 -5 -4v-185c0 -8 3 -15 8 -21c59 -61 141 -100 231 -100c98 0 184 44 243 112h55c-68 -79 -177 -131 -299 -131c-208 0 -376 151 -376 338c0 188 168 339 376 339c209 0 378 -151 378 -339v-9zM734 339v186c0 8 -3 16 -9 22
c-59 58 -139 96 -229 96c-89 0 -171 -39 -230 -99c-6 -6 -9 -14 -9 -23v-182c0 -2 2 -6 5 -6h468c3 0 4 4 4 6z" />
    <glyph glyph-name="partialdiff" unicode="&#x2202;" horiz-adv-x="583" 
d="M315 416h1c49 0 101 -21 121 -63c11 30 24 69 32 103c12 49 19 100 5 147c-12 40 -48 73 -100 73c-59 0 -125 -38 -170 -69c-20 -1 -44 55 -25 84c41 20 91 40 165 40c109 0 171 -53 204 -138c28 -74 21 -163 9 -221c-16 -76 -49 -166 -105 -239
c-65 -87 -152 -147 -263 -147c-122 0 -185 79 -160 199c15 69 55 125 98 162c52 43 120 69 188 69zM338 368h-1c-35 0 -73 -10 -113 -54c-41 -47 -68 -114 -82 -180c-14 -65 5 -110 60 -110c49 0 94 49 125 95c40 58 63 109 91 187c-8 25 -34 62 -80 62z" />
    <glyph glyph-name="product" unicode="&#x220f;" horiz-adv-x="842" 
d="M813 666v-32c-90 -7 -96 -15 -96 -84v-506c0 -75 8 -84 95 -90v-33h-305v33c79 6 83 10 83 90v546c0 32 -6 35 -37 35h-179c-31 0 -35 -4 -35 -32v-549c0 -76 1 -84 76 -90v-33h-298v33c86 6 94 15 94 90v506c0 70 -7 78 -97 84v32h699z" />
    <glyph glyph-name="summation" unicode="&#x2211;" horiz-adv-x="688" 
d="M665 128l-50 -213h-501v32l228 311l-221 375v33h493c1 -17 7 -106 13 -176l-33 -8c-11 46 -26 86 -40 109c-16 26 -31 36 -109 36h-171l175 -293l-230 -318h260c93 0 103 4 152 121z" />
    <glyph glyph-name="uni2219" unicode="&#x2219;" horiz-adv-x="333" 
d="M153 304c44 0 83 -37 83 -82c0 -46 -38 -82 -83 -82s-82 38 -82 82s38 82 82 82z" />
    <glyph glyph-name="radical" unicode="&#x221a;" horiz-adv-x="668" 
d="M658 836l-178 -981l-30 -14l-225 519l-90 -43l-13 39l185 87l161 -388h2l139 791z" />
    <glyph glyph-name="infinity" unicode="&#x221e;" horiz-adv-x="804" 
d="M758 271v-1c0 -107 -78 -170 -159 -170c-55 0 -111 25 -177 111c-51 -62 -103 -111 -181 -111c-83 0 -157 67 -157 165c0 100 71 169 165 169c74 0 128 -44 178 -108c41 46 90 109 178 108c86 -1 153 -65 153 -163zM249 170h1c55 0 98 51 133 93c-39 53 -74 103 -137 103
c-54 0 -90 -42 -90 -101c0 -52 40 -95 93 -95zM597 366h-1c-58 0 -102 -62 -133 -97c59 -74 91 -99 138 -99c55 0 85 52 85 95c0 59 -36 101 -89 101z" />
    <glyph glyph-name="integral" unicode="&#x222b;" horiz-adv-x="495" 
d="M254 -5l-21 381c-19 353 93 424 175 424c32 0 73 -19 73 -54c0 -38 -27 -56 -55 -56c-37 0 -36 61 -58 61c-19 0 -37 -27 -30 -151l18 -359c18 -338 -76 -444 -178 -444c-41 0 -73 25 -74 57c-1 33 35 59 66 59c32 0 31 -66 53 -66c27 0 36 58 31 148z" />
    <glyph glyph-name="approxequal" unicode="&#x2248;" horiz-adv-x="604" 
d="M518 433l48 -47c-37 -60 -86 -98 -141 -98c-43 0 -72 14 -116 39c-28 16 -54 32 -87 32c-45 0 -74 -34 -101 -70l-48 46c31 55 91 98 153 98c48 0 80 -19 108 -35c38 -23 57 -35 89 -35c38 0 66 26 95 70zM518 249l48 -46c-36 -59 -85 -98 -142 -98c-43 0 -73 15 -115 39
c-30 17 -55 31 -87 31c-46 0 -74 -33 -101 -70l-48 47c31 55 91 98 153 98c48 0 80 -20 107 -35c30 -17 54 -35 89 -35c40 0 65 25 96 69z" />
    <glyph glyph-name="notequal" unicode="&#x2260;" horiz-adv-x="622" 
d="M473 489l-39 -84h140v-75h-171l-59 -129h230v-74h-261l-52 -114l-59 27l39 87h-137v74h169l58 129h-227v75h258l50 111z" />
    <glyph glyph-name="lessequal" unicode="&#x2264;" horiz-adv-x="642" 
d="M592 102l-464 215v80l464 214v-84l-385 -169v-2l385 -169v-85zM594 -8h-469v75h469v-75z" />
    <glyph glyph-name="greaterequal" unicode="&#x2265;" horiz-adv-x="642" 
d="M129 611l464 -215v-79l-463 -215v85l384 169v2l-385 169v84zM591 -8h-465v75h465v-75z" />
    <glyph glyph-name="lozenge" unicode="&#x25ca;" horiz-adv-x="687" 
d="M642 316l-210 -388h-90l-209 388l211 391h88zM555 316l-165 316h-4l-166 -315l166 -317h3z" />
    <glyph glyph-name="uni02C9" unicode="&#x2c9;" horiz-adv-x="333" 
d="M332 596h-331v72h331v-72z" />
    <glyph glyph-name="uni00AD" unicode="&#xad;" horiz-adv-x="333" 
d="M309 150h-285l20 102h285z" />
    <glyph glyph-name="uni03A9" unicode="&#x3a9;" horiz-adv-x="799" 
d="M742 161l-64 -161h-273l-4 24c59 73 171 198 200 338c40 193 -26 265 -125 265c-103 0 -192 -71 -234 -269c-28 -133 21 -249 54 -334l-13 -24h-274l8 161l32 1c11 -59 23 -72 70 -72h103c-62 50 -153 130 -122 275c39 183 201 300 388 300c189 0 297 -111 258 -292
c-27 -128 -147 -216 -247 -283h114c45 0 60 11 96 72z" />
    <glyph glyph-name="uni00A0" unicode="&#xa0;" horiz-adv-x="305" 
 />
    <glyph glyph-name="afii61289" unicode="&#x2113;" horiz-adv-x="465" 
d="M397 136l18 -23c-63 -80 -135 -127 -221 -127c-57 0 -89 14 -109 40c-18 27 -28 60 -9 148l12 56l-72 -40l-7 31l88 52l26 126c31 142 54 199 110 250c45 44 88 59 128 59c76 0 95 -66 80 -136c-23 -110 -101 -189 -221 -277l-16 -74c-26 -120 -5 -163 57 -163
c51 0 99 38 136 78zM254 457l-23 -108c63 57 117 127 137 221c11 51 10 102 -23 102c-38 0 -57 -56 -91 -215z" />
    <glyph glyph-name="uni03BC" unicode="&#x3bc;" 
d="M317 161l59 235h129l-79 -352c-2 -11 1 -18 12 -18c36 0 77 72 87 101l21 -5c-22 -76 -72 -137 -157 -137c-39 0 -83 18 -83 64c0 19 5 39 7 58l-2 2c-41 -68 -86 -117 -159 -121c-22 -1 -37 -20 -34 -44c2 -18 2 -58 -8 -98c-6 -24 -24 -66 -62 -66c-35 0 -46 62 -42 86
c7 41 22 76 32 92c10 17 17 38 12 50c-6 14 -11 48 -5 74l67 286h-72l7 28h103c17 0 34 1 51 2s34 2 51 2l-82 -333c-5 -21 -15 -47 14 -47c35 0 74 47 93 73c11 15 36 51 40 68z" />
    <glyph glyph-name="uni2215" unicode="&#x2215;" horiz-adv-x="167" 
d="M333 665l-448 -665h-53l448 665h53z" />
    </font>
</defs>
</svg>
