<svg xmlns="http://www.w3.org/2000/svg" width="142" height="107" viewBox="0 0 142 107">
    <path fill="#B2E2DC" fill-rule="nonzero" d="M62.695 38.88a21.04 21.04 0 0 1 2.216 5.88l-32.764 5.975a15.876 15.876 0 0 1 .568-6.382 17.614 17.614 0 0 1 2.817-5.631 17.28 17.28 0 0 1 4.735-4.273 17.997 17.997 0 0 1 6.293-2.385 17.213 17.213 0 0 1 6.922 0 13.873 13.873 0 0 1 5.406 2.433 14.202 14.202 0 0 1 3.807 4.383zm36.776-14.322c15.355.088 29.484 8.363 37.021 21.682a42.428 42.428 0 0 1-.554 42.761H99.47V24.558zm-8.554-5.534C74.151-1.773 44.097-6.142 22.057 9.012.02 24.167-6.52 53.698 7.076 76.675c13.595 22.978 42.707 31.597 66.703 19.749 15.643 13.673 38.905 14.139 55.087 1.102H90.917V19.024zm-21.86 57.04a31.92 31.92 0 0 1-12.806 5.176 32.278 32.278 0 0 1-12.003.042 27.348 27.348 0 0 1-10.252-4.136 27.553 27.553 0 0 1-7.712-7.981 31.037 31.037 0 0 1-4.381-11.4 31.803 31.803 0 0 1 0-12.137 27.236 27.236 0 0 1 4.305-10.31 27.887 27.887 0 0 1 7.988-7.582 31.805 31.805 0 0 1 22.262-4.24 23.143 23.143 0 0 1 9.429 4.136 25.995 25.995 0 0 1 6.922 7.995 36.019 36.019 0 0 1 4.042 11.517l.34 1.854c.112.62.186 1.246.221 1.875l-43.804 7.995a16.438 16.438 0 0 0 2.769 6.203 17.405 17.405 0 0 0 4.846 4.576 18.626 18.626 0 0 0 13.311 2.495 18.727 18.727 0 0 0 9.193-4.19 19.94 19.94 0 0 0 5.302-7.065l8.798 4.735a27.784 27.784 0 0 1-8.77 10.442z"/>
</svg>
