<svg xmlns="http://www.w3.org/2000/svg" width="113" height="112" viewBox="0 0 113 112">
    <path fill="#B2E2DC" fill-rule="nonzero" d="M0 0h37a32.89 32.89 0 0 0-4.99 5.062c-5.803 7.281-6.58 11.483-6.58 26.697V38H0V0zm69.473 0H113v37.915H75.623V112H42.607c-3.134-.348-5.518-2.962-5.565-6.1V43.406H56.84V37.95H37V25.154c0-1.613.083-3.122.209-4.583.5-5.978 2.045-10.658 4.633-14.042l.104-.152C45.24 2.167 49.281.062 54.071.062c2.537-.004 4.439.386 5.705 1.17 1.266.785 1.899 1.65 1.899 2.597 0 .63-.696 1.53-2.087 2.707-.118.104-.216.194-.348.305a7.969 7.969 0 0 0-3.054 6.439 7.598 7.598 0 0 0 2.33 5.691 8.126 8.126 0 0 0 5.893 2.257 8.548 8.548 0 0 0 6.567-2.769c1.725-1.87 2.587-4.42 2.587-7.65a17.55 17.55 0 0 0-.514-4.238A14.52 14.52 0 0 0 69.473 0z"/>
</svg>
